<?xml version="1.0" encoding="utf-8"?>
<!DOCTYPE svg PUBLIC "-//W3C//DTD SVG 20010904//EN" "http://www.w3.org/TR/2001/REC-SVG-20010904/DTD/svg10.dtd">
<svg version="1.0" xmlns="http://www.w3.org/2000/svg" width="2607px" height="1617px" viewBox="0 0 2607 1617" preserveAspectRatio="xMidYMid meet">
 <g fill="#261c0f">
  <path d="M565.8 1502.1 l0 -42.1 3.4 0.3 c3.2 0.3 3.3 0.5 3.6 5.2 0.4 5.6 1.6 6.1 5.6 2 5.1 -5.3 11.6 -7.9 20.2 -7.9 6.6 0 8.5 0.4 13.2 3.1 15.4 8.5 22 26.1 15.2 40.8 -4.8 10.8 -11.3 16.1 -22 18.3 -10.2 2.1 -21.9 -1 -27.5 -7.2 -4.1 -4.5 -4.6 -3.1 -4.6 13.9 l0 15.9 -3.6 0 -3.6 0 0 -42.2z m44.6 12 c17 -10 17.1 -35.3 0.2 -45.3 -14.1 -8.2 -32.7 -0.9 -37.2 14.6 -4.1 13.9 2.7 27.9 15.7 32.8 5.9 2.3 15.6 1.2 21.3 -2.1z"/>
  <path d="M963.1 1502.1 l0 -42.1 3.4 0.3 c3.2 0.3 3.3 0.5 3.6 5.2 0.4 5.7 1.6 6.2 6 1.6 10.2 -10.8 29 -10.6 39.5 0.4 13.1 13.6 14 29.7 2.4 44.9 -4.5 5.9 -7.3 7.5 -15.6 9.2 -9.8 2.1 -19.7 -0.1 -25.5 -5.3 -2.4 -2.2 -4.7 -3.9 -5.4 -3.9 -0.8 0 -1.1 4.7 -1.1 15.9 l0 15.9 -3.6 0 -3.6 0 0 -42.2z m39.2 14.5 c14 -3.9 20.9 -21.3 14.8 -36.6 -4.2 -10.4 -13.5 -15.6 -25.6 -14.4 -9.7 1 -14.2 4.1 -19 13.5 -5.7 11.2 -2.6 26.5 7.3 34.3 4.8 3.8 15 5.2 22.5 3.2z"/>
  <path d="M288.2 1529.2 c-0.4 -0.3 -0.7 -3.4 -0.7 -6.7 l0 -6 3.4 0 c1.7 0 3.8 -0.4 4.4 -0.8 0.6 -0.4 3.1 -5.3 5.5 -11 2.4 -5.6 6.8 -15.6 9.8 -22.1 3 -6.5 6.5 -14.3 7.7 -17.1 3.4 -8.1 4.4 -7.5 8.2 4.3 0.7 2.3 3.2 8.3 5.6 13.3 2.4 5.1 6.6 14.7 9.3 21.3 l5 12.1 3.9 0 3.8 0 0 6.2 0 6.2 -3.1 0 c-2.9 0 -3.1 -0.2 -3.1 -4.1 l0 -4.1 -26.7 0 -26.7 0 0 4.6 c0 4.4 -0.1 4.6 -2.9 4.6 -1.6 0 -3.3 -0.3 -3.6 -0.7z m50.6 -14 c0 -0.7 -2.8 -8.2 -6.3 -16.7 -3.4 -8.4 -6.9 -17.5 -7.7 -20.1 -0.9 -2.9 -2.2 -4.9 -3 -4.9 -1.1 0 -9.8 15.9 -9.8 18 0 0.2 -2.1 5.3 -4.6 11.2 -2.6 6 -4.6 11.6 -4.6 12.4 0 1.3 2.7 1.5 18 1.5 14.1 0 18 -0.3 18 -1.3z"/>
  <path d="M235.2 1521.4 c-4.4 -0.9 -6.7 -2.3 -11.1 -6.3 -7.4 -6.8 -10.8 -13.5 -11.4 -22.8 -0.4 -6.3 -0.1 -7.9 2.4 -13 5.5 -11.7 17.6 -20.2 28.7 -20.2 6.7 0 14.9 3.5 19.6 8.2 5.5 5.5 6.6 5.3 6.6 -1.5 0 -5.5 0 -5.6 3.1 -5.6 l3.1 0 0 30.3 0 30.3 -3.1 0 c-2.9 0 -3.1 -0.2 -3.1 -4.1 0 -2.4 -0.5 -4.1 -1.1 -4.1 -0.6 0 -3 1.4 -5.2 3.2 -7.4 6 -17.7 8 -28.4 5.7z m22.3 -7.4 c8.6 -4.6 12.5 -12 12.5 -23.4 0 -18.3 -19 -30.6 -35.5 -22.9 -6 2.8 -9.9 6.5 -12.9 12.3 -1.6 3.3 -2 5.5 -1.6 12.3 0.2 7.1 0.7 9 3.3 13 3.1 4.8 7.8 8.7 13.3 10.9 5.1 2.1 15 1 20.9 -2.3z"/>
  <path d="M385.4 1521.2 c-6.1 -1.4 -9.9 -4 -14.7 -9.4 -5.2 -5.9 -6.5 -10 -6.6 -20.8 -0.1 -8.8 0.2 -10.2 2.7 -14.4 6 -10.2 15.3 -16.3 25.9 -17.1 5.4 -0.5 7.4 -0.2 12.1 2 3.1 1.4 7.2 4 9.2 5.9 2.1 1.7 4.1 3.2 4.7 3.2 0.6 0 1.2 -2.2 1.4 -4.8 0.3 -4.7 0.4 -4.9 3.4 -4.9 l3.1 0 0.3 30.1 0.2 30 -3.6 0 c-3.5 0 -3.6 -0.1 -3.6 -4.1 0 -4.4 -1.7 -5.4 -4.1 -2.6 -2.7 3.2 -7.2 5.7 -12.8 7.2 -6.8 1.7 -10.4 1.7 -17.7 0z m18.8 -5.2 c6 -2.5 9.4 -5.3 12.4 -10.1 2.3 -3.5 2.9 -5.7 3.2 -13 0.4 -8.2 0.2 -9.3 -2.4 -14.2 -5 -9.2 -14 -14.1 -24 -13.1 -21.8 2 -31.4 26.6 -17 43.6 6.4 7.5 18.8 10.6 27.8 6.8z"/>
  <path d="M466 1521.2 c-13.1 -2.9 -23.4 -16 -23.4 -29.9 0 -10.9 8.5 -23.6 19.3 -28.7 12.5 -6 28.5 -3.7 37.9 5.3 l4.8 4.5 -2.3 1.6 c-2.2 1.4 -2.6 1.3 -6.6 -2.2 -11.1 -9.4 -29.8 -8.6 -39.4 1.7 -5.1 5.4 -6.6 9.1 -6.6 17.2 0 8.3 1.4 12.4 6.2 17.9 9.2 10.5 27.4 11.8 38.9 2.7 4.3 -3.4 5.1 -3.7 7.2 -2.7 l2.3 1.2 -2.2 2.7 c-3.2 4.1 -8.7 7.1 -15.8 8.6 -7.5 1.6 -12.5 1.6 -20.3 -0.1z"/>
  <path d="M665.1 1521.3 c-17.1 -3.8 -27.4 -25.4 -19.9 -41.9 7.2 -15.9 23.4 -23.8 38.7 -18.8 7.8 2.7 17.4 12.2 20.4 20.5 4.3 11.8 0.7 24.6 -9.7 34.1 -4.7 4.3 -6.4 5.2 -12.1 6.3 -7.9 1.4 -9.8 1.4 -17.5 -0.2z m20.5 -6.7 c8.5 -4.4 13.5 -13 13.6 -23.5 0.1 -21.8 -24.5 -33.6 -40.6 -19.5 -6.8 6 -8.7 10.4 -8.7 19.6 0 12.6 5.9 21.5 16.6 25 5.4 1.7 14 1 19.1 -1.5z"/>
  <path d="M873.2 1521.2 c-6.7 -1.6 -9 -3.3 -13.3 -9.3 -4.5 -6.4 -7.6 -14.8 -7.6 -20.7 0.1 -10.1 8.1 -23.8 16.6 -28.4 6.9 -3.8 16.7 -4.6 24.4 -2.1 9.5 3.2 19.3 15.4 20.8 26.5 l0.6 3.8 -27.7 0 -27.6 0 0 3.1 c0 4.3 3.6 14.3 6.3 17 3.9 4.1 11.8 6.9 18.8 6.4 8.5 -0.5 14.7 -3.7 18.6 -9.5 3.3 -4.9 4.1 -5.3 6.9 -3.2 1.7 1.2 1.6 1.6 -1.1 5.3 -4.8 6.6 -9.1 9.8 -15.4 11.3 -7 1.6 -13.2 1.6 -20.2 -0.1z m33.5 -37.5 c0 -1.3 -3.8 -9.2 -5.4 -11.5 -3.1 -3.9 -10.2 -6.5 -18.3 -6.5 -6.9 0 -8.3 0.4 -12.8 3.1 -4.9 3.1 -7.7 7 -9.1 13.1 l-0.7 2.8 23.2 0 c15 0 23.2 -0.4 23.2 -1z"/>
  <path d="M1061.4 1521.4 c-3.9 -0.8 -6.2 -2.3 -10.4 -6.5 -7.2 -7.1 -10.3 -13.3 -10.7 -22.5 -0.5 -9.1 2.5 -16.4 9.7 -23.8 7.4 -7.6 10.6 -9 20.9 -9 7.7 0 9.3 0.3 13.7 2.9 2.7 1.5 5.9 4.2 7.1 5.9 3.5 4.7 4.9 4 4.9 -2.6 0 -5.5 0 -5.6 3.1 -5.6 l3.1 0 0 30.3 0 30.3 -3.1 0 c-2.9 0 -3.1 -0.2 -3.1 -4.1 0 -4.9 -2.2 -5.5 -5.3 -1.5 -2.6 3.3 -5 4.6 -12 6.3 -6.6 1.5 -10.9 1.6 -17.9 0.1z m21.9 -6.4 c8.2 -4.1 12.3 -11.1 13.1 -22.1 0.7 -10.9 -4.1 -20.5 -12.5 -24.8 -5.7 -3 -14.5 -3.5 -20.9 -1.4 -7.8 2.6 -15 12.1 -16.2 21.5 -1.4 10.3 6.4 24.5 15.2 27.8 5.5 2.1 16.4 1.6 21.4 -0.9z"/>
  <path d="M1143 1521.2 c-5.3 -1.3 -12.5 -5.3 -12.5 -7.1 0 -0.4 -1.1 -2.2 -2.5 -3.8 -9.2 -11 -11.2 -40.7 -3.7 -55.9 4.2 -8.3 5.6 -9.9 12.9 -13 6.4 -2.9 16.7 -4.5 34.1 -5.2 l8.4 -0.4 0 3.3 0 3.3 -8.4 0.6 c-4.7 0.4 -12.9 0.7 -18.3 0.7 -10.7 0 -16 1.7 -20.2 6.3 -4.4 4.9 -9.5 26.6 -6.3 26.6 0.8 0 2.4 -2 3.5 -4.3 2.4 -5.1 9 -10.6 15.1 -12.2 5.5 -1.5 15.7 -0.7 20.2 1.6 5.5 2.9 13.3 11.4 16.1 17.9 2.2 4.7 2.5 7 2.2 12.9 -0.4 8.8 -3.4 15.2 -10 22.2 -4 4.2 -5.6 5.1 -11.4 6.5 -7.8 1.8 -11.9 1.8 -19.3 0.1z m21.7 -6.6 c3.2 -1.5 5.3 -3.7 7.9 -8 3.2 -5.1 3.6 -6.9 4 -14 0.4 -9.3 -1.5 -14.4 -8.2 -21.3 -8.3 -8.5 -25.2 -7.7 -34 1.7 -5.4 5.7 -7.5 18.2 -4.7 28.6 1.6 6.1 9.1 13.1 15.5 14.7 6 1.4 14.4 0.6 19.5 -1.8z"/>
  <path d="M1219.2 1521.2 c-6.7 -1.6 -9.5 -3.6 -13.7 -9.2 -8.3 -11.5 -10 -23.1 -4.7 -33.4 6.4 -12.5 14.1 -18.3 25.8 -19.3 10 -0.7 16.5 1.7 23.5 9.1 7.6 7.9 10.2 13.8 10.2 23 0 8.9 -3.4 16.4 -10.7 23.6 -3.8 3.8 -6.1 5 -10.9 6.2 -7.2 1.7 -12.4 1.7 -19.5 0z m21.6 -6.4 c6.7 -3.1 12.9 -14.6 12.9 -23.4 0 -8.7 -5.6 -19.2 -12.3 -23 -9.1 -5.1 -22.1 -3.4 -29.4 3.9 -10.6 10.8 -9.3 32.2 2.5 40.6 2.3 1.6 6 3.4 8.1 3.8 5.3 1.1 13.9 0.2 18.2 -1.8z"/>
  <path d="M1537.6 1521.2 c-7 -1.6 -8.5 -2.6 -14 -8.4 -4.3 -4.6 -7.1 -10.1 -8.5 -16.9 -0.6 -2.7 -0.9 -2.9 -6.3 -2.9 l-5.6 0 0 13.9 0 13.9 -3.1 0 -3.1 0 0 -30.3 0 -30.3 3.1 0 3.1 0 0 13.3 0 13.3 5.6 0 c4.5 0 5.9 -0.4 6.4 -1.7 5.7 -17.4 18.1 -26.8 33.2 -25.7 8.1 0.5 13.9 3.3 20.2 9.5 11.4 11.4 12.7 27.4 3.4 41 -7.3 10.6 -20.1 14.9 -34.4 11.3z m21.9 -7.4 c2.9 -1.7 6.1 -4.9 7.9 -7.9 2.7 -4.3 3.1 -6.3 3.4 -13.5 0.4 -9.5 -1.1 -14 -7.2 -19.7 -12.7 -12.2 -31.6 -8.6 -39.7 7.6 -3.2 6.4 -3 16.7 0.4 23.5 6.4 12.7 23.1 17.5 35.2 10z"/>
  <path d="M1615.3 1521.2 c-6.2 -1.5 -8.9 -3.2 -13.6 -7.9 -8 -8.4 -10.7 -18.4 -10.1 -37.9 0.4 -12.3 0.7 -14.4 3.3 -20.1 3.5 -7.6 6.4 -10.4 14.6 -14 6.5 -2.9 17.9 -4.5 34.1 -5 l8.4 -0.3 0 3.2 0 3.2 -10 0.6 c-5.5 0.4 -13.8 0.7 -18.3 0.7 -16.6 0.1 -24.5 8.1 -26.8 27 -0.5 4.8 -0.4 5.9 0.9 5.9 0.8 0 2.1 -1.3 2.8 -3.1 1.4 -3.5 7.5 -9.2 12.5 -12 2.4 -1.2 5.6 -1.8 11.1 -1.8 6.4 0 8.7 0.5 13.6 2.9 10.6 5.2 18.3 17.1 18.3 28.4 0 7.6 -2.1 13.5 -7.4 20.2 -4.6 6.1 -7.8 8.1 -15.7 10.2 -6.2 1.6 -10.5 1.6 -17.8 -0.1z m17.6 -5.2 c5.5 -1.8 11.4 -7.4 14.2 -13.2 2.8 -6 2.7 -17.7 -0.2 -22.8 -10.8 -19.5 -35.1 -19.2 -45 0.4 -2.4 4.7 -2.9 13.7 -1.1 19.7 2.2 7.6 8.7 14.1 16.3 16.1 6.5 1.7 10.2 1.7 15.8 -0.2z"/>
  <path d="M1691.3 1521.2 c-17.4 -4.2 -27.3 -26.4 -19.2 -42.6 10.2 -20.5 33.4 -25.7 49.4 -11.1 11.2 10.3 14.2 23.3 8.2 36.5 -3.3 7.2 -11 15.2 -15.7 16.2 -1.5 0.4 -4.2 1.1 -5.9 1.6 -3.9 1.2 -10.2 1 -16.8 -0.6z m21.2 -6.6 c17 -8.7 18 -34.3 1.7 -45.1 -11.8 -7.8 -27.4 -3.9 -34.5 8.4 -3.7 6.6 -4.5 12.1 -3 19.5 2 9.7 9.3 17.4 18.4 19.2 5.4 1.1 12.7 0.3 17.4 -2.1z"/>
  <path d="M1873.4 1521.3 c-7.7 -1.7 -11.3 -4.1 -15.9 -10.6 -9.5 -13.3 -9.4 -24.1 0.2 -38.5 3.2 -4.8 5.1 -6.4 10.8 -9.2 6.4 -3.1 7.8 -3.4 16.2 -3.4 7.5 0.1 10.1 0.5 13.7 2.4 4.3 2.3 12.5 9 12.5 10.4 0 0.3 -0.9 1.2 -2.1 2 -1.8 1.1 -2.7 0.8 -7 -2.8 -6 -5 -12.3 -6.8 -21.5 -6 -7.1 0.7 -13.2 3.6 -17.5 8.1 -5.2 5.5 -6.9 17.7 -3.8 28.1 2.7 9.4 12.8 15.8 25 15.8 7.3 0 12.5 -1.8 17.8 -6.3 4.3 -3.6 5.1 -3.9 7 -2.8 2.7 1.7 2.7 2 -1.2 5.6 -7.9 7.5 -20.7 10.2 -34.2 7.1z"/>
  <path d="M2016.1 1522.2 c-0.5 -0.2 -3.1 -0.9 -5.5 -1.5 -5.9 -1.5 -13.7 -8.8 -17.2 -16.2 -7.7 -15.7 0.2 -35.1 17.4 -42.8 5.3 -2.5 7.2 -2.8 13 -2.4 10.2 0.7 19.6 6.4 25 14.9 5.2 8.5 5.3 25 0.3 33.8 -3.1 5.3 -9.9 11.5 -13.6 12.3 -1.6 0.3 -4.5 1 -6.5 1.5 -3.5 0.9 -10.8 1.1 -12.8 0.4z m18.7 -8.3 c8 -4.6 12 -12.4 12 -23 0 -8.2 -2.5 -13.5 -9.1 -19.3 -8.7 -7.7 -20.7 -8.3 -29.8 -1.4 -17 12.8 -12.9 39.5 7.2 46.6 4 1.4 15.2 -0.2 19.7 -2.9z"/>
  <path d="M2248.2 1521.4 c-6.6 -1.4 -14.9 -8.9 -18.8 -16.9 -5.6 -11.6 -3 -26.1 6.6 -35.4 6.8 -6.6 8.5 -7.7 13.9 -8.9 14.6 -3.6 27.2 2.2 34.7 15.7 3.7 6.8 4.1 8 4.1 15.1 0 6.9 -0.4 8.5 -3.9 15.3 -4.8 9.5 -9.1 13.2 -17.9 15.1 -7.4 1.5 -11.6 1.6 -18.7 0.1z m17.6 -5.3 c6.5 -2 9.9 -4.5 13.2 -10.4 2.5 -4.1 2.8 -5.7 2.8 -14.2 0 -11.1 -1.1 -13.9 -8 -19.9 -5.5 -4.9 -12.5 -7 -19.8 -5.9 -6.3 0.9 -9.4 2.7 -13.6 7.3 -5.5 6.4 -7.5 12 -7 19.8 1.3 18.3 15.3 28.2 32.3 23.2z"/>
  <path d="M2326.1 1521.3 c-12.8 -2.8 -22 -14.2 -22.8 -28.3 -0.4 -7.2 -0.2 -8.3 2.7 -14.1 4.2 -8.2 12.7 -15.9 20.4 -18.3 11.6 -3.7 26 -0.3 33.5 7.9 l3.9 4.3 -2.4 1.3 c-3.2 1.7 -3.6 1.6 -4.1 -0.5 -0.3 -0.9 -3 -3.2 -6.1 -4.8 -5 -2.8 -6.5 -3.1 -14.8 -3.1 -10.4 0 -14 1.3 -19.6 7.4 -5.3 5.6 -7.1 10.2 -7 18.3 0.1 7.9 2.1 12.9 7.4 18.6 4.4 4.8 9.1 6.9 17.1 7.4 8.5 0.5 16.7 -2.2 21.8 -7 2.7 -2.7 3.3 -2.9 4.9 -1.6 1.8 1.3 1.8 1.5 -1 4.9 -4.2 4.9 -6.3 6.1 -13.3 7.6 -7.4 1.6 -13.6 1.6 -20.6 0z"/>
  <path d="M111.2 1518.9 c-0.3 -1 -3.1 -7.7 -6.1 -15 l-5.4 -13 2.3 -4.9 c1.1 -2.7 4.1 -9.4 6.4 -15.1 4 -9.8 4.4 -10.3 7.5 -10.6 1.8 -0.2 3.3 -0.2 3.3 0 0 0.2 -2.4 5.9 -5.2 12.6 -8.3 19.5 -8.1 16.5 -1.5 32.7 3.2 7.7 5.7 14.3 5.7 14.6 0 0.3 -1.4 0.5 -3.1 0.5 -2.1 0 -3.4 -0.6 -3.8 -1.7z"/>
  <path d="M136.2 1516.6 c-0.9 -2.3 -1.6 -4.7 -1.6 -5.4 0 -0.8 -1.6 -5.1 -3.6 -9.7 -2 -4.6 -3.6 -9.2 -3.6 -10.5 0 -1.1 1.4 -5.1 3.2 -8.9 1.6 -3.8 3.4 -8.3 3.7 -10.1 0.3 -1.7 1.4 -5.1 2.5 -7.5 1.6 -3.8 2.3 -4.4 5 -4.4 1.6 0 3.1 0.2 3.1 0.5 0 0.6 -6.9 17.4 -9 22.1 -2.8 6 -2 12.6 3.3 25.2 2.6 6.2 4.7 11.6 4.7 12 0 0.5 -1.3 0.8 -3 0.8 -2.5 0 -3.2 -0.6 -4.6 -4.1z"/>
  <path d="M157.3 1490.7 l0.3 -30.1 3.1 0 3.1 0 0.3 12.6 c0.2 9.1 0.6 12.5 1.5 12.5 1.3 0 2.4 -0.8 18.9 -16.1 9.8 -8.9 10.8 -9.7 14.3 -9.3 l3.7 0.3 -11.9 10.7 c-6.6 5.9 -13.3 11.6 -15 12.6 -1.7 1 -3.1 2.7 -3.1 3.6 0 1 7.1 8.8 15.6 17.5 l15.7 15.7 -4.2 0 c-4.1 0 -4.7 -0.5 -17.8 -14 -8.8 -9 -14.2 -13.8 -15.3 -13.6 -1.5 0.3 -1.7 2.1 -2.1 14 l-0.3 13.6 -3.5 0 -3.6 0 0.2 -30z"/>
  <path d="M530.8 1493.5 l0 -27.2 -8.3 0 -8.2 0 0.3 -2.8 0.3 -2.9 19.5 0 19.5 0 0.3 2.8 0.3 2.8 -8.5 0.3 -8.5 0.3 -0.3 27 -0.2 26.9 -3.1 0 -3.1 0 0 -27.2z"/>
  <path d="M721.8 1490.3 l0 -30.5 11.7 0.5 c9.1 0.4 12.5 1 15.2 2.6 5 2.9 8 7.9 8 13.5 0 3.9 -0.5 5 -3.6 8 -3.7 3.5 -4.5 5.5 -2.3 5.5 2 0 7.8 5.6 8.9 8.7 2.8 7.4 0 16.1 -6.4 20 -3 1.7 -5.2 2.1 -17.5 2.1 l-14.2 0 0 -30.4z m28.4 23 c2.4 -2.5 2.8 -3.7 2.8 -8.5 0 -4.7 -0.4 -6.1 -3 -8.7 -2.9 -3 -3.3 -3.1 -12 -3.1 l-9 0 0 11.9 0 11.9 9.2 -0.4 c8.4 -0.3 9.4 -0.5 12 -3.1z m-2.8 -29.4 c3.4 -3.6 2.5 -14.3 -1.4 -16.8 -0.6 -0.4 -4.7 -0.8 -9 -0.8 l-8 0 0 10.4 0 10.5 8.2 -0.5 c6.7 -0.4 8.6 -0.9 10.3 -2.7z"/>
  <path d="M777.3 1490.4 l0 -30.3 3.1 0 3.1 0 0 12.2 0 12.1 10.2 0.6 c10.5 0.5 15.3 2.2 18.9 6.3 8.4 9.5 6.1 22.5 -5.1 28.2 -1.3 0.6 -7.8 1.1 -16.1 1.1 l-14 0 0 -30.3z m24.1 25.2 c2.4 -0.5 5.1 -2.2 6.6 -3.7 2.1 -2.5 2.4 -3.7 2 -8.8 -0.7 -9.3 -4.8 -12 -19 -12.1 l-6.3 0 -0.4 11.6 c-0.2 6.3 -0.2 12.1 0 12.8 0.5 1.4 11 1.6 17.1 0.2z"/>
  <path d="M829.6 1490.3 l0 -30.3 3.4 0.3 3.3 0.3 0.3 30.1 0.2 30 -3.6 0 -3.6 0 0 -30.4z"/>
  <path d="M1285.5 1493.5 l0 -27.2 -7.7 0 -7.7 0 0 -3.1 0 -3.1 19.5 0 19.5 0 0 3.1 0 3.1 -8.2 0 -8.2 0 0 27.2 0 27.2 -3.6 0 -3.6 0 0 -27.2z"/>
  <path d="M1321.5 1494.3 c0 -31.4 0.3 -34.2 3.7 -34.2 2.5 0 2.5 0 2.5 12.3 l0 12.3 7.2 0 c11.7 0 17.4 1.6 22.4 6.7 l4.3 4.3 0 7.8 c0 6.9 -0.3 8.1 -2.7 11 -4.7 5.5 -7.1 6.2 -23 6.2 l-14.4 0 0 -26.4z m25.8 21 c5.5 -1.6 7.4 -4 7.8 -10.4 0.8 -10.6 -4.1 -14.1 -19.4 -14.1 l-8 0 0 12.8 0 12.8 7.8 0 c4.3 0 9.7 -0.5 11.8 -1.2z"/>
  <path d="M1374.9 1490.3 l0 -30.3 3.4 0.3 3.3 0.3 0.3 30.1 0.2 30 -3.6 0 -3.6 0 0 -30.4z"/>
  <path d="M1428.3 1520.2 c0 -0.3 2.1 -5.1 4.6 -10.8 2.6 -5.6 4.6 -10.9 4.6 -11.5 0 -0.7 2.6 -6.6 5.9 -13.1 3.2 -6.5 7 -14.6 8.5 -18 l2.9 -6.2 1.1 2.9 c0.6 1.5 4.5 9.9 8.7 18.5 4.1 8.5 8.5 18.2 9.9 21.3 1.2 3.1 3.3 8.3 4.6 11.6 l2.5 5.9 -2.5 0 c-3 0 -2.5 0.8 -11.5 -19 -9.3 -20.4 -11.8 -25.2 -13.1 -25.2 -0.5 0.1 -1.8 1.7 -2.9 3.9 -4.8 9.9 -14.1 30.8 -14.1 31.8 0 0.6 -0.8 2.8 -1.7 4.8 -1.3 2.9 -2.3 3.6 -4.6 3.6 -1.5 0 -2.9 -0.2 -2.9 -0.5z"/>
  <path d="M1748.6 1490.7 l0 -30.6 3 0 c2.9 0 3 0.1 3.6 7 0.4 3.8 0.4 14 0.1 22.6 -0.6 15.6 -0.6 15.8 1.4 15.4 1.2 -0.2 11.9 -10 23.7 -21.9 l21.6 -21.6 0 29.6 0 29.5 -3.6 0 -3.6 0 0 -21.6 c0 -17.8 -0.2 -21.6 -1.4 -21.6 -0.8 0 -11.2 9.9 -23.1 21.9 l-21.7 21.8 0 -30.5z"/>
  <path d="M1925.1 1518.4 c0.5 -1.3 3.3 -7.4 6.2 -13.6 2.9 -6.2 5.2 -11.7 5.2 -12.3 0 -1.5 13.7 -30.4 14.5 -30.4 0.9 0 20.6 41.9 23.5 49.8 0.9 2.9 2.2 6 2.6 7 0.7 1.6 0.4 1.8 -2 1.5 -2.5 -0.3 -3.6 -2.1 -11.1 -18.3 -4.5 -9.9 -9 -19.5 -10 -21.3 -0.8 -1.8 -2.3 -3.4 -3.2 -3.4 -1.5 0 -9.9 16.1 -13.5 26.4 -1.1 3 -3.1 7.9 -4.4 11.1 -2.3 5 -2.9 5.6 -5.6 5.6 -2.9 0 -3.1 -0.2 -2.3 -2.3z"/>
  <path d="M2065 1517.9 c20 -22.1 25.6 -28.7 25.6 -30.7 0 -0.8 -2.9 -4.1 -6.4 -7.4 -3.5 -3.2 -9.7 -8.9 -13.7 -12.7 l-7.2 -7 3.6 0 c3.2 0 4.9 1.3 15.6 11.6 14.8 14.1 14.8 14.1 16.6 14.1 1.3 0 1.6 -2.2 1.8 -12.5 l0.3 -12.6 3.4 -0.3 3.3 -0.3 0 13.3 c0 14.3 0.6 15.8 4.6 11.4 1 -1.1 2.4 -2.1 3 -2.1 0.5 0 6.2 -5 12.4 -11.3 10 -9.9 11.9 -11.3 14.9 -11.3 3.4 0 3.2 0.3 -10.1 13.1 -7.5 7.2 -13.6 13.7 -13.6 14.4 0 0.7 1.6 3.1 3.7 5.2 2 2.3 4.9 5.7 6.4 7.7 1.5 2.1 6.2 7.4 10.4 11.9 l7.5 8.2 -3.9 0 c-3.7 0 -4.5 -0.6 -9.7 -6.9 -18.6 -22.5 -19.9 -23.6 -23.7 -20.2 -1.7 1.5 -2 3.2 -2 14.5 l0 12.6 -3.6 0 -3.6 0 0 -13.1 c0 -11.5 -0.2 -13.5 -1.8 -14.9 -1 -1 -2.4 -1.7 -3 -1.7 -0.6 0 -3.1 2.7 -5.5 6 -2.4 3.2 -4.6 6.1 -4.9 6.4 -0.3 0.3 -4 4.3 -8.2 9 -6.8 7.6 -7.9 8.4 -11.2 8.4 l-3.7 0 2.6 -2.8z"/>
  <path d="M2159.5 1490.7 l0.3 -30.1 3.4 -0.3 3.3 -0.3 0 12.3 0 12.4 18.5 0 18.5 0 0 -12.4 0 -12.3 2.9 0.3 2.8 0.3 0.3 30.1 0.2 30 -3.1 0 -3.1 0 0 -14.9 0 -14.9 -18.5 0 -18.5 0 0 14.9 0 14.9 -3.6 0 -3.6 0 0.2 -30z"/>
  <path d="M2390.3 1493.5 l0 -27.2 -8.2 0 -8.2 0 0 -3.1 0 -3.1 19.4 0 c10.8 0 19.7 0.4 20 0.8 0.3 0.5 0.2 1.8 -0.1 3.1 -0.5 2.1 -1.2 2.3 -8.6 2.3 l-8.1 0 0 27.2 0 27.2 -3.1 0 -3.1 0 0 -27.2z"/>
  <path d="M2426.3 1490.4 l0 -30.3 3.1 0 3.1 0 0 23.1 c0 12.7 0.3 23.1 0.8 23.1 1 -0.1 39 -37.6 42.6 -42.1 l2.8 -3.5 0 30 0 30 -3.1 0 -3.1 0 0 -21.6 c0 -19.4 -0.2 -21.6 -1.7 -21.6 -0.9 0 -11.3 9.7 -23.1 21.6 l-21.4 21.6 0 -30.3z"/>
  <path d="M2491.9 1518.4 c0.5 -1.3 3.1 -7.6 5.6 -14 5.1 -12.6 5.5 -15.1 3.1 -19.9 -0.9 -1.8 -3.7 -8 -6.1 -13.9 l-4.4 -10.6 3.3 0 c3.2 0 3.4 0.3 6.8 8.5 1.8 4.6 4.7 11.4 6.5 15.1 l3 6.7 -6.1 14.9 c-5.9 14.6 -6.1 14.9 -9.3 15.2 -3.1 0.3 -3.2 0.2 -2.4 -2.1z"/>
  <path d="M2522.9 1505.4 l6.2 -15.2 -3.1 -6.6 c-4.2 -9.2 -9.3 -21.5 -9.3 -22.6 0 -0.5 1.3 -0.9 2.9 -0.9 2.8 0 3.3 0.7 8.7 13.7 3.2 7.4 6.1 14.4 6.5 15.4 0.4 1.1 -1.6 7.5 -5.3 16.6 -6 14.8 -6.1 14.9 -9.3 14.9 l-3.2 0 6.1 -15.3z"/>
  <path d="M1766.4 1444.4 c-4 -1.1 -9.5 -5.2 -9.5 -7.1 0 -0.4 1.4 -0.8 3.1 -0.8 1.7 0 3.1 0.4 3.1 1 0 2.1 6.2 4.1 12.7 4.1 5.4 0 7.1 -0.4 9.5 -2.4 3 -2.6 8.5 -4.5 8.5 -3 0 2.2 -3.8 5.7 -7.9 7.5 -5.1 2.2 -12.8 2.4 -19.5 0.6z"/>
  <path d="M2101.8 1288.6 l0 -90.4 2.5 -0.6 c1.3 -0.3 3.6 -0.4 4.8 -0.2 2.5 0.3 2.5 0.5 2.8 12.9 0.3 13 1.3 15.7 4.1 9.7 1.8 -4.3 13.8 -15.9 19.5 -19 14 -7.6 33.5 -7.8 48 -0.5 4.8 2.5 15.1 12.1 18.1 16.9 1.2 1.8 3.3 7.9 4.7 13.5 2.3 8.5 2.7 12.1 2.7 24.8 -0.1 24.8 -4.8 39.1 -17.9 52.9 -11.1 11.6 -23.7 16.7 -39.5 15.7 -14.7 -0.9 -25.1 -7 -33.5 -19.4 -1.8 -2.8 -4 -5 -4.6 -5 -1 0 -1.3 8.6 -1.3 39.5 l0 39.5 -5.1 0 -5.1 0 0 -90.4z m69.2 24.2 c10.6 -4.7 20.7 -16.8 25.3 -30.3 4 -11.9 4.5 -35.5 1 -48.6 -2.5 -8.7 -8.6 -18.7 -14 -22.1 -10.1 -6.5 -20 -9 -30.5 -7.9 -7.5 0.8 -16 3.6 -20.1 6.6 -1.6 1.1 -3.3 2.1 -3.7 2.1 -2.1 0 -10.9 14 -13.7 21.6 -2.2 5.6 -2.6 9.1 -3.1 22.2 -0.7 23.8 1 31.1 11 44.2 8.2 10.9 16.1 14.5 32.1 14.7 8.5 0.1 10.9 -0.3 15.6 -2.4z"/>
  <path d="M1629.5 1333.9 c0 -20.3 0 -20.4 2.4 -21 1.2 -0.3 3.8 -0.6 5.6 -0.6 2.9 0 3.8 -0.7 6.9 -5.5 7 -11 15.5 -29.1 19.2 -40.7 4.3 -14 8.6 -36.6 10.2 -54.6 1.1 -11.8 1.4 -13 3.4 -13.6 2.9 -0.8 48.3 -0.8 50.3 0 1.4 0.6 1.6 6.6 1.6 57.5 l0 56.9 7.5 0 c13.1 0 12 -2 12 21.7 l0 20.4 -4.1 0 -4.1 0 0 -16.4 0 -16.4 -50.8 0 -50.8 0 0 16.4 0 16.4 -4.6 0 -4.6 0 0 -20.4z m62.4 -21.6 l26.9 -0.1 0 -52.9 0 -52.9 -16.9 0 c-19.6 0 -18.2 -0.9 -19.4 11.8 -1.7 16.8 -5.5 33.2 -12 52.2 -1.1 3.2 -2.4 7.1 -2.6 8.7 -0.4 2.5 -8.5 19.2 -13.3 27.5 -2.8 4.8 -1.5 6.3 4.9 6.1 3 -0.2 17.6 -0.3 32.4 -0.4z"/>
  <path d="M497.5 1323.7 c-10.9 -2.5 -14.7 -3.8 -22.7 -8 -11.4 -6 -17.6 -10.6 -25.6 -19.1 -9.3 -10.2 -15.6 -22.4 -20.1 -39.8 -2.7 -10.2 -3.7 -33.1 -2 -43.8 3.5 -22.1 14.2 -43.6 27.6 -55.5 8.7 -7.8 22.2 -16.4 30.4 -19.4 11.9 -4.3 37.1 -5.9 58 -3.6 11.7 1.3 30.9 4.5 38.3 6.5 l3.8 1 0 25.1 0 25.2 -7.7 0 c-5.3 0 -7.9 -0.4 -8.1 -1.2 -0.2 -0.7 -2.2 -6.9 -4.4 -13.7 -3.8 -12.1 -4 -12.4 -8.8 -15.6 -21.6 -14.4 -54.1 -11.3 -69.2 6.7 -2.7 3.2 -5.2 6.1 -5.6 6.4 -0.7 0.5 -2.8 6.1 -5.5 14.4 -4.7 14.3 -6.2 42.5 -2.9 58.3 4.8 23.4 13.6 37.1 28.4 44.3 12.8 6.3 19.5 7.6 34.6 7.1 12.5 -0.4 13.1 -0.6 24.3 -5.2 6.3 -2.6 13.8 -6.4 16.5 -8.4 3.9 -2.8 6.1 -3.6 9.3 -3.6 l4.3 0 -0.3 7.9 -0.3 8 -8.2 5.9 c-10 7.2 -28 16.3 -38.5 19.3 -10.9 3.2 -34.1 3.8 -45.7 1.2z"/>
  <path d="M1540.6 1323.6 c-10.2 -2.6 -19.8 -10.4 -23.9 -19 -3 -6.5 -3.1 -23.6 -0.1 -30.1 2.9 -6.4 10.3 -13.2 18.7 -17.2 8.3 -4 10.7 -4.5 37.2 -8.2 10.6 -1.5 20 -3 20.7 -3.3 2.9 -1 0.8 -20.6 -3.1 -30.2 -0.9 -2.1 -9.5 -8.6 -13.5 -10.3 -5 -2 -21.7 -1.4 -28.2 0.9 -7 2.6 -18.2 7.9 -21.3 10.1 -2.4 1.6 -2.4 1.6 -2.4 -3.5 l0 -5.1 7 -3.6 c3.9 -2.1 11.3 -4.9 16.5 -6.5 8.1 -2.3 11 -2.7 19.5 -2.3 12.4 0.4 19.2 3.4 25.6 11 11.2 13.3 11.5 14.7 11.5 70.2 l0 44.9 -5.1 0 -5.1 0 0 -11.8 c0 -9.9 -0.3 -11.8 -1.5 -11.8 -0.9 0 -1.5 0.9 -1.5 2.2 0 1.3 -3 5.1 -7.6 9.8 -10.5 10.5 -17.9 14 -30.8 14.4 -5.1 0.2 -10.8 0 -12.5 -0.5z m30.2 -11.8 c16.6 -8.5 23.8 -22.5 23.8 -46.5 0 -6.4 -0.2 -11.6 -0.5 -11.6 -2.7 0 -42.4 6.6 -47.4 7.9 -14.9 3.7 -21.7 11.1 -22.7 24.8 -0.6 9.2 1.5 15.8 7.1 21.5 6.1 6.1 10.6 7.4 23.5 7.1 9.3 -0.3 11.5 -0.7 16.2 -3.2z"/>
  <path d="M1793.8 1323.1 c-7 -2 -10.5 -4.1 -15.1 -9.1 -20.7 -22.5 -7.5 -55.5 24.4 -61.3 3.1 -0.6 14.1 -2.2 24.5 -3.7 10.5 -1.4 19.8 -2.8 20.8 -3.1 2.3 -0.7 2.4 -8.1 0.3 -18.1 -2.6 -11.7 -6.2 -16.5 -16 -21.2 -4.7 -2.3 -7.1 -2.7 -14.4 -2.7 -4.8 0.1 -10.6 0.6 -12.8 1.3 -7.2 2.4 -20.4 8.5 -22.8 10.7 l-2.4 2.1 0 -4.8 c0 -2.7 0.6 -5.4 1.3 -6.3 2.6 -2.6 12 -6.7 21.4 -9.3 8.1 -2.4 10.8 -2.7 19.3 -2.3 12.9 0.6 19.3 3.5 27.3 12.3 9.8 10.8 9.8 11 9.8 66.6 l0 47.1 -4.6 0 -4.6 0 0 -11.8 c0 -13.5 -0.8 -14.6 -5.4 -7.2 -4.2 6.6 -13 14.3 -20.9 18.2 -6 2.9 -7.9 3.4 -16.1 3.6 -5.4 0.1 -11.3 -0.3 -14 -1.1z m31.6 -11.4 c11.6 -5.9 20.3 -17 23.4 -29.8 1.8 -7.9 2 -28.2 0.2 -28.2 -3.3 0 -42 6.4 -47.5 7.8 -6.6 1.7 -14.9 5.9 -17.4 8.5 -4.7 5.3 -6.1 22.1 -2.5 31.4 3.8 10.1 10.9 13.8 26.6 13.9 9.3 0 10.3 -0.2 17.1 -3.6z"/>
  <path d="M1930.9 1322.6 c-7.8 -2.3 -13.1 -5 -19.3 -10 -4.9 -4 -14.1 -15.3 -14.1 -17.5 0 -0.6 -0.9 -3.3 -2.1 -6 -5.1 -11.6 -6.5 -30.4 -3.1 -44.3 4.4 -18.3 8.1 -25.3 17.9 -33.7 13.1 -11.3 25.4 -16.1 41 -16.1 9.2 0 19.2 1.7 24.7 4.2 2.4 1.1 2.7 1.8 2.7 6.3 0 2.7 -0.2 4.9 -0.4 4.9 -0.2 0 -2.9 -1.1 -6 -2.6 -6.7 -3.1 -19.5 -4.9 -27.5 -4 -6.9 0.7 -14.5 3.4 -22.2 7.7 -14.9 8.4 -24.5 32.4 -22.5 55.9 1.1 12 3.1 18.6 8.3 26.9 5.5 8.9 10.1 12.9 18.9 17.1 6 2.8 7.9 3.2 18.2 3.5 9.7 0.4 12.7 0.1 19 -1.8 4.1 -1.2 8.5 -3.1 9.9 -4.2 3.7 -2.9 4.3 -2.5 4.3 2.5 0 4.1 -0.2 4.4 -5.1 7.2 -10.2 5.7 -30.2 7.5 -42.6 3.9z"/>
  <path d="M670.5 1322.6 c-2.3 -0.6 -2.6 -1.2 -2.6 -5.2 l0 -4.5 10.7 -4 c6 -2.2 11.4 -4.4 12.1 -5 0.7 -0.6 1.3 -3.2 1.3 -6 l0 -4.8 -7.4 -0.6 c-32.1 -2.4 -53.9 -13.9 -68.3 -35.9 -6.5 -9.9 -7.9 -15.4 -7.9 -29.5 0 -18.4 4.8 -30.2 17.7 -42.7 6.8 -6.8 8.5 -7.8 18.1 -11.5 12.4 -4.8 26.6 -8.1 39 -9 l8.8 -0.7 0 -4.4 c0 -5.3 -1 -6.2 -12.3 -10.3 -11.1 -4 -12.5 -5 -12.1 -9.5 l0.3 -3.7 44.5 -0.3 44.4 -0.2 0 4.4 0 4.5 -10.5 4.2 c-12.8 5.1 -14.2 6.2 -14.2 11.5 l0 4.1 4.9 0 c10.4 0.1 28.7 3.8 40.7 8.4 19.3 7.4 30.9 19.5 36.2 38.1 2.9 9.8 3.2 23.9 0.8 33.1 -2.8 10.4 -12.5 23.9 -23 31.6 -3.2 2.4 -6 4.6 -6.3 5 -0.9 1.2 -13.6 6.7 -19.5 8.3 -6.7 2 -24.6 4.8 -30.1 4.8 l-3.8 0 0 4.4 c0 6 1.7 7.3 14.2 12 l10 3.8 0.3 4.6 0.3 4.6 -3.9 0.7 c-5.2 0.8 -79.3 0.6 -82.5 -0.3z m21.6 -94.7 l0 -48.5 -5 0.7 c-13.3 1.7 -22.8 7.4 -28.6 17 -4.1 6.9 -5 10.3 -6.6 21.9 -3.9 30.7 12.6 56.4 37 57.1 l3.3 0.1 0 -48.4z m57 44.9 c7.5 -3.7 13.3 -9.1 17.5 -16.2 5.3 -9 7 -17.2 6.5 -32.1 -0.7 -19.2 -5.6 -30.7 -16 -37.3 -6 -3.9 -11.3 -5.9 -18.5 -6.9 l-5.3 -0.7 0 48.5 0 48.6 5.3 -0.6 c2.9 -0.4 7.7 -1.8 10.6 -3.2z"/>
  <path d="M837 1316.6 l0.3 -4.8 10.1 -3.8 c5.5 -2.2 11.2 -4.6 12.6 -5.4 l2.5 -1.6 0 -71.8 c0 -66.9 -0.1 -71.8 -1.7 -73.3 -1 -0.8 -6.7 -3.4 -12.6 -5.6 l-10.8 -4.1 0 -5 0 -4.9 80.1 0 80.1 0 0.3 25.5 0.2 25.4 -8.5 0 -8.5 0 -3.3 -13 c-1.7 -7.1 -4 -13.8 -4.9 -14.9 -1.6 -1.7 -4 -1.8 -35.5 -1.8 l-33.7 0 0 28.7 0 28.7 19.9 0 c14.7 0 20.2 -0.3 20.8 -1.2 0.4 -0.7 2.5 -6.2 4.5 -12.1 l3.7 -10.8 6.8 -0.3 6.9 -0.3 0 35 0 34.9 -6.7 0 c-5.5 0 -6.9 -0.3 -7.4 -1.7 -0.3 -1 -1.4 -3.7 -2.4 -6 -1 -2.3 -2.4 -6 -3.1 -8.2 -2.8 -9.1 -1.6 -8.7 -23.6 -8.7 l-19.5 0 0 32.9 0 32.9 38.3 0 c35.2 0 38.5 -0.1 40 -1.7 0.8 -1 3.4 -8.5 5.5 -16.7 l4 -14.9 8.2 0 8.1 0 0.3 27 0.2 26.9 -85.7 0 -85.8 0 0.3 -4.8z"/>
  <path d="M1034 1316.6 l0 -4.9 10.1 -3.8 c5.4 -2.2 10.9 -4.5 12 -5.3 2.1 -1.4 2.1 -3 2.4 -72.9 l0.2 -71.6 -2.5 -2.3 c-1.3 -1.2 -6.9 -3.9 -12.3 -5.9 l-9.9 -3.6 0 -5.4 0 -5.5 52.7 0.5 c42.7 0.4 54 0.8 60.3 2.2 9 1.8 22.6 6.6 22.6 7.8 0 0.5 1 1.2 2.3 1.6 3 0.9 13.8 11.2 16.8 16.1 5.3 8.3 7 14.8 7 26.9 0 12.9 -1 17.1 -6.6 28.9 -5.7 11.9 -16.6 22.9 -28 28.2 -15.2 7.1 -45.1 6.2 -56.7 -1.7 -4.6 -3.2 -4.6 -3 -4.6 26.1 0 20.4 0.3 27.9 1.3 29.3 0.6 0.9 6.8 3.7 13.6 6.2 l12.3 4.5 0.3 4.7 0.3 4.8 -46.7 0 -46.8 0 0 -4.8z m100.1 -87.1 c10.8 -5.1 16.7 -15.3 17.7 -30 0.9 -16.3 -3.4 -29 -12.3 -35.5 -7.6 -5.6 -9.7 -6.2 -25.1 -6.7 l-14.7 -0.4 0 36.6 0 36.6 2.4 0.5 c4.2 0.9 8.3 1.2 17.5 1.4 7.8 0.1 9.9 -0.3 14.6 -2.5z"/>
  <path d="M1192.1 1316.5 l0 -5 6.8 -2.9 c8.3 -3.6 10.1 -5.2 14.2 -14.4 3.7 -8.1 29.3 -71.9 38.5 -96 8.6 -22.7 14.3 -35.6 22 -50.3 l6.8 -12.8 15 0 15 0 6.1 15.4 c3.4 8.5 6.1 16.2 6.2 17.2 0 1.1 0.7 3.4 1.5 5.1 1.6 3.6 12.2 30.3 22.8 57.7 3.7 9.7 7.5 19.3 8.5 21.7 3.4 7.4 6.2 14.8 6.2 16.4 0 2.5 12.2 32.5 14.1 34.5 0.8 0.9 5.1 3.3 9.7 5.1 l8.1 3.4 0 4.9 0 4.8 -41.7 0 -41.6 0 0.3 -4.7 c0.3 -4.7 0.4 -4.8 5.4 -6.8 2.9 -1 6.6 -2.6 8.2 -3.3 1.7 -0.8 4.1 -1.7 5.4 -2.2 1.2 -0.3 2.3 -1.1 2.3 -1.7 0 -0.6 -2.1 -6 -4.5 -12 -2.4 -6 -5.1 -13.2 -6.1 -16.1 -0.9 -2.9 -2.5 -6.9 -3.3 -9 l-1.5 -3.7 -34.1 0.2 -34.1 0.3 -1.2 3.6 c-0.6 2 -2.2 6.9 -3.5 10.8 -1.3 4 -3.2 9 -4.2 11.3 -5.7 12.9 -6.1 14.6 -2.7 15.8 1.2 0.5 4.4 1.8 6.9 3 2.6 1.2 6.4 2.9 8.5 3.7 3.6 1.4 3.8 1.7 3.8 6.2 l0 4.7 -31.8 0 -31.8 0 0 -4.9z m115 -75.9 c-0.1 -1 -2.6 -8.1 -5.6 -15.7 -8.1 -19.8 -12.4 -31.2 -14.9 -39.8 -1.6 -5.4 -2.7 -7.4 -3.8 -7.2 -1 0.2 -4.2 7 -8.5 18.3 -3.7 9.9 -9 23.5 -11.6 30.3 -2.7 6.8 -4.8 13.1 -4.8 14.1 0 1.7 1.8 1.8 24.6 1.8 22.8 0 24.6 -0.1 24.6 -1.7z"/>
  <path d="M1411.8 1260 c0 -42.5 0.3 -61.6 1.1 -61.9 0.5 -0.2 2.9 -0.2 5.1 0 l4 0.4 0 29.2 c0 22.7 0.3 29.2 1.3 29.2 0.6 0 7.9 -7 16.1 -15.6 8.2 -8.6 21 -21.8 28.5 -29.4 l13.7 -13.8 5.6 -0.2 5.6 -0.2 -16.4 16.4 c-30.5 30.7 -41.2 42.1 -41.2 43.8 0 2.4 8.8 12.2 26.6 29.7 8.3 8.2 18.9 19.1 23.6 24.1 l8.5 9.2 -6 0.3 -6 0.3 -7.7 -8.5 c-4.2 -4.7 -13.5 -14.4 -20.5 -21.5 -7.1 -7.1 -16.5 -16.9 -20.9 -21.8 -4.4 -4.9 -8.7 -8.9 -9.5 -8.9 -1.2 0 -1.4 4.8 -1.4 30.3 l0 30.3 -5.1 0 -5.1 0 0 -61.5z"/>
  <path d="M2031 1264 l0 -57.5 -19 0 -19 0 0 -4 0 -3.9 5.4 -0.7 c2.9 -0.3 19.7 -0.6 37.2 -0.6 17.6 0 34.3 0.3 37.3 0.6 l5.3 0.7 0 3.9 0 4 -18.5 0 -18.5 0 0 57.5 0 57.5 -5.1 0 -5.1 0 0 -57.5z"/>
  <path d="M333.7 1099 c-8.2 -3.7 -26.7 -13.1 -26.7 -13.7 0 -0.5 28.4 -15.4 30.8 -16.2 0.6 -0.2 1 2.6 1 6.9 l0 7.3 732.6 0 732.6 0 0 -7.2 c0 -3.9 0.3 -7.2 0.6 -7.2 1 0 31.2 15.9 31.2 16.4 0 0.9 -29.6 15.4 -31.3 15.4 -0.3 0 -0.5 -3 -0.5 -6.7 l0 -6.7 -732.6 0 -732.6 0 0 6.7 c0 3.7 -0.3 6.7 -0.7 6.6 -0.5 0 -2.5 -0.7 -4.4 -1.6z"/>
  <path d="M1858.1 1074.3 c3.3 -7.8 12 -25 12.9 -25.6 0.4 -0.3 2.5 1.8 4.6 4.7 2.1 2.8 4.3 5.1 4.9 5.1 1.1 0 15.6 -10.7 17.5 -12.8 1.5 -1.8 33.2 -25.2 34.1 -25.2 0.5 0 2.5 -1.4 4.3 -3.1 1.8 -1.7 10.6 -8.5 19.5 -15.1 8.8 -6.6 18.3 -14 21 -16.4 2.7 -2.5 5.4 -4.4 6 -4.4 0.9 0 19 -13.5 35.2 -26.3 4 -3.1 10.5 -7.8 14.4 -10.4 4 -2.7 10.4 -7.4 14.4 -10.6 16.8 -13.2 39 -29.8 40.2 -29.8 0.6 0 1.6 -0.6 2.1 -1.3 0.4 -0.8 8.7 -7.3 18.3 -14.6 9.7 -7.2 18.9 -14.4 20.5 -15.9 1.7 -1.5 5.1 -4.1 7.7 -5.6 4.6 -2.9 21.6 -15.5 41.9 -31.3 5.9 -4.5 10.9 -8.2 11.4 -8.2 0.4 0 4 -2.6 7.9 -5.6 14.6 -11.5 42.4 -32.3 43.1 -32.3 0.5 0 2 -1.1 3.4 -2.5 1.5 -1.3 10.6 -8.3 20.1 -15.5 9.7 -7.2 17.7 -13.5 18 -13.8 1.1 -1.4 9 -7.3 9.9 -7.3 0.5 -0.1 7.2 -4.9 14.8 -10.8 7.6 -6 16.5 -12.7 19.7 -15.2 3.6 -2.7 6 -5.1 6 -6.4 0 -1 -1.7 -3.7 -3.8 -5.9 -2.1 -2.2 -3.6 -4.1 -3.3 -4.3 0.6 -0.6 34.2 -6.8 34.6 -6.4 0.5 0.6 -3 8.9 -8.7 20.2 l-6.1 11.9 -4 -5.4 c-2.3 -3 -4.6 -5.4 -5.2 -5.5 -1.1 0 -13.5 9 -16.9 12.4 -0.9 0.9 -5.1 4.2 -9.3 7.4 -4.3 3.2 -8.1 6.2 -8.5 6.8 -0.3 0.6 -1.2 1.1 -2.1 1.1 -1.4 0 -8.9 5.4 -23.7 17.2 -12.6 10.2 -28.5 21.8 -29.7 21.8 -0.5 0 -2.7 1.7 -4.6 3.7 -2 2.1 -4.5 4.1 -5.6 4.7 -3.4 2 -30.3 22.5 -30.3 23.2 0 0.4 -2.4 2.2 -5.2 3.8 -2.8 1.7 -10 6.8 -15.9 11.3 -6.1 4.5 -12.1 9 -13.6 10 -1.3 0.9 -2.9 2.2 -3.2 2.7 -0.8 1.2 -18.8 14.5 -28.3 20.9 -3.9 2.7 -8.7 6.3 -10.6 8 -3.2 2.9 -15.6 12.5 -21.2 16.4 -1.2 0.8 -4.8 3.5 -7.9 6 -3.2 2.4 -6.1 4.3 -6.5 4.3 -0.5 0 -1.8 0.9 -3.1 2 -3 2.8 -12.7 10.4 -25.4 19.6 -5.6 4.2 -12.5 9.7 -15.2 12 -2.6 2.5 -5.6 4.7 -6.7 5 -2.4 0.8 -24.5 16.9 -28.3 20.6 -3.7 3.6 -22.8 17.8 -23.9 17.8 -0.9 0 -9.9 6.8 -14.6 11 -3 2.8 -28.6 22.1 -35 26.5 -1.6 1.1 -7.5 5.5 -13 9.8 -5.6 4.2 -11.2 8.4 -12.3 9.2 -6.5 4.5 -15.7 11.6 -16.6 12.7 -1.3 1.7 -11.8 8.8 -12.9 8.8 -2.2 0 -0.6 4.7 2.8 8.9 2.1 2.5 3.6 4.7 3.4 4.9 -0.4 0.3 -33.9 6.7 -35.2 6.7 -0.3 0 0.6 -2.7 2.1 -5.9z"/>
  <path d="M272.1 1060.3 c0 -0.2 1.5 -1.3 3.4 -2.4 1.7 -1.1 8.1 -6 14.1 -10.7 6 -4.7 24.6 -18.9 41.6 -31.5 16.9 -12.6 33.6 -25.3 37 -28.1 3.4 -2.8 7.2 -5.5 8.3 -6 2.4 -0.9 23.8 -16.8 25.6 -18.9 1.6 -2 24.7 -19.1 25.8 -19.1 0.5 -0.1 3.5 -2.2 6.6 -4.7 5.3 -4.3 21.6 -16.6 63.8 -48.4 10 -7.5 19.6 -14.9 21.4 -16.5 1.7 -1.5 5 -4 7.4 -5.4 2.3 -1.3 9.8 -6.8 16.6 -11.9 6.9 -5.2 18.2 -13.9 25.1 -19 6.9 -5.2 14.4 -10.7 16.6 -12 2.4 -1.4 5.6 -3.9 7.5 -5.6 1.8 -1.6 19.8 -15.3 39.8 -30.2 20 -14.9 37 -27.7 37.5 -28.3 1.5 -1.8 13.6 -10.9 14.5 -10.9 0.8 0 24 -17.2 25.6 -19.1 1.7 -2 23.4 -18.1 25.7 -18.9 1.1 -0.5 4.7 -3.1 8.1 -5.9 3.3 -2.7 11.4 -8.9 17.9 -13.9 l11.8 -9 59.9 0 60 0 0 -5.6 c0 -3.1 0.5 -5.6 1 -5.6 0.6 0 1 -0.9 1 -2.1 0 -1.1 -0.4 -2.1 -1 -2.1 -0.5 0 -1 -2.3 -1 -5.1 0 -2.8 0.5 -5.1 1 -5.1 0.6 0 1 -0.9 1 -2.1 0 -1.1 -0.4 -2.1 -1 -2.1 -0.5 0 -1 -2.3 -1 -5.1 0 -2.8 0.5 -5.1 1 -5.1 0.6 0 1 -0.9 1 -2.1 0 -1.1 -0.4 -2.1 -1 -2.1 -0.5 0 -1 -2.1 -1 -4.6 0 -2.6 0.5 -4.6 1 -4.6 0.6 0 1 -0.9 1 -2.1 0 -1.1 -0.4 -2.1 -1 -2.1 -0.5 0 -1 -2.3 -1 -5.1 0 -2.8 0.5 -5.1 1 -5.1 0.6 0 1 -0.9 1 -2.1 0 -1.1 -0.4 -2.1 -1 -2.1 -0.5 0 -1 -2.3 -1 -5.1 0 -2.8 0.5 -5.1 1 -5.1 0.6 0 1 -0.9 1 -2.1 0 -1.1 -0.4 -2.1 -1 -2.1 -0.5 0 -1 -2.3 -1 -5.1 0 -2.8 0.5 -5.1 1 -5.1 0.6 0 1 -0.9 1 -2.1 0 -1.1 -0.4 -2.1 -1 -2.1 -0.5 0 -1 -2.3 -1 -5.1 0 -2.8 0.5 -5.1 1 -5.1 0.6 0 1 -0.9 1 -2.1 0 -1.1 -0.4 -2.1 -1 -2.1 -0.5 0 -1 -2.3 -1 -5.1 0 -2.8 0.5 -5.1 1 -5.1 0.6 0 1 -0.7 1 -1.5 0 -0.8 -0.4 -1.5 -1 -1.5 -0.5 0 -1 -2.3 -1 -5.1 0 -2.8 0.5 -5.1 1 -5.1 0.6 0 1 -0.9 1 -2.1 0 -1.1 -0.4 -2.1 -1 -2.1 -0.5 0 -1 -2.3 -1 -5.1 0 -2.8 0.5 -5.1 1 -5.1 0.6 0 1 -0.9 1 -2.1 0 -1.1 -0.4 -2.1 -1 -2.1 -0.5 0 -1 -2.1 -1 -4.6 0 -2.6 0.5 -4.6 1 -4.6 0.6 0 1 -0.9 1 -2.1 0 -1.1 -0.4 -2.1 -1 -2.1 -0.5 0 -1 -2.6 -1 -5.6 0 -3.1 0.5 -5.6 1 -5.6 0.6 0 1 -0.9 1 -2.1 0 -1.1 -0.4 -2.1 -1 -2.1 -0.5 0 -1 -2.3 -1 -5.1 0 -2.8 0.5 -5.1 1 -5.1 0.6 0 1 -0.9 1 -2.1 0 -1.1 -0.4 -2.1 -1 -2.1 -0.5 0 -1 -2.1 -1 -4.6 0 -2.6 0.5 -4.6 1 -4.6 0.6 0 1 -0.9 1 -2.1 0 -1.1 -0.4 -2.1 -1 -2.1 -0.5 0 -1 -1.8 -1 -4.1 0 -2.8 -0.7 -4.8 -2.2 -6.3 -2.1 -2.1 -5 -2.1 -5 0.1 0 1.7 -9.2 1.2 -9.9 -0.5 -0.4 -0.8 -1.4 -1.5 -2.5 -1.5 -1 0 -2.1 0.7 -2.5 1.5 -0.3 1 -2 1.5 -4.7 1.5 -3 0 -4.1 -0.4 -4.1 -1.5 0 -0.8 -0.9 -1.5 -2.1 -1.5 -1.1 0 -2.1 0.7 -2.1 1.5 0 1.1 -1.2 1.5 -4.6 1.5 -3.2 0 -4.8 -0.5 -5.2 -1.5 -0.4 -0.8 -1.4 -1.5 -2.5 -1.5 -1 0 -2.1 0.7 -2.5 1.5 -0.4 1 -2.1 1.5 -5.2 1.5 -3.4 0 -4.6 -0.4 -4.6 -1.5 0 -0.8 -0.9 -1.5 -2 -1.5 -1 0 -2.2 0.7 -2.6 1.5 -0.3 1 -2 1.5 -4.7 1.5 -3 0 -4.1 -0.4 -4.1 -1.5 0 -2.1 -3.7 -2.1 -4.5 0 -0.3 1 -2 1.5 -4.6 1.5 -2.3 0 -4.7 -0.7 -5.6 -1.5 -2 -2 -4.7 -2 -4.7 0 0 2.2 -9 2.2 -9.9 0 -0.8 -2.1 -4.5 -2 -4.5 0.1 0 1.2 -0.9 1.4 -4.3 1.2 -3.8 -0.3 -4.4 -0.6 -4.1 -2.4 0.4 -2.5 6.2 -7.6 8.7 -7.7 1 0 2.2 -1 2.7 -2.4 1.2 -3.1 5.4 -5.9 8.8 -5.9 1.5 0 2.6 -0.6 2.6 -1.4 0 -2.2 7.1 -7.4 9.4 -7 1.2 0.2 1.8 -0.3 1.8 -1.5 0 -2.2 6.6 -6.9 9.7 -7 1.4 0 2.3 -0.7 2.5 -2.3 0.4 -2.9 4.8 -6.5 8 -6.5 1.7 0 2.5 -0.6 2.5 -2 0 -2.3 6.9 -7.3 10.1 -7.3 1.2 0 2.3 -0.6 2.3 -1.3 0 -1.8 5.6 -5.9 8.2 -5.9 1.1 0 2.4 -0.8 2.8 -1.7 1.1 -3.2 5.9 -7.4 8.3 -7.5 1.2 0 2.3 -0.6 2.3 -1.4 0 -2.2 7.1 -7.4 9.4 -7 1.2 0.2 1.8 -0.3 1.8 -1.5 0 -2.2 6.6 -6.9 9.7 -7 1.3 0 2.3 -0.7 2.5 -2.1 0.3 -2.3 6.1 -6.7 8.7 -6.7 0.9 0 1.7 -0.6 1.7 -1.4 0 -1.6 7.2 -6.8 9.5 -6.8 0.9 0 1.7 -0.6 1.7 -1.4 0 -2 6.6 -6.8 9.2 -6.8 1.2 0 2.5 -0.9 3 -2.3 1.1 -3 6.6 -7 9.3 -7 1.1 0 2.1 -0.6 2.1 -1.4 0 -2.3 5.2 -6.8 7.8 -6.8 1.7 0 2.5 -0.6 2.5 -2.1 0 -1.1 0.5 -2.1 1 -2.1 0.6 0 2.3 -0.8 3.8 -1.7 1.4 -1 3.7 -1.7 4.8 -1.8 1.3 0 2.3 -0.7 2.5 -2.1 0.3 -2.5 6.2 -6.7 9.2 -6.7 1.4 0 2.3 -0.6 2.3 -1.7 0 -2.4 6.4 -7.5 9.1 -7.5 1.4 0 2.2 -0.7 2.2 -1.8 0 -2.3 5.2 -6.4 8.2 -6.4 1.2 0 2.5 -0.9 3 -2.3 1 -2.6 6.5 -7 8.6 -7 0.7 0 3.4 -1.8 5.7 -4 2.5 -2.3 5 -3.8 5.9 -3.5 0.8 0.3 1.7 -0.5 2.4 -2.1 1.2 -3.1 5.6 -6.3 8.7 -6.4 1.3 0 2.3 -0.7 2.5 -2.1 0.3 -2.5 6.2 -6.7 9.2 -6.7 1.5 0 2.3 -0.6 2.3 -2 0 -2.3 6.9 -7.3 10.1 -7.3 1.5 0 2.3 -0.6 2.3 -2.1 0 -1.1 0.6 -2.1 1.4 -2.1 0.8 0 1.6 -0.7 2.1 -1.5 0.3 -0.8 1.7 -1.5 3.2 -1.5 1.7 0 2.9 -0.7 3.5 -2.3 1.1 -3 6.6 -7 9.3 -7 1.1 0 2.1 -0.7 2.1 -1.4 0 -2.2 7.1 -7.4 9.4 -7 1.2 0.2 1.8 -0.3 1.8 -1.5 0 -2.1 7.1 -7.5 9.7 -7.5 0.9 0 1.6 -0.8 1.6 -1.7 0 -2.3 6 -6.5 9 -6.5 1.2 0 2.3 -0.6 2.3 -1.4 0 -1.8 7.3 -6.8 10.1 -6.8 1.5 0 2.3 -0.6 2.3 -2 0 -2.2 4.3 -5.4 8.2 -6.3 1.4 -0.3 2.7 -1.4 3.1 -2.8 0.6 -2.8 5.3 -6.5 8.1 -6.5 1.2 0 2.2 -0.6 2.2 -1.4 0 -2.2 7.2 -7.4 9.4 -7 1.3 0.2 2.2 -0.4 2.6 -1.7 0.6 -2.4 6.6 -6.3 9.7 -6.3 1 0 2 -0.7 2 -1.5 0 -2.3 5.2 -6.6 8 -6.7 1.5 0 2.3 -0.6 2.3 -2 0 -2.3 6.9 -7.3 10.1 -7.3 1.5 0 2.3 -0.6 2.3 -1.8 0 -2.3 5.2 -6.4 8.2 -6.4 1.2 0 2.5 -0.9 3 -2.3 0.9 -2.4 6.4 -7 8.1 -7 0.5 0 2.9 -1.8 5.2 -4 2.9 -2.7 4.9 -3.8 6.3 -3.5 1.4 0.4 2.3 -0.2 3 -2.1 1.2 -3.1 6.3 -6.9 9.2 -6.9 1.3 0 2.2 -0.6 2.2 -1.7 0 -2.3 6 -6.5 9 -6.5 1.5 0 2.3 -0.6 2.3 -1.8 0 -1 1 -2.9 2.4 -4.1 2 -1.7 2.6 -2 4.1 -0.8 0.9 0.7 1.7 2.2 1.7 3.1 0 0.9 0.8 1.6 2.1 1.6 2.8 0 8.2 4 9.3 7 0.5 1.3 1.7 2.3 3 2.3 2.9 0 8.2 4.1 8.2 6.3 0 1.8 3.7 3.7 4.9 2.6 0.8 -0.8 6.4 4.6 6.4 6.3 0 0.7 1.1 1.3 2.6 1.3 3.4 0 8.7 3.9 8.7 6.4 0 1.1 0.7 1.8 2.1 1.8 3.2 0 10.3 5.1 10.3 7.4 0 1.3 0.6 1.8 1.8 1.6 2.5 -0.4 8.3 4 9.5 7.1 0.5 1.4 1.5 2.4 2.3 2.1 1.7 -0.6 6.9 3.2 7.9 6.1 0.6 1.4 1.8 2.5 3 2.5 2.6 0 9.2 4.2 9.3 6 0 0.6 1 1.2 2.4 1.2 2.5 0.1 8.2 4.6 9.2 7.5 0.4 0.9 1.7 1.7 3 1.7 2.6 0 6.2 3.4 7 6.7 0.4 1.1 1.5 2.1 2.7 2.1 3.3 0.1 9.7 4.5 9.7 6.8 0 1.4 0.6 2 1.8 1.8 2.5 -0.4 9.4 4.3 9.4 6.6 0 1.2 0.8 1.7 3 1.7 3.6 0 8.3 3.6 8.3 6.3 0 1.2 0.7 2 2.1 2 2.9 0 8.2 4 9.3 7 0.6 1.4 1.6 2.3 2.8 2.1 2.6 -0.4 8.4 4.1 8.4 6.5 0 1.4 0.7 2 2.9 2 3.1 0.1 8.4 4.2 8.4 6.7 0 0.8 0.7 1.5 1.5 1.5 2.4 0 9.8 5.2 9.8 6.8 0 0.8 0.9 1.4 2.1 1.4 3.1 0 9.1 4.3 9.4 6.7 0.2 1.2 1.1 2.1 2.4 2.1 3 0.1 7.7 3.6 8.8 6.4 0.6 1.6 1.5 2.4 2.9 2.2 2.2 -0.3 8.3 4.8 8.3 7.1 0 2 6.1 1.7 6.9 -0.3 0.4 -1 0 -2.1 -1 -2.7 -2 -1 -2.6 -10.1 -0.7 -10.1 1.3 0 1.3 -3.8 0 -4.6 -0.5 -0.3 -1 -2.7 -1 -5.2 0 -3.3 0.4 -4.5 1.5 -4.5 0.8 0 1.5 -0.7 1.5 -1.5 0 -0.9 -0.7 -1.8 -1.5 -2.2 -1 -0.4 -1.5 -2.1 -1.5 -5.1 0 -3.1 0.5 -4.7 1.5 -5.1 0.8 -0.4 1.5 -1.5 1.5 -2.6 0 -1 -0.7 -2 -1.5 -2 -1.1 0 -1.5 -1.2 -1.5 -5 0 -3.5 0.4 -5.2 1.5 -5.6 2 -0.7 2 -3.7 0 -3.7 -1.1 0 -1.5 -1.2 -1.5 -4.6 0 -2.6 0.5 -4.6 1 -4.6 0.6 0 1 -0.9 1 -2.1 0 -1.1 -0.4 -2.1 -1 -2.1 -0.5 0 -1 -2.3 -1 -5.1 0 -3.9 0.4 -5.1 1.5 -5.1 2.1 0 2.1 -3.7 0 -4.5 -1.7 -0.6 -2.3 -9.9 -0.5 -9.9 0.6 0 1 -1.1 1 -2.6 0 -1.4 -0.4 -2.6 -1 -2.6 -1.3 0 -1.3 -7.9 0 -8.7 0.6 -0.3 1 -1.5 1 -2.7 0 -1 -0.4 -2 -1 -2 -1.7 0 -1.2 -9.2 0.5 -9.9 0.8 -0.4 1.5 -1.5 1.5 -2.6 0 -1 -0.7 -2 -1.5 -2 -1.1 0 -1.5 -1.2 -1.5 -5 0 -3.5 0.4 -5.2 1.5 -5.6 0.8 -0.3 1.5 -1 1.5 -1.6 0 -0.5 -0.7 -1 -1.5 -1 -1.1 0 -1.5 -1.2 -1.5 -5.1 0 -2.8 0.5 -5.1 1 -5.1 0.6 0 1 -0.9 1 -2.1 0 -1.1 -0.4 -2.1 -1 -2.1 -0.5 0 -1 -2.3 -1 -5.1 0 -2.8 0.5 -5.1 1 -5.1 1.4 0 1.3 -3.4 -0.2 -4.9 -0.9 -0.9 0.2 -1.2 5.1 -1.2 3.6 0 6.4 0.4 6.4 1 0 0.6 0.9 1 2.1 1 1.1 0 2.1 -0.4 2.1 -1 0 -0.5 2.4 -1 5.1 -1 2.9 0 5.1 0.5 5.1 1 0 0.6 0.9 1 2.1 1 1.1 0 2.1 -0.4 2.1 -1 0 -0.5 2.1 -1 4.6 -1 2.6 0 4.6 0.5 4.6 1 0 1.3 3.8 1.3 4.6 0 0.8 -1.3 9.4 -1.3 10.3 0 0.8 1.3 4.6 1.3 4.6 0 0 -0.5 2.4 -1 5.1 -1 2.9 0 5.1 0.5 5.1 1 0 0.6 0.7 1 1.5 1 0.8 0 1.5 -0.4 1.5 -1 0 -0.5 2.4 -1 5.1 -1 2.9 0 5.1 0.5 5.1 1 0 0.6 0.9 1 2.1 1 1.1 0 2.1 -0.4 2.1 -1 0 -0.5 2.4 -1 5.1 -1 2.9 0 5.1 0.5 5.1 1 0 0.6 0.9 1 2.1 1 1.1 0 2.1 -0.4 2.1 -1 0 -0.5 2.1 -1 4.6 -1 2.6 0 4.6 0.5 4.6 1 0 0.6 0.9 1 2.1 1 1.1 0 2.1 -0.4 2.1 -1 0 -0.5 2.6 -1 5.6 -1 4.3 0 5.6 0.3 5.6 1.5 0 0.8 -0.4 1.5 -1 1.5 -0.5 0 -1 0.9 -1 2.1 0 1.1 0.5 2.1 1 2.1 0.6 0 1 2.4 1 5.1 0 2.9 -0.4 5.1 -1 5.1 -0.5 0 -1 0.9 -1 2.1 0 1.1 0.5 2.1 1 2.1 0.6 0 1 2.4 1 5.1 0 2.9 -0.4 5.1 -1 5.1 -0.5 0 -1 0.7 -1 1.5 0 0.8 0.5 1.5 1 1.5 0.6 0 1 2.4 1 5.1 0 2.9 -0.4 5.1 -1 5.1 -0.5 0 -1 0.9 -1 2.1 0 1.1 0.5 2.1 1 2.1 0.6 0 1 2.4 1 5.1 0 2.9 -0.4 5.1 -1 5.1 -0.5 0 -1 0.9 -1 2.1 0 1.1 0.5 2.1 1 2.1 0.6 0 1 2.4 1 5.1 0 2.9 -0.4 5.1 -1 5.1 -0.5 0 -1 0.9 -1 2.1 0 1.1 0.5 2.1 1 2.1 0.6 0 1 2.4 1 5.1 0 2.9 -0.4 5.1 -1 5.1 -0.5 0 -1 0.9 -1 2.1 0 1.1 0.5 2.1 1 2.1 0.6 0 1 2.4 1 5.1 0 2.9 -0.4 5.1 -1 5.1 -0.5 0 -1 0.9 -1 2.1 0 1.1 0.5 2.1 1 2.1 0.6 0 1 2.1 1 4.6 0 2.6 -0.4 4.6 -1 4.6 -0.5 0 -1 0.9 -1 2.1 0 1.1 0.5 2.1 1 2.1 0.6 0 1 2.4 1 5.1 0 2.9 -0.4 5.1 -1 5.1 -0.5 0 -1 0.9 -1 2.1 0 1.1 0.5 2.1 1 2.1 0.6 0 1 2.4 1 5.1 0 2.9 -0.4 5.1 -1 5.1 -0.5 0 -1 0.7 -1 1.5 0 0.8 0.5 1.5 1 1.5 0.6 0 1 2.6 1 5.6 0 3.1 -0.4 5.6 -1 5.6 -0.5 0 -1 0.9 -1 2.1 0 1.1 0.5 2.1 1 2.1 0.6 0 1 2.4 1 5.1 0 2.9 -0.4 5.1 -1 5.1 -0.5 0 -1 0.9 -1 2.1 0 1.1 0.5 2.1 1 2.1 0.6 0 1 2.1 1 4.6 0 2.6 -0.4 4.6 -1 4.6 -0.5 0 -1 0.9 -1 2.1 0 1.1 0.5 2.1 1 2.1 0.6 0 1 2.4 1 5.1 0 2.9 -0.4 5.1 -1 5.1 -0.5 0 -1 0.9 -1 2.1 0 1.1 0.5 2.1 1 2.1 0.6 0 1 2.4 1 5.1 0 2.9 -0.4 5.1 -1 5.1 -0.5 0 -1 0.9 -1 2.1 0 1.1 0.5 2.1 1 2.1 0.6 0 1 2.1 1 4.6 0 2.6 -0.4 4.6 -1 4.6 -1.3 0 -1.3 3.8 0 4.6 1.3 0.8 1.3 10.8 0 10.8 -0.5 0 -1 0.9 -1 2.1 0 1.1 0.5 2.1 1 2.1 0.6 0 1 2.4 1 5.1 0 2.9 -0.4 5.1 -1 5.1 -0.5 0 -1 0.9 -1 2.1 0 1.1 0.5 2.1 1 2.1 0.6 0 1 1.5 1 3.4 0 4.8 2.8 10 5.2 10 3.2 0 8.7 4.3 8.3 6.5 -0.2 1.2 0.3 1.7 2.1 1.7 2.7 0 9 5 9 7 0 0.7 0.8 1.2 1.8 1.2 2.7 0 9.3 5.3 9.4 7.5 0 1.3 0.8 1.7 3.4 1.7 3.5 0 6.9 2.7 8.3 6.6 0.4 1.2 1.3 1.7 2.6 1.3 2.5 -0.6 8 4 8.5 7 0.2 1.2 1.1 2.1 2.5 2.1 3.1 0.1 7.5 3.3 8.6 6.3 0.6 1.6 1.6 2.5 2.8 2.3 2.5 -0.4 8.5 4.3 8.5 6.6 0 1.1 0.7 1.8 2.2 1.8 3 0 10 4.2 10.6 6.4 0.2 1 1.2 1.8 2.4 1.8 2.4 0.1 7.5 4.5 7.5 6.7 0 0.9 0.9 1.5 2.4 1.5 1.2 0 4.1 1.4 6.3 3.1 l4.1 3.1 -3.9 0 c-2.4 0 -4 -0.5 -4.3 -1.5 -0.8 -2.1 -4.5 -2.1 -4.5 0 0 2.2 -8 2.2 -8.8 0 -0.8 -2 -4.1 -2 -4.9 0 -0.4 1 -2.1 1.5 -5.2 1.5 -3.4 0 -4.6 -0.4 -4.6 -1.5 0 -0.8 -0.9 -1.5 -2 -1.5 -1 0 -2.2 0.7 -2.6 1.5 -0.3 1 -2 1.5 -4.7 1.5 -2.8 0 -4.4 -0.5 -4.7 -1.5 -0.4 -0.8 -1.4 -1.5 -2.5 -1.5 -1 0 -2.1 0.7 -2.5 1.5 -0.3 1 -2 1.5 -4.7 1.5 -2.8 0 -4.4 -0.5 -4.7 -1.5 -0.4 -0.8 -1.5 -1.5 -2.6 -1.5 -1 0 -2 0.7 -2 1.5 0 2.2 -9 2.2 -9.9 0 -0.8 -2.1 -4.5 -2.1 -4.5 0 0 2.2 -9 2.2 -9.9 0 -0.8 -2 -3.1 -2 -3.9 0 -0.3 1 -2 1.5 -4.7 1.5 -2.8 0 -4.4 -0.5 -4.7 -1.5 -0.4 -0.8 -1.4 -1.5 -2.5 -1.5 -1 0 -2.1 0.7 -2.5 1.5 -0.4 1 -2.1 1.5 -5.2 1.5 l-4.6 0 0 5.1 c0 2.9 -0.4 5.1 -1 5.1 -0.5 0 -1 0.9 -1 2.1 0 1.1 0.5 2.1 1 2.1 0.6 0 1 2.1 1 4.6 0 2.6 -0.4 4.6 -1 4.6 -0.5 0 -1 0.9 -1 2.1 0 1.1 0.5 2.1 1 2.1 0.6 0 1 2.4 1 5.1 0 2.9 -0.4 5.1 -1 5.1 -0.5 0 -1 0.9 -1 2.1 0 1.1 0.5 2.1 1 2.1 0.6 0 1 2.4 1 5.1 0 2.9 -0.4 5.1 -1 5.1 -0.5 0 -1 0.9 -1 2.1 0 1.1 0.5 2.1 1 2.1 0.6 0 1 2.1 1 4.6 0 2.6 -0.4 4.6 -1 4.6 -0.5 0 -1 0.9 -1 2.1 0 1.1 0.5 2.1 1 2.1 0.6 0 1 2.4 1 5.1 0 2.9 -0.4 5.1 -1 5.1 -0.5 0 -1 0.9 -1 2 0 1.1 0.5 2.4 1 2.7 0.6 0.3 1 2.9 1 5.7 0 2.8 -0.4 5 -1 5 -0.5 0 -1 0.7 -1 1.5 0 0.8 0.5 1.5 1 1.5 0.6 0 1 2.4 1 5.1 0 2.9 -0.4 5.1 -1 5.1 -0.5 0 -1 0.9 -1 2.1 0 1.1 0.5 2.1 1 2.1 0.6 0 1 2.4 1 5.1 0 2.9 -0.4 5.1 -1 5.1 -0.5 0 -1 0.9 -1 2.1 0 1.1 0.5 2.1 1 2.1 0.6 0 1 2.1 1 4.6 0 2.6 -0.4 4.6 -1 4.6 -0.5 0 -1 0.9 -1 2.1 0 1.1 0.5 2.1 1 2.1 0.6 0 1 2.4 1 5.1 0 2.9 -0.4 5.1 -1 5.1 -0.5 0 -1 0.9 -1 2.1 0 1.1 0.5 2.1 1 2.1 0.6 0 1 2.6 1 5.6 0 3.1 -0.4 5.6 -1 5.6 -0.5 0 -1 0.9 -1 2.1 0 1.1 0.5 2.1 1 2.1 0.6 0 1 2.1 1 4.6 0 2.6 -0.4 4.6 -1 4.6 -0.5 0 -1 0.9 -1 2.1 0 1.1 0.5 2.1 1 2.1 0.6 0 1 2.6 1 5.6 0 3.9 0.4 5.6 1.3 5.6 0.7 0 9.3 -8.4 19.2 -18.7 9.8 -10.4 23.5 -24.4 30.4 -31.3 6.9 -7 12.7 -13 12.9 -13.6 0.3 -0.9 26.5 -28.2 60.6 -63.2 8.2 -8.4 21.4 -22.2 29.2 -30.5 l14.1 -15.2 17.7 17.7 c9.8 9.7 18.6 18.1 19.6 18.6 1.1 0.6 8.4 7.6 16.3 15.5 19.1 19.1 60.9 59.5 62.7 60.5 0.8 0.4 10.3 9.5 21 20.2 l19.7 19.4 -16.3 17.2 c-8.9 9.4 -18.7 19.7 -21.7 22.7 -3 3 -5.4 6.1 -5.4 6.9 0 1.3 27.9 1.5 229.6 1.7 l229.6 0.3 -10.6 7.7 c-5.9 4.2 -13.3 10.1 -16.6 12.9 -3.4 3 -7.3 6 -8.8 6.7 -3.6 1.8 -24.7 17.5 -27.9 20.5 -3 3 -23.4 17.9 -25.6 18.6 -0.8 0.3 -4.7 3.3 -8.7 6.6 -3.9 3.4 -15.5 12.2 -25.7 19.8 -36 26.9 -46.2 34.6 -56.2 42.5 -5.4 4.3 -10.4 7.9 -10.8 7.9 -0.4 0 -6.7 4.5 -14 10.1 -30.2 23 -37.7 28.5 -41.8 31 -2.4 1.4 -5.7 4 -7.5 5.7 -1.8 1.7 -11.6 9.3 -21.8 16.8 -30.2 22.4 -55.4 41.4 -56 42.2 -0.7 1 -12.5 9.7 -14.4 10.4 -0.8 0.4 -6.3 4.3 -11.9 8.7 -29.7 22.9 -36.2 27.8 -40.5 30.3 -2.6 1.5 -6.3 4.2 -8.2 6 -3.1 2.9 -34.9 27.3 -41.5 31.8 -6.7 4.6 -34.1 25.3 -35.5 26.7 -2.9 2.9 -12.5 9.9 -16.1 11.7 -3 1.5 -67.4 1.6 -787.8 1.6 -431.5 0 -784.5 -0.2 -784.5 -0.4z m1579.3 -33.2 c22.9 -17 45.1 -33.8 51.2 -38.9 3.1 -2.6 6.8 -5.2 8.2 -5.9 2.8 -1.3 23.4 -16.5 25.2 -18.6 1.6 -2 26 -20.1 26.9 -20.1 0.5 0 4.1 -2.6 8 -5.7 4 -3.2 14.6 -11.3 23.6 -18.1 9 -6.9 16.9 -12.9 17.5 -13.6 0.6 -0.6 2.3 -1.7 3.6 -2.6 3.3 -1.8 35.1 -25.8 36.5 -27.4 1.5 -1.8 12.4 -9.7 13.5 -9.7 0.5 -0.1 6.3 -4.2 12.7 -9.2 21.7 -16.8 38.8 -29.8 39.5 -29.8 0.8 0 8.6 -6 10.3 -7.8 0.6 -0.6 9.3 -7.3 19.5 -14.9 10.2 -7.6 18.7 -14.1 18.8 -14.5 0.2 -0.5 0.7 -0.8 1.2 -0.8 0.9 0 34.9 -25.3 36.5 -27.1 1.6 -2 13 -10.5 16.4 -12.2 1.7 -0.9 7.3 -4.8 12.3 -8.8 17.7 -14 37 -28.3 39.8 -29.8 1.5 -0.8 2.8 -2.4 2.8 -3.4 0 -1.7 -7.1 -1.8 -207 -1.8 l-206.9 0 -12 12.1 c-6.6 6.6 -16.6 16.8 -22.2 22.8 -5.6 6 -16.5 17.2 -24.1 25.2 -13.9 14.3 -49.8 51.7 -71.5 74.4 -6.2 6.5 -16.3 17.1 -22.6 23.6 -33.5 34.6 -41.7 43.1 -57.9 60.3 -9.9 10.3 -18.2 18.8 -18.7 19 -0.4 0.2 -3.2 3.1 -6.2 6.5 -3 3.4 -16 17.2 -29.1 30.8 -13 13.6 -27 28 -31.1 32.2 l-7.3 7.7 -16.8 -16.5 c-9.1 -9.1 -18.6 -18.1 -20.8 -20 -2.3 -1.8 -8.2 -7.6 -13.3 -12.7 -17.8 -17.9 -42 -40.5 -43.3 -40.5 -0.7 0 -1.3 0.5 -1.3 1 0 0.6 -2.3 1 -5.1 1 -2.8 0 -5.1 -0.4 -5.1 -1 0 -0.5 -0.9 -1 -2.1 -1 -1.1 0 -2.1 0.5 -2.1 1 0 0.6 -2.6 1 -5.6 1 -3.1 0 -5.6 -0.4 -5.6 -1 0 -0.5 -0.7 -1 -1.5 -1 -0.8 0 -1.5 0.5 -1.5 1 0 0.6 -2.3 1 -5.1 1 -2.8 0 -5.1 -0.4 -5.1 -1 0 -0.5 -0.9 -1 -2.1 -1 -1.1 0 -2.1 0.5 -2.1 1 0 0.6 -2.3 1 -5.1 1 -2.8 0 -5.1 -0.4 -5.1 -1 0 -0.5 -0.9 -1 -2.1 -1 -1.1 0 -2.1 0.5 -2.1 1 0 0.6 -2.1 1 -4.6 1 -2.6 0 -4.6 -0.4 -4.6 -1 0 -0.5 -0.9 -1 -2.1 -1 -1.1 0 -2.1 0.5 -2.1 1 0 0.6 -2.3 1 -5.1 1 -2.8 0 -5.1 -0.4 -5.1 -1 0 -0.5 -0.9 -1 -2.1 -1 -1.1 0 -2.1 0.5 -2.1 1 0 0.6 -2.3 1 -5.1 1 -2.8 0 -5.1 -0.4 -5.1 -1 0 -0.5 -1.1 -1 -2.6 -1 -1.4 0 -2.6 0.5 -2.6 1 0 0.6 -2.1 1 -4.6 1 -2.6 0 -4.6 -0.4 -4.6 -1 0 -0.5 -0.9 -1 -2.1 -1 -1.1 0 -2.1 0.5 -2.1 1 0 0.6 -2.3 1 -5.1 1 -2.8 0 -5.1 -0.4 -5.1 -1 0 -0.5 -0.9 -1 -2.1 -1 -1.1 0 -2.1 0.5 -2.1 1 0 0.6 -2.3 1 -5.1 1 -2.8 0 -5.1 -0.4 -5.1 -1 0 -0.5 -0.7 -1 -1.5 -1 -0.8 0 -1.5 0.5 -1.5 1 0 0.6 -2.3 1 -5.1 1 -2.8 0 -5.1 -0.4 -5.1 -1 0 -0.5 -0.9 -1 -2.1 -1 -1.1 0 -2.1 0.5 -2.1 1 0 0.6 -2.3 1 -5.1 1 -2.8 0 -5.1 -0.4 -5.1 -1 0 -0.5 -0.9 -1 -2.1 -1 -1.1 0 -2.1 0.5 -2.1 1 0 0.6 -2.1 1 -4.6 1 -2.6 0 -4.6 -0.4 -4.6 -1 0 -0.5 -1.1 -1 -2.6 -1 -1.4 0 -2.6 0.5 -2.6 1 0 0.6 -2.3 1 -5.1 1 -2.8 0 -5.1 -0.4 -5.1 -1 0 -0.5 -0.9 -1 -2.1 -1 -1.1 0 -2.1 0.5 -2.1 1 0 0.6 -2.3 1 -5.1 1 -2.8 0 -5.1 -0.4 -5.1 -1 0 -0.5 -0.9 -1 -2.1 -1 -1.1 0 -2.1 0.5 -2.1 1 0 0.6 -2.1 1 -4.6 1 -2.6 0 -4.6 -0.4 -4.6 -1 0 -0.5 -0.9 -1 -2.1 -1 -1.1 0 -2.1 0.5 -2.1 1 0 0.6 -2.3 1 -5.1 1 -2.8 0 -5.1 -0.4 -5.1 -1 0 -0.5 -0.9 -1 -2.1 -1 -1.1 0 -2.1 0.5 -2.1 1 0 0.6 -2.3 1 -5.1 1 -2.8 0 -5.1 -0.4 -5.1 -1 0 -0.5 -0.9 -1 -2.1 -1 -1.1 0 -2.1 0.5 -2.1 1 0 0.6 -2.3 1 -5.1 1 -2.8 0 -5.1 -0.4 -5.1 -1 0 -0.5 -0.9 -1 -2.1 -1 -1.1 0 -2.1 0.5 -2.1 1 0 0.6 -2.3 1 -5.1 1 -2.8 0 -5.1 -0.4 -5.1 -1 0 -0.5 -0.9 -1 -2.1 -1 -1.1 0 -2.1 0.5 -2.1 1 0 0.6 -2.1 1 -4.6 1 -2.6 0 -4.6 -0.4 -4.6 -1 0 -0.5 -0.9 -1 -2.1 -1 -1.1 0 -2.1 0.5 -2.1 1 0 0.6 -2.3 1 -5.1 1 -2.8 0 -5.1 -0.4 -5.1 -1 0 -0.5 -0.9 -1 -2.1 -1 -1.1 0 -2.1 0.5 -2.1 1 0 0.6 -2.3 1 -5.1 1 -2.8 0 -5.1 -0.4 -5.1 -1 0 -0.5 -0.9 -1 -2.1 -1 -1.1 0 -2.1 0.5 -2.1 1 0 0.6 -2.1 1 -4.6 1 -2.6 0 -4.6 -0.4 -4.6 -1 0 -0.5 -0.9 -1 -2 -1 -1.1 0 -2.4 0.5 -2.7 1 -0.3 0.6 -2.9 1 -5.7 1 -2.8 0 -5 -0.4 -5 -1 0 -0.5 -0.9 -1 -2.1 -1 -1.1 0 -2.1 0.5 -2.1 1 0 0.6 -2.3 1 -5.1 1 -2.8 0 -5.1 -0.4 -5.1 -1 0 -0.5 -0.9 -1 -2.1 -1 -1.1 0 -2.1 0.5 -2.1 1 0 0.6 -2.1 1 -4.6 1 -2.6 0 -4.6 -0.4 -4.6 -1 0 -0.5 -0.9 -1 -2.1 -1 -1.1 0 -2.1 0.5 -2.1 1 0 0.6 -2.3 1 -5.1 1 -2.8 0 -5.1 -0.4 -5.1 -1 0 -0.5 -0.9 -1 -2.1 -1 -1.1 0 -2.1 0.5 -2.1 1 0 0.6 -2.3 1 -5.1 1 -2.8 0 -5.1 -0.4 -5.1 -1 0 -0.5 -0.7 -1 -1.5 -1 -0.8 0 -1.5 0.5 -1.5 1 0 0.6 -2.3 1 -5.1 1 -2.8 0 -5.1 -0.4 -5.1 -1 0 -0.5 -1.1 -1 -2.6 -1 -1.4 0 -2.6 0.5 -2.6 1 0 0.6 -2.3 1 -5.1 1 -2.8 0 -5.1 -0.4 -5.1 -1 0 -0.5 -0.9 -1 -2.1 -1 -1.1 0 -2.1 0.5 -2.1 1 0 0.6 -2.1 1 -4.6 1 -2.6 0 -4.6 -0.4 -4.6 -1 0 -0.5 -0.9 -1 -2.1 -1 -1.1 0 -2.1 0.5 -2.1 1 0 0.6 -2.3 1 -5.1 1 -2.8 0 -5.1 -0.4 -5.1 -1 0 -0.5 -0.9 -1 -2.1 -1 -1.1 0 -2.1 0.5 -2.1 1 0 0.6 -2.3 1 -5.1 1 -2.8 0 -5.1 -0.4 -5.1 -1 0 -0.5 -0.9 -1 -2.1 -1 -1.1 0 -2.1 0.5 -2.1 1 0 0.6 -2.1 1 -4.6 1 -2.6 0 -4.6 -0.4 -4.6 -1 0 -0.5 -0.9 -1 -2.1 -1 -1.1 0 -2.1 0.5 -2.1 1 0 1.4 -8.8 1.2 -11.4 -0.2 -1.7 -1 -2.4 -1 -2.7 0 -0.6 1.5 -11.6 1.7 -11.6 0.2 0 -0.5 -0.7 -1 -1.5 -1 -0.8 0 -1.5 0.5 -1.5 1 0 0.6 -2.3 1 -5.1 1 -2.8 0 -5.1 -0.4 -5.1 -1 0 -0.5 -0.9 -1 -2.1 -1 -1.1 0 -2.1 0.5 -2.1 1 0 0.6 -2.3 1 -5.1 1 -2.8 0 -5.1 -0.4 -5.1 -1 0 -0.5 -0.9 -1 -2.1 -1 -1.1 0 -2.1 0.5 -2.1 1 0 0.6 -2.1 1 -4.6 1 -2.6 0 -4.6 -0.4 -4.6 -1 0 -0.5 -0.9 -1 -2.1 -1 -1.1 0 -2.1 0.5 -2.1 1 0 0.6 -0.7 1 -1.5 1 -1.1 0 -1.5 -1.2 -1.5 -5.1 0 -2.8 0.5 -5.1 1 -5.1 0.6 0 1 -0.9 1 -2.1 0 -1.1 -0.4 -2.1 -1 -2.1 -0.5 0 -1 -2.3 -1 -5.1 0 -2.8 0.5 -5.1 1 -5.1 0.6 0 1 -0.9 1 -2.1 0 -1.1 -0.4 -2.1 -1 -2.1 -0.5 0 -1 -2.3 -1 -5.1 0 -2.8 0.5 -5.1 1 -5.1 0.6 0 1 -0.9 1 -2.1 0 -1.1 -0.4 -2.1 -1 -2.1 -0.5 0 -1 -2.3 -1 -5.1 0 -2.8 0.5 -5.1 1 -5.1 0.6 0 1 -0.9 1 -2.1 0 -1.1 -0.4 -2.1 -1 -2.1 -0.5 0 -1 -2.1 -1 -4.6 0 -2.6 0.5 -4.6 1 -4.6 0.6 0 1 -0.9 1 -2.1 0 -1.1 -0.4 -2.1 -1 -2.1 -0.5 0 -1 -2.3 -1 -5.1 0 -2.8 0.5 -5.1 1 -5.1 0.6 0 1 -0.9 1 -2.1 0 -1.1 -0.4 -2.1 -1 -2.1 -0.5 0 -1 -2.3 -1 -5.1 0 -2.8 0.5 -5.1 1 -5.1 0.6 0 1 -0.9 1 -2.1 0 -1.1 -0.4 -2.1 -1 -2.1 -0.5 0 -1 -2.1 -1 -4.6 0 -2.6 0.5 -4.6 1 -4.6 0.6 0 1 -0.9 1 -2.1 0 -1.1 -0.4 -2.1 -1 -2.1 -0.5 0 -1 -2.6 -1 -5.6 0 -3.1 0.5 -5.6 1 -5.6 0.6 0 1 -0.9 1 -2.1 0 -1.1 -0.4 -2.1 -1 -2.1 -0.5 0 -1 -2.3 -1 -5.1 0 -2.8 0.5 -5.1 1 -5.1 0.6 0 1 -0.9 1 -2.1 0 -1.1 -0.4 -2.1 -1 -2.1 -0.5 0 -1 -2.1 -1 -4.6 0 -2.6 0.5 -4.6 1 -4.6 0.6 0 1 -0.9 1 -2.1 0 -1.1 -0.4 -2.1 -1 -2.1 -0.5 0 -1 -2.3 -1 -5.1 0 -2.8 0.5 -5.1 1 -5.1 0.6 0 1 -0.9 1 -2.1 0 -1.1 -0.4 -2.1 -1 -2.1 -0.5 0 -1 -2.3 -1 -5.1 0 -2.8 0.5 -5.1 1 -5.1 0.6 0 1 -0.7 1 -1.5 0 -0.8 -0.4 -1.5 -1 -1.5 -0.5 0 -1 -2.3 -1 -5.1 0 -2.8 0.5 -5.1 1 -5.1 0.6 0 1 -0.9 1 -2.1 0 -1.1 -0.4 -2.1 -1 -2.1 -0.5 0 -1 -2.6 -1 -5.6 0 -3.1 0.5 -5.6 1 -5.6 0.6 0 1 -0.9 1 -2.1 0 -1.1 -0.4 -2.1 -1 -2.1 -0.5 0 -1 -2.1 -1 -4.6 0 -2.6 0.5 -4.6 1 -4.6 0.6 0 1 -0.9 1 -2.1 0 -2.1 -0.7 -2.1 -57.5 -2.1 l-57.5 0 -5.1 3.4 c-6.3 4 -26.8 19.2 -28.2 20.8 -1.6 1.8 -26 19.9 -26.9 19.9 -0.4 0.1 -3.4 2.2 -6.5 4.6 -3.1 2.5 -13.8 10.6 -23.6 18.1 -9.9 7.4 -18.5 14.2 -19.1 14.9 -0.6 0.8 -1.5 1.4 -2 1.4 -1.1 0 -31.1 22.6 -40 30.1 -3.9 3.4 -8.3 6.6 -9.8 7.2 -2.9 1.3 -22.5 15.6 -24.1 17.7 -1.7 2.1 -27.5 21.2 -29.8 22.1 -1.1 0.4 -4.1 2.7 -6.7 4.8 -2.6 2.3 -12.4 10 -22.1 17.1 -9.5 7.3 -17.9 13.7 -18.5 14.4 -0.5 0.7 -1.8 1.5 -2.9 2 -1.8 0.7 -34.2 24.8 -36.1 27 -1.3 1.5 -12 9.3 -19 14 -3.1 2.1 -8.8 6.3 -12.8 9.4 -13.6 10.7 -33.9 25.9 -36.5 27.1 -1.4 0.7 -4.4 3 -6.7 5 -2.3 2.1 -11.9 9.5 -21.6 16.7 -9.5 7.2 -18.1 13.8 -18.9 14.7 -0.7 1 -1.8 1.7 -2.4 1.7 -2 0 -20.3 14.4 -20.3 15.9 0 1.3 83.4 1.5 747.9 1.5 l747.9 0 14.7 -11z m-278.8 -51.2 c7.1 -7.2 15.5 -16.1 18.8 -19.8 3.2 -3.7 12.2 -13.2 20.1 -21.3 23.5 -23.6 55.4 -56.8 55.9 -58 0.1 -0.5 6.9 -7.6 14.9 -15.6 22 -22.2 61.6 -63.4 62.6 -65.2 0.5 -0.9 6.8 -7.4 14 -14.5 7.2 -7.1 17.1 -17.4 22.2 -22.8 5 -5.4 15.6 -16.6 23.5 -24.7 7.9 -8.1 23.4 -24.2 34.4 -35.7 11 -11.5 27 -28.1 35.5 -37 18.1 -18.6 23 -24 23 -25.4 0 -0.5 -9.9 -10.5 -21.8 -22 -12 -11.5 -28.7 -27.6 -37.3 -35.8 -8.4 -8.2 -20.4 -19.7 -26.7 -25.7 -6.2 -5.9 -16.2 -15.6 -22.3 -21.8 -6.1 -6.1 -11.5 -11.1 -12 -11.1 -0.5 0 -1.4 -0.7 -2.2 -1.5 -2.7 -3.2 -5.3 -1.4 -18 11.6 -9.9 10.1 -12.8 13.7 -12.8 15.8 0 2.2 1.8 4.3 8.4 10.3 12.6 11.2 28.5 26.8 29.8 28.9 0.8 1.6 -0.5 3.4 -8.3 11.2 l-9.2 9.2 -6.7 -6 c-3.6 -3.3 -12 -11.6 -18.7 -18.7 -6.6 -7 -13.1 -13.2 -14.6 -13.9 -2.4 -1.1 -3 -0.6 -10.1 7 -4.2 4.5 -7.6 8.9 -7.6 9.9 0 0.8 3.4 4.5 7.6 8.2 l7.7 6.6 -7.4 7.7 -7.4 7.7 -7.2 -6.9 c-3.9 -3.9 -8 -7 -9 -7 -1.7 0 -16 14.1 -17 16.6 -0.2 0.6 3.3 4.7 7.7 9.2 5.7 5.9 7.7 8.4 6.6 8.8 -0.8 0.3 -4.2 3.5 -7.7 7.1 l-6.3 6.7 -4.5 -5 c-5.3 -5.7 -9 -8.5 -11.7 -8.5 -2 0 -17 14 -17 15.8 0 0.7 3.5 4.6 7.7 8.8 4.2 4.2 7.7 7.9 7.7 8.3 0 0.3 -3.4 3.6 -7.5 7.3 l-7.5 6.8 -7 -6.6 c-3.9 -3.6 -7.8 -6.6 -8.7 -6.6 -2.5 0 -13.5 10.6 -13.5 12.9 0 1.3 7.1 9.2 19.6 21.9 l19.5 19.7 -6.1 6.9 c-3.4 3.8 -7.6 8.2 -9.2 9.8 l-3.1 3 -14.7 -14.3 c-24.5 -23.8 -27.6 -26.4 -27.6 -22.7 0 2 -5.3 7 -7.4 7 -1 0 -1.8 0.6 -1.8 1.3 0 0.8 -0.9 2.3 -2.1 3.3 -1.1 1 -2.1 2.5 -2.1 3.2 0 0.7 3 4 6.7 7.2 3.7 3.3 6.7 6.7 6.7 7.5 -0.1 0.9 -3.3 4.8 -7.2 8.8 l-7.1 7.2 -7 -7 c-3.9 -3.8 -7.5 -6.9 -8.1 -6.9 -0.6 0 -2.4 1.4 -4 3.1 -1.6 1.7 -3.6 3.1 -4.3 3.1 -0.7 0 -1.3 0.8 -1.3 1.8 0 1 -1.3 3.2 -3.1 4.8 -1.6 1.6 -3.1 3.6 -3.1 4.3 0 0.7 2.8 4.2 6.2 7.7 3.4 3.6 6.2 6.7 6.2 7 0 0.3 -3.2 3.9 -7 8.1 l-7 7.6 -7.5 -7 c-6.6 -6.3 -7.7 -6.9 -9.4 -5.9 -1 0.7 -2.7 1.2 -3.5 1.2 -0.9 0 -1.5 0.9 -1.5 2.3 0 2.5 -5.7 9 -7.9 9 -0.7 0 -1.3 1.1 -1.3 2.7 0 1.8 2 4.6 6.4 9.2 l6.4 6.7 -4.2 4.3 c-4.3 4.6 -5.7 6.2 -7.9 9.3 -1.3 2 -1.8 1.6 -9.2 -5.1 -8.1 -7.3 -11.1 -8.6 -11.7 -5 -0.5 2.9 -5.3 7.7 -7.6 7.7 -1 0 -2.2 0.8 -2.5 1.8 -0.3 0.9 -1 2.6 -1.5 3.5 -0.5 1 -0.9 2.3 -0.9 2.8 0 0.5 8.7 9.7 19.5 20.2 l19.4 19.4 -9.3 9.4 -9.4 9.4 -7.8 -7.4 c-4.2 -4 -9.5 -9 -11.8 -11.1 -2.3 -2.1 -7.6 -7.3 -11.8 -11.6 -7.5 -7.6 -9.4 -8.8 -10.8 -6.8 -0.3 0.6 -1.5 1 -2.7 1 -1.1 0 -2 0.7 -2 1.8 -0.1 2.3 -5.3 8.1 -7.8 8.6 -1.1 0.2 -2.1 1.2 -2.3 2.4 -0.5 2.6 -5.2 7.7 -7.1 7.7 -1.8 0 -1.6 1.7 0.6 4.9 1 1.5 2.1 3.7 2.3 4.8 0.3 1.1 1.3 2.2 2.5 2.4 2.5 0.5 8.7 6.3 8.7 8.1 0 0.7 0.7 1.3 1.5 1.3 2.4 0 8.7 6.2 8.7 8.4 0 1 0.7 1.8 1.7 1.8 2.1 0 8.5 6 8.5 7.9 0 0.7 0.7 1.3 1.6 1.3 2 0 7.3 5.5 7.8 8 0.2 0.9 1.3 1.8 2.5 2.1 2.7 0.4 7.3 5.1 7.8 7.9 0.2 1.1 1.2 2.2 2.4 2.4 2.8 0.5 7.7 5.3 7.7 7.5 0 0.9 1.5 3 3.4 4.5 4 3.3 42.9 40.6 47.8 46 2.1 2.1 4.4 3.8 5.4 3.8 0.9 0 7.6 -5.9 14.8 -12.9z m-314.8 -69.2 c0 -0.5 2.4 -1 5.1 -1 2.9 0 5.1 0.5 5.1 1 0 0.6 0.9 1 2 1 1.1 0 2.4 -0.4 2.7 -1 0.9 -1.4 8.3 -1.2 10.9 0.3 1.7 1 2.4 1 2.7 0 0.6 -1.6 10.6 -1.8 10.6 -0.3 0 0.6 0.9 1 2.1 1 1.1 0 2.1 -0.4 2.1 -1 0 -0.5 2.4 -1 5.1 -1 2.9 0 5.1 0.5 5.1 1 0 0.6 0.9 1 2.1 1 1.1 0 2.1 -0.4 2.1 -1 0 -0.5 2.1 -1 4.6 -1 2.6 0 4.6 0.5 4.6 1 0 0.6 0.9 1 2.1 1 1.1 0 2.1 -0.4 2.1 -1 0 -0.5 2.4 -1 5.1 -1 2.9 0 5.1 0.5 5.1 1 0 0.6 0.9 1 2.1 1 1.1 0 2.1 -0.4 2.1 -1 0 -0.5 2.4 -1 5.1 -1 2.9 0 5.1 0.5 5.1 1 0 0.6 0.9 1 2 1 1.1 0 2.4 -0.4 2.7 -1 0.3 -0.5 2.5 -1 4.7 -1 2.2 0 4 -0.4 4 -1 0 -0.5 -0.4 -1 -1 -1 -0.5 0 -1 -2.3 -1 -5.1 0 -2.8 0.5 -5.1 1 -5.1 0.6 0 1 -0.9 1 -2.1 0 -1.1 -0.4 -2.1 -1 -2.1 -1.4 0 -1.2 -8.8 0.2 -11.3 1 -1.5 1 -2.3 0 -3.3 -1.4 -1.4 -1.6 -8.6 -0.2 -9.5 0.6 -0.3 1 -1.5 1 -2.7 0 -1 -0.4 -2 -1 -2 -0.5 0 -1 -2.3 -1 -5.1 0 -2.8 0.5 -5.1 1 -5.1 0.6 0 1 -0.9 1 -2.1 0 -1.1 -0.4 -2.1 -1 -2.1 -0.5 0 -1 -2.3 -1 -5.1 0 -2.8 0.5 -5.1 1 -5.1 0.6 0 1 -0.9 1 -2.1 0 -1.1 -0.4 -2.1 -1 -2.1 -0.5 0 -1 -2.1 -1 -4.6 0 -2.6 0.5 -4.6 1 -4.6 0.6 0 1 -0.9 1 -2.1 0 -1.1 -0.4 -2.1 -1 -2.1 -0.5 0 -1 -2.3 -1 -5.1 0 -2.8 0.5 -5.1 1 -5.1 0.6 0 1 -0.9 1 -2 0 -1.1 -0.4 -2.4 -1 -2.7 -1.4 -0.9 -1.2 -8.3 0.3 -10.9 1 -1.7 1 -2.4 0 -2.7 -1.5 -0.6 -1.8 -9.1 -0.3 -10.1 0.6 -0.3 1 -1.5 1 -2.7 0 -1 -0.4 -2 -1 -2 -0.5 0 -1 -2.3 -1 -5.1 0 -2.8 0.5 -5.1 1 -5.1 0.6 0 1 -0.9 1 -2.1 0 -1.1 -0.4 -2.1 -1 -2.1 -0.5 0 -1 -2.3 -1 -5.1 0 -2.8 0.5 -5.1 1 -5.1 0.6 0 1 -0.7 1 -1.5 0 -0.8 -0.4 -1.5 -1 -1.5 -0.5 0 -1 -2.3 -1 -5.1 0 -2.8 0.5 -5.1 1 -5.1 0.6 0 1 -0.9 1 -2.1 0 -1.1 -0.4 -2.1 -1 -2.1 -0.5 0 -1 -2.3 -1 -5.1 0 -2.8 0.5 -5.1 1 -5.1 0.6 0 1 -0.9 1 -2 0 -1.1 -0.4 -2.4 -1 -2.7 -0.5 -0.3 -1 -2.5 -1 -4.6 0 -2.2 0.5 -4.3 1 -4.6 0.6 -0.3 1 -1.5 1 -2.7 0 -1 -0.4 -2 -1 -2 -0.5 0 -1 -1.6 -1 -3.6 0 -3.3 -0.2 -3.6 -3.1 -3.6 -1.6 0 -3.1 -0.4 -3.1 -1 0 -0.5 -0.9 -1 -2.1 -1 -1.1 0 -2.1 0.5 -2.1 1 0 0.6 -2.3 1 -5.1 1 -2.8 0 -5.1 -0.4 -5.1 -1 0 -0.5 -0.9 -1 -2.1 -1 -1.1 0 -2.1 0.5 -2.1 1 0 0.6 -2.3 1 -5.1 1 -2.8 0 -5.1 -0.4 -5.1 -1 0 -0.5 -0.9 -1 -2.1 -1 -1.1 0 -2.1 0.5 -2.1 1 0 0.6 -2.1 1 -4.6 1 -2.6 0 -4.6 -0.4 -4.6 -1 0 -0.5 -0.9 -1 -2 -1 -1.1 0 -2.4 0.5 -2.7 1 -0.3 0.6 -2.7 1 -5.1 1 -2.5 0 -4.8 -0.4 -5.1 -1 -0.3 -0.5 -1.5 -1 -2.7 -1 -1 0 -2 0.5 -2 1 0 0.6 -2.3 1 -5.1 1 -2.8 0 -5.1 -0.4 -5.1 -1 0 -0.5 -0.7 -1 -1.5 -1 -0.8 0 -1.5 0.5 -1.5 1 0 0.6 -2.3 1 -5.1 1 -2.8 0 -5.1 -0.4 -5.1 -1 0 -0.5 -0.9 -1 -2.1 -1 -1.1 0 -2.1 0.5 -2.1 1 0 0.6 -2.3 1 -5.1 1 -2.8 0 -5.1 -0.4 -5.1 -1 0 -0.5 -0.9 -1 -2.1 -1 -1.1 0 -2.1 0.5 -2.1 1 0 0.6 -1.1 1 -2.6 1 -1.8 0 -2.6 0.5 -2.6 2.1 0 1.1 -0.4 2.1 -1 2.1 -0.5 0 -1 0.9 -1 2.1 0 1.1 0.5 2.1 1 2.1 0.6 0 1 2.1 1 4.6 0 2.6 -0.4 4.6 -1 4.6 -0.5 0 -1 0.9 -1 2.1 0 1.1 0.5 2.1 1 2.1 0.6 0 1 2.4 1 5.1 0 2.9 -0.4 5.1 -1 5.1 -0.5 0 -1 0.9 -1 2.1 0 1.1 0.5 2.1 1 2.1 0.6 0 1 2.4 1 5.1 0 2.9 -0.4 5.1 -1 5.1 -0.5 0 -1 0.9 -1 2.1 0 1.1 0.5 2.1 1 2.1 0.6 0 1 2.1 1 4.6 0 2.6 -0.4 4.6 -1 4.6 -0.5 0 -1 0.9 -1 2.1 0 1.1 0.5 2.1 1 2.1 1.4 0 1.2 8.8 -0.2 11.3 -1 1.5 -1 2.3 0 3.3 1.4 1.4 1.6 11.1 0.2 11.1 -0.5 0 -1 0.7 -1 1.5 0 0.8 0.5 1.5 1 1.5 0.6 0 1 2.4 1 5.1 0 2.9 -0.4 5.1 -1 5.1 -0.5 0 -1 0.9 -1 2.1 0 1.1 0.5 2.1 1 2.1 0.6 0 1 2.4 1 5.1 0 2.9 -0.4 5.1 -1 5.1 -0.5 0 -1 0.9 -1 2.1 0 1.1 0.5 2.1 1 2.1 0.6 0 1 2.1 1 4.6 0 2.6 -0.4 4.6 -1 4.6 -0.5 0 -1 0.9 -1 2.1 0 1.1 0.5 2.1 1 2.1 0.6 0 1 2.4 1 5.1 0 2.9 -0.4 5.1 -1 5.1 -0.5 0 -1 0.9 -1 2.1 0 1.1 0.5 2.1 1 2.1 0.6 0 1 2.6 1 5.6 0 3.1 -0.4 5.6 -1 5.6 -0.5 0 -1 0.9 -1 2.1 0 1.1 0.5 2.1 1 2.1 0.6 0 1 2.1 1 4.6 0 2.6 -0.4 4.6 -1 4.6 -0.5 0 -1 0.9 -1 2.1 0 1.1 0.5 2.1 1 2.1 0.6 0 1 2.4 1 5.1 0 2.9 -0.4 5.1 -1 5.1 -0.5 0 -1 0.9 -1 2.1 0 1.1 0.5 2.1 1 2.1 0.6 0 1 2.4 1 5.1 0 2.9 -0.4 5.1 -1 5.1 -1.5 0 -1.2 3 0.4 4.7 0.8 0.8 2.3 1.4 3.1 1.4 0.9 0 1.6 0.5 1.6 1 0 0.6 0.9 1 2.1 1 1.1 0 2.1 -0.4 2.1 -1z m-233.1 -211.5 c0 -0.5 2.4 -1 5.1 -1 2.9 0 5.1 0.5 5.1 1 0 0.6 0.9 1 2.1 1 1.1 0 2.1 -0.4 2.1 -1 0 -0.5 2.4 -1 5.1 -1 2.9 0 5.1 0.5 5.1 1 0 0.6 0.9 1 2.1 1 1.1 0 2.1 -0.4 2.1 -1 0 -0.5 2.4 -1 5.1 -1 2.9 0 5.1 0.5 5.1 1 0 0.6 0.9 1 2.1 1 1.1 0 2.1 -0.4 2.1 -1 0 -0.5 2.4 -1 5.1 -1 2.9 0 5.1 0.5 5.1 1 0 0.6 0.9 1 2.1 1 1.1 0 2.1 -0.4 2.1 -1 0 -0.5 2.4 -1 5.1 -1 2.9 0 5.1 0.5 5.1 1 0 0.6 0.7 1 1.5 1 0.8 0 1.5 -0.4 1.5 -1 0 -0.5 2.4 -1 5.1 -1 2.9 0 5.1 0.5 5.1 1 0 0.6 0.9 1 2.1 1 1.1 0 2.1 -0.4 2.1 -1 0 -0.5 2.4 -1 5.1 -1 2.9 0 5.1 0.5 5.1 1 0 0.6 0.9 1 2.1 1 1.1 0 2.1 -0.4 2.1 -1 0 -0.5 1.1 -1 2.6 -1 3.1 0 2.7 8 2.9 -63.9 l0.2 -51.1 -3.8 0 c-2.8 0 -3.9 -0.4 -3.9 -1.5 0 -0.8 -0.9 -1.5 -2.1 -1.5 -1.1 0 -2.1 0.7 -2.1 1.5 0 1.1 -1.2 1.5 -5 1.5 -3.5 0 -5.2 -0.4 -5.6 -1.5 -0.3 -0.8 -1.2 -1.5 -2.1 -1.5 -0.7 0 -1.6 0.7 -2.1 1.5 -0.8 2.3 -9.4 2.1 -10.9 -0.2 -1 -1.7 -1 -1.7 -2.1 0 -1.2 2 -9.7 2.6 -10.8 0.7 -0.3 -0.5 -1.5 -1 -2.7 -1 -1 0 -2 0.5 -2 1 0 1.6 -8.8 1.2 -10.3 -0.5 -0.7 -0.8 -2 -1.5 -2.7 -1.5 -0.8 0 -1.4 0.7 -1.4 1.5 0 1.1 -1.2 1.5 -4.6 1.5 -3.4 0 -4.6 -0.4 -4.6 -1.5 0 -0.8 -0.9 -1.5 -2.1 -1.5 -1.1 0 -2.1 0.7 -2.1 1.5 0 1.1 -1.2 1.5 -5.1 1.5 -3.9 0 -5.1 -0.4 -5.1 -1.5 0 -0.8 -0.9 -1.5 -2.1 -1.5 -1.1 0 -2.1 0.7 -2.1 1.5 0 1.1 -1.2 1.5 -5 1.5 -3.5 0 -5.2 -0.4 -5.6 -1.5 -0.3 -0.8 -1.2 -1.5 -2.1 -1.5 -0.7 0 -1.6 0.7 -2.1 1.5 -0.3 0.8 -1 1.5 -1.6 1.5 -1.7 0 -4.1 2.7 -4.1 4.5 0 0.9 0.5 1.6 1 1.6 0.6 0 1 2.4 1 5.1 0 2.9 -0.4 5.1 -1 5.1 -0.5 0 -1 0.7 -1 1.5 0 0.8 0.5 1.5 1 1.5 0.6 0 1 2.4 1 5.1 0 2.9 -0.4 5.1 -1 5.1 -0.5 0 -1 0.9 -1 2 0 1.1 0.5 2.4 1 2.7 0.6 0.3 1 2.7 1 5.1 0 2.5 -0.4 4.8 -1 5.1 -0.5 0.3 -1 1.5 -1 2.7 0 1 0.5 2 1 2 0.6 0 1 2.1 1 4.6 0 2.6 -0.4 4.6 -1 4.6 -0.5 0 -1 0.9 -1 2.1 0 1.1 0.5 2.1 1 2.1 0.6 0 1 2.4 1 5.1 0 2.9 -0.4 5.1 -1 5.1 -0.5 0 -1 0.9 -1 2.1 0 1.1 0.5 2.1 1 2.1 0.6 0 1 2.4 1 5.1 0 2.9 -0.4 5.1 -1 5.1 -0.5 0 -1 0.9 -1 2.1 0 1.1 0.5 2.1 1 2.1 0.6 0 1 2.1 1 4.6 0 2.6 -0.4 4.6 -1 4.6 -0.5 0 -1 0.9 -1 2.1 0 1.1 0.5 2.1 1 2.1 0.6 0 1 2.4 1 5.1 0 5 0.1 5.1 3.1 5.1 1.7 0 3.1 0.5 3.1 1 0 0.6 0.9 1 2.1 1 1.1 0 2.1 -0.4 2.1 -1z"/>
 </g>
</svg>