<?xml version="1.0" encoding="utf-8"?>
<!DOCTYPE svg PUBLIC "-//W3C//DTD SVG 20010904//EN" "http://www.w3.org/TR/2001/REC-SVG-20010904/DTD/svg10.dtd">
<svg version="1.0" xmlns="http://www.w3.org/2000/svg" width="1304px" height="809px" viewBox="0 0 1304 809" preserveAspectRatio="xMidYMid meet">
 <g fill="none" stroke="#fffdfa" stroke-width="1.3">
  <path d="M0 404.7 l0 -404.7 652 0 652 0 0 404.7 0 404.7 -652 0 -652 0 0 -404.7z m287.8 360.8 c0 -7.6 0.1 -7.8 2.4 -5.7 3.7 3.3 10.7 4 16.1 1.4 5.7 -2.7 8.9 -8.4 8.9 -15.8 0 -4.5 -0.8 -6.3 -4.1 -9.8 -5.5 -5.8 -11.6 -6.9 -18.1 -3.6 -4 1.9 -5.1 2.1 -5.7 0.8 -0.4 -1 -1.5 -1.8 -2.7 -1.8 -1.7 0 -1.9 3 -1.9 21.2 0 20.3 0.1 21.2 2.6 21.2 2.3 0 2.6 -0.9 2.6 -8z m197.8 0.3 l0 -7.7 5.1 2.7 c3.9 2.1 6.6 2.6 9.9 2.1 15.4 -2.6 17.9 -25.2 3.3 -31.2 -5.3 -2.2 -12.1 -1.5 -14.5 1.4 -2.1 2.4 -3.9 2.4 -3.9 0 0 -1 -0.9 -1.9 -1.9 -1.9 -1.7 0 -1.9 3.2 -1.9 21.2 0 18 0.3 21.2 1.9 21.2 1.5 0 1.9 -1.7 1.9 -7.7z m-324.3 -3.9 c9.9 0 12.1 0.4 12.1 1.9 0 1 0.9 1.9 1.9 1.9 2.4 0 2.6 -5.9 0.1 -7.3 -1 -0.5 -4.4 -6.8 -7.5 -13.7 -3 -7.1 -6.2 -13 -6.9 -13.2 -0.9 -0.3 -4 5.3 -7.1 13 -4.1 9.9 -6.3 13.6 -7.8 13.6 -1.7 0 -2.3 1 -2.3 3.6 0 5 1.5 6.2 3.7 3 1.5 -2.4 3 -2.7 13.7 -2.7z m-31.2 -1.3 c4 -2.2 4.8 -2.2 4.8 -0.6 0 1 0.9 1.9 1.9 1.9 1.7 0 1.9 -2.6 1.9 -15.4 0 -12.8 -0.3 -15.4 -1.9 -15.4 -1.2 0 -1.9 1.2 -1.9 2.8 l0 2.7 -2.8 -2.6 c-6.4 -5.8 -16.2 -4.6 -22.2 2.3 -4.6 5.7 -4.5 14.8 0.3 20.4 5.8 6.9 12.1 8.1 20 3.9z m77 -0.9 c2.2 -1.9 2.3 -1.9 2.3 0 0 1.3 1 2.2 2.6 2.2 2.4 0 2.6 -0.9 2.6 -15.4 0 -14.5 -0.1 -15.4 -2.6 -15.4 -1.4 0 -2.6 0.9 -2.6 1.9 0 1.7 -0.4 1.7 -3.3 -0.1 -1.8 -1.3 -5.8 -2.3 -8.9 -2.3 -5 -0.1 -6.4 0.5 -10.5 4.6 -4.1 4.2 -4.8 5.5 -4.8 10.9 0 7.3 3.2 12.8 8.9 15.3 4.6 2.2 13.1 1.3 16.3 -1.7z m37.1 2.2 c5.3 -1.4 9.9 -5.7 7.6 -7.1 -0.6 -0.4 -3.2 0.4 -5.7 1.8 -5.1 3.2 -8.6 3.3 -13.6 0.8 -4.5 -2.3 -6.4 -5.5 -6.4 -10.9 0 -5.8 2.1 -9 7.3 -11 4.6 -2.1 7.5 -1.7 14.1 1.8 4.9 2.4 6.8 1.3 3.6 -2.3 -5.5 -6 -16.7 -6.3 -23.6 -0.5 -9.1 7.6 -7.6 21.6 2.8 26.7 4.9 2.3 7.6 2.4 13.9 0.8z m105 -4.5 c3.5 -3.7 4.1 -5.4 4.1 -10.8 0 -8 -4.2 -13.6 -11.7 -15.5 -15.8 -4.2 -26.6 14.1 -15.8 26.9 3.6 4.4 6.6 5.3 14 4.5 3.9 -0.4 6.2 -1.7 9.4 -5z m102.9 2.2 c3.6 -2.6 5.1 -6.7 2.7 -6.7 -0.9 0 -3.2 1.4 -5.4 3.2 -5.3 4.4 -10.5 4.2 -15.4 -0.6 -6.7 -6.8 -4.9 -8.4 10.4 -8.6 7.3 -0.1 13.6 -0.6 14 -0.9 0.3 -0.4 -0.6 -3.2 -2.2 -6.4 -5.3 -10.9 -18 -12.7 -25.8 -3.9 -6.8 7.8 -4.6 20.9 4.4 25.6 4.9 2.4 12.8 1.8 17.3 -1.7z m91.7 1.2 c3.7 -1.9 4.8 -2.1 4.8 -0.6 0 1 0.9 1.8 1.9 1.8 1.7 0 1.9 -2.6 1.9 -15.4 0 -12.8 -0.3 -15.4 -1.9 -15.4 -1.2 0 -1.9 1.2 -1.9 2.8 l0 2.7 -2.8 -2.7 c-6.3 -5.8 -16.2 -4.6 -22.4 2.7 -3 3.5 -3.3 4.9 -2.8 10.8 1.2 13.1 11.7 19.3 23.3 13.4z m40.3 0.3 c6.4 -3 10.3 -11.7 8.2 -18.2 -1.7 -5.9 -7.2 -11 -12.7 -12.2 -5 -0.9 -12.2 1.8 -14.3 5.3 -1.2 2.1 -1.3 1.9 -1.4 -1.3 0 -5 6.3 -11.2 11.3 -11.2 8.5 0 15.7 -1.7 15.7 -3.6 0 -1.5 -1.4 -1.8 -9.1 -1 -17.1 1.5 -21.7 5.9 -21.7 20.4 0 10.1 1.2 14.5 5 18.4 5.9 6 11.6 7.1 19 3.5z m42.4 -3.5 c3.6 -3.9 4.2 -5.5 4.2 -10.9 0 -19.5 -28 -22.5 -31.6 -3.3 -1.4 8 3.7 17.2 10.4 19 6.3 1.7 12.7 -0.1 17 -4.8z m154.7 3.7 c17 -8.9 6.9 -35.2 -11.6 -30.2 -5.1 1.3 -11.7 7.6 -11.7 11 0 1 -1.2 1.8 -2.6 1.8 -2.2 0 -2.6 -0.9 -2.6 -6.4 0 -4.9 -0.5 -6.4 -1.9 -6.4 -1.7 0 -1.9 2.6 -1.9 15.5 0 11.8 0.4 15.4 1.7 15 0.9 -0.4 1.7 -3.3 1.9 -7.2 0.5 -8.1 3.1 -8.9 6.3 -1.9 4.4 9.1 14.1 13 22.4 8.7z m38.4 0 c6 -3.1 9 -8 9 -14.9 0 -14.4 -16.1 -21.1 -26.6 -11.2 l-2.8 2.7 1.2 -4.4 c2.1 -7.2 6.2 -9.6 17.2 -10.8 7.6 -0.6 9.8 -1.3 9.8 -2.8 0 -1.8 -1.4 -1.9 -9.1 -1.2 -17.7 1.7 -21.8 5.8 -22 22.1 0 11.2 2.4 16.7 9.3 20 5.5 2.8 9.3 3 14.1 0.4z m38.5 0.3 c4.8 -2.3 9 -9.5 9 -15 0 -6.4 -4.6 -13 -10.8 -15.3 -4.2 -1.7 -5.7 -1.7 -10.1 0 -7.6 2.6 -11.6 8.9 -10.8 17 1 11.7 12.6 18.5 22.7 13.4z m91.6 0 c2.3 -1 4.9 -2.7 5.8 -3.9 2.7 -3.2 -0.4 -3.9 -5.1 -0.9 -5.8 3.5 -11.6 3.3 -16.2 -0.6 -4.6 -3.9 -5.8 -8.9 -3.3 -14.5 3.1 -7.3 13.9 -9.8 20 -4.4 1.3 1 3.2 1.5 4.5 0.9 2.1 -0.8 1.9 -1.2 -1.4 -3.9 -10.4 -8.4 -26.5 -2.6 -28.4 10.3 -1.9 13 11.3 22.2 24.2 17z m70.4 -1.3 c7.8 -5.3 9.9 -14.3 5 -22.1 -5.8 -9.4 -17.5 -10.4 -25.6 -2.3 -4 4 -4.2 4.8 -3.7 11.3 1.2 13.7 13.5 20.4 24.3 13.1z m118.8 -0.3 c4.2 -2.8 7.3 -10.3 6.6 -15.7 -2.3 -14.3 -19.3 -18.9 -28.5 -8 -4.6 5.7 -4.5 14.8 0.3 20.4 1.8 2.3 4.6 4.6 6 5.3 3.7 1.5 11.8 0.5 15.7 -2.1z m36.9 1.5 c2.3 -1 4.9 -2.7 5.8 -3.9 2.7 -3.2 -0.4 -3.9 -5.1 -0.9 -5 3.1 -8.9 3.2 -13.9 0.6 -4.5 -2.3 -6.4 -5.5 -6.4 -10.9 0 -5.7 2.1 -8.9 7.2 -11 4.8 -1.9 9.3 -1.4 14.9 1.8 4.4 2.6 6 1.2 3 -2.3 -3.1 -3.5 -10.3 -5.5 -15.4 -4.6 -9.6 1.8 -16.6 12.6 -13.4 20.9 3.9 10.1 13.5 14.4 23.4 10.3z m-1118.7 -7.3 l-3.1 -7.7 3.1 -7.5 c1.7 -4 2.8 -7.6 2.6 -7.8 -1.5 -1.5 -4.5 1.8 -7.1 8.2 l-3 7.2 3.1 7.6 c2.1 5.1 3.7 7.7 5.3 7.7 1.9 0 1.8 -0.8 -0.9 -7.7z m16.1 7.1 c0 -0.3 -1.4 -3.7 -3.1 -7.5 l-3 -6.9 3 -7.5 c1.7 -4.1 2.8 -7.7 2.4 -8.1 -1.7 -1.7 -4.5 1.7 -6.9 8 -2.4 6.4 -2.4 7.6 -0.8 12.2 2.7 7.7 4.4 10.4 6.4 10.4 1 0 1.9 -0.3 1.9 -0.6z m9 -5.7 c0 -3.6 0.5 -6.7 1 -7.1 0.6 -0.4 4.2 2.4 8 6.3 3.9 3.9 8.1 7.1 9.5 7.1 2.1 0 0.8 -1.9 -5.7 -8.4 l-8.2 -8.2 7.7 -7.1 c9.5 -8.9 6.2 -10.1 -4.1 -1.4 -3.6 3.2 -7.1 5.8 -7.5 5.8 -0.4 0 -0.8 -2.6 -0.8 -5.8 0 -4.2 -0.5 -5.8 -1.9 -5.8 -1.5 0 -1.9 2.6 -1.9 15.4 0 12.8 0.4 15.4 1.9 15.4 1.4 0 1.9 -1.5 1.9 -6.3z m187.6 -7.2 l0 -13.5 3.9 0 c2.6 0 3.9 -0.6 3.9 -1.9 0 -1.5 -2.1 -1.9 -10.3 -1.9 -8.1 0 -10.3 0.4 -10.3 1.8 0 1.2 1.5 2.1 4.2 2.3 l4.1 0.4 0.1 12.2 c0.1 14.8 0.1 14.1 2.4 14.1 1.5 0 1.9 -2.3 1.9 -13.5z m109.2 10.9 c3.3 -3.3 3.2 -7.7 0 -11.9 -1.7 -2.1 -2.1 -3.6 -1.3 -4.1 2.1 -1.3 1.5 -7.2 -0.9 -9.9 -1.5 -1.7 -3.9 -2.3 -9 -2.3 l-6.8 0 0 15.4 0 15.4 7.7 0 c6 0 8.2 -0.5 10.3 -2.6z m28.1 -0.8 c3.5 -4.4 3.3 -7.3 -0.1 -11.3 -2.2 -2.3 -4.6 -3.3 -8.7 -3.7 l-5.8 -0.5 -0.4 -5.9 c-0.3 -4.2 -0.9 -6 -2.3 -6 -1.4 0 -1.8 2.8 -1.8 15.4 l0 15.4 8.2 0 c7.5 0 8.6 -0.4 10.9 -3.3z m11.7 -12.1 c0 -12.8 -0.3 -15.4 -1.9 -15.4 -1.5 0 -1.9 2.6 -1.9 15.4 0 12.8 0.4 15.4 1.9 15.4 1.7 0 1.9 -2.6 1.9 -15.4z m228.7 1.9 l0 -13.5 3.9 0 c2.6 0 3.9 -0.6 3.9 -1.9 0 -1.5 -2.1 -1.9 -10.3 -1.9 -8.2 0 -10.3 0.4 -10.3 1.9 0 1.3 1.4 1.9 4.5 1.9 l4.5 0 0 13.5 c0 11.2 0.4 13.5 1.9 13.5 1.5 0 1.9 -2.3 1.9 -13.5z m31.7 10.7 c1.7 -1.5 3 -4.2 3 -6.2 0 -4 -4.2 -8.9 -7.7 -9.1 -1.4 -0.1 -3.9 -0.3 -5.4 -0.4 -2.6 -0.1 -3 -0.9 -3.3 -6.2 -0.3 -4.1 -1 -6.2 -2.1 -6.2 -2.7 0 -3.3 3.1 -3.3 17.5 l0 13.4 8 0 c6.4 0 8.5 -0.5 10.9 -2.8z m12.2 -6.4 c0.6 -14.1 -0.1 -21.6 -2.3 -21.6 -1.4 0 -1.8 3.1 -1.8 15.4 0 12.5 0.4 15.4 1.8 15.4 1.4 0 1.9 -2.3 2.3 -9.3z m31.3 -1.9 l5.1 -11 5 11 c3.6 7.7 5.8 11.2 7.3 11.2 1.9 0 1.5 -1.4 -2.3 -9.9 -2.6 -5.5 -5.8 -12.6 -7.2 -15.5 -3.1 -6.8 -3.2 -6.7 -11 11.4 -6 13.9 -6 14 -3.7 14 1 0 4.1 -5 6.8 -11.2z m175.2 0 c0 9.1 0.4 11.2 1.9 11.2 1.7 0 1.9 -2.6 1.9 -15.7 l0 -15.8 -11.6 11.6 -11.6 11.6 0 -11.3 c0 -9.1 -0.4 -11.2 -1.9 -11.2 -1.7 0 -1.9 2.6 -1.9 15.7 l0 15.8 11.6 -11.6 11.6 -11.6 0 11.3z m69.2 8.4 c2.8 -7.3 8 -17.7 8.9 -17.7 0.5 0 2.8 4.4 5.3 9.8 4 8.7 6.8 12.2 8.6 10.5 0.3 -0.4 -2.7 -7.5 -6.7 -15.9 l-7.2 -15.3 -6.2 13.1 c-8 16.8 -8.5 18.4 -5.8 18.4 1 0 2.4 -1.3 3.1 -2.8z m74.9 -4.2 c3.5 -3.9 6.9 -6.7 7.6 -6.3 0.6 0.4 1.2 3.5 1.2 7.1 0 4.8 0.5 6.3 1.9 6.3 1.4 0 1.9 -1.5 1.9 -6.3 0 -3.6 0.6 -6.8 1.4 -7.3 0.9 -0.5 4.1 2.1 7.8 6.4 4 4.5 7.5 7.2 9.1 7.2 2.4 0 2.3 -0.5 -1.8 -4.8 -2.4 -2.7 -5.8 -6.4 -7.6 -8.5 l-3.1 -3.5 6.9 -7.1 c9.1 -9.3 5.3 -9.6 -4.9 -0.5 l-7.3 6.4 -0.4 -6.4 c-0.3 -4.8 -0.9 -6.6 -2.3 -6.6 -1.3 0 -1.8 1.7 -1.8 6.6 l0 6.6 -7.2 -6.6 c-4 -3.7 -8.4 -6.6 -9.9 -6.6 -2.3 0 -1.4 1.3 4.6 6.8 l7.6 6.7 -7.2 8 c-4 4.2 -7.2 8.2 -7.2 8.6 0 2.7 5 -0.3 10.5 -6.3z m42.1 0 l0 -7.1 9 0 9 0 0 7.1 c0 5.4 0.4 7.1 1.9 7.1 1.7 0 1.9 -2.6 1.9 -15.4 0 -12.6 -0.4 -15.4 -1.8 -15.4 -1.4 0 -2.1 1.8 -2.3 5.9 l-0.4 6 -5.8 0.3 c-10.5 0.4 -11.6 -0.3 -11.6 -6.6 0 -4.1 -0.5 -5.7 -1.9 -5.7 -1.5 0 -1.9 2.6 -1.9 15.4 0 12.8 0.4 15.4 1.9 15.4 1.5 0 1.9 -1.7 1.9 -7.1z m115.6 -6.4 l0 -13.5 3.9 0 c2.6 0 3.9 -0.6 3.9 -1.9 0 -1.5 -2.1 -1.9 -10.3 -1.9 -8.2 0 -10.3 0.4 -10.3 1.9 0 1.4 1.4 1.9 4.6 1.9 l4.5 0 -0.1 10.7 c-0.3 15.7 -0.1 16.3 1.9 16.3 1.5 0 1.9 -2.3 1.9 -13.5z m24.9 2.3 l10.9 -11.3 0.1 11.3 c0 8.9 0.4 11.2 1.8 11.2 1.4 0 1.9 -2.6 2.3 -11.8 0.6 -20.6 1.2 -20.2 -10.8 -8 -5.7 5.9 -10.9 10.4 -11.4 10 -0.6 -0.4 -1.2 -5.3 -1.2 -10.9 0 -8.2 -0.4 -10.1 -1.9 -10.1 -1.5 0 -1.9 2.6 -1.9 15.4 0 8.5 0.3 15.4 0.6 15.4 0.3 0 5.4 -5 11.4 -11.2z m27.6 4.6 c1.4 -3.7 2.7 -7.5 2.7 -8.4 0 -3.9 -5.4 -15.9 -7.2 -15.9 -2.4 0 -2.3 1 0.9 8.9 l2.8 6.6 -2.8 6.3 c-3.2 7.5 -3.3 9.1 -0.9 9.1 0.9 0 3 -3 4.5 -6.6z m13.6 -1.7 l2.8 -7.6 -2.8 -7.2 c-1.7 -4 -3.9 -7.3 -5 -7.6 -2.6 -0.5 -2.6 -0.6 0.6 7.8 l2.7 7.1 -2.7 7.2 c-3.2 8.7 -3.2 8.7 -0.5 8.2 1.2 -0.3 3.2 -3.5 4.9 -8z m-370.5 -31.5 c4.1 -3.3 2.2 -4.9 -3 -2.3 -3.6 1.8 -4.6 1.8 -8.6 0.1 -2.4 -1 -4.8 -1.5 -5.1 -1 -1.5 1.5 5.4 5.7 9.5 5.7 2.3 0 5.5 -1.2 7.2 -2.4z m161.7 -50.5 l0 -19.4 4.8 4.8 c5.7 5.7 8.1 6.4 18.8 5.7 6 -0.4 9.1 -1.3 11.8 -3.3 11.4 -9 16.3 -27.5 11.6 -43.6 -5.7 -19.1 -29.4 -24.2 -43.3 -9 l-3.6 4 0 -5.3 c0 -5.9 -1.7 -7.8 -4.5 -5.5 -1.7 1.4 -1.9 8.7 -1.9 46.4 l0 44.8 3.2 0 3.2 0 0 -19.5z m-237.7 -1.7 l0 -8.4 25.1 0 25.1 0 0 8.4 c0 7.5 0.3 8.4 2.6 8.4 2.3 0 2.6 -0.9 2.6 -10.9 l0 -10.9 -4.5 0 -4.5 0 0 -28.1 c0 -21.3 -0.4 -28.3 -1.5 -28.8 -0.9 -0.3 -7.2 -0.6 -14 -0.6 l-12.3 -0.1 -1.5 12.5 c-2.6 20.8 -12.2 44.6 -18.5 45.5 -2.6 0.4 -2.8 1.2 -3.2 11 -0.4 9.9 -0.3 10.5 2.3 10.5 2.3 0 2.6 -0.8 2.6 -8.4z m-541.6 -9.6 c3.9 -1.5 9.3 -4.4 12.2 -6.4 4.5 -3.2 5.3 -4.6 5.3 -8.4 0 -5.7 -1.7 -5.8 -11 -0.5 -8.4 4.8 -20.3 6.3 -28.1 3.7 -7.5 -2.4 -15 -10.9 -17.9 -19.8 -3.3 -10.7 -2.4 -29 2.1 -37.6 5.4 -10.7 16.7 -15.9 28.1 -13.2 8.5 2.1 12.3 5.4 14.4 12.6 1.5 5.4 2.2 6 5.8 6.4 l4.1 0.4 0 -12.8 0 -12.8 -4.8 -1.4 c-8.6 -2.4 -25.1 -4.2 -32.4 -3.5 -17.1 1.5 -31.5 11.3 -38.3 26 -3.3 7.1 -3.6 8.9 -3.6 23.1 0 13.9 0.4 16.1 3.3 22.5 5.9 12.5 17.3 21.6 30.8 24.4 8 1.7 21.7 0.4 29.9 -2.6z m101 -0.5 c0 -2.6 -1 -3.5 -5.4 -4.9 -4 -1.4 -5.7 -2.7 -5.9 -4.6 -0.4 -2.4 0.1 -2.8 3.6 -2.8 11.6 0 27.1 -8 33 -16.8 3.2 -4.9 3.6 -6.6 3.6 -16.6 0 -10.3 -0.3 -11.6 -3.7 -16.6 -5.1 -7.3 -12.7 -11.4 -25.8 -14.1 -6 -1.2 -11.2 -2.7 -11.3 -3.5 -0.1 -0.6 2.4 -2.4 5.9 -4.1 4.2 -1.9 6 -3.6 6 -5.4 0 -2.4 -0.9 -2.6 -22.5 -2.6 -21.7 0 -22.5 0.1 -22.5 2.6 0 1.9 1.7 3.3 5.8 5.1 7.7 3.3 7.6 5.9 -0.3 6.8 -23.4 3 -35.1 13.5 -35.1 31.7 0 9.6 3.2 17.5 9.4 22.6 6 5.1 16.7 9.6 24.7 10.4 6.3 0.6 7.2 1 6.8 3.3 -0.3 1.8 -2.1 3.2 -5.8 4.5 -4.5 1.4 -5.5 2.3 -5.5 4.9 l0 3.1 22.5 0 22.5 0 0 -3.1z m408.5 0.4 c2.4 -1.5 5.8 -4.2 7.3 -6.2 l2.8 -3.3 0.1 5.5 c0 4.8 0.4 5.4 3 5.4 2.8 0 2.8 0 2.6 -18.9 -0.5 -31.2 -0.8 -33 -4.6 -38 -5.8 -7.7 -20 -8.9 -31.9 -2.7 -2.7 1.3 -3.7 2.8 -3.7 5.1 l0 3.3 5.9 -3.5 c4.4 -2.6 8 -3.6 12.8 -3.7 6 -0.1 7.3 0.4 10.7 3.7 2.6 2.7 4.1 5.7 4.6 9.8 1 6.7 1 6.7 -11.6 8.2 -17.3 2.2 -26.7 7.7 -28.4 17 -1.3 6.8 1.7 14.4 7.1 18 5.9 4 16.8 4.1 23.3 0.3z m128 0 c2.3 -1.4 5.4 -4.1 6.8 -6 l2.6 -3.5 0.1 5.5 c0 4.9 0.3 5.4 3.3 5.4 l3.3 0 -0.5 -24.7 c-0.4 -27.1 -1.3 -30.3 -9 -36.1 -8.1 -6 -31.9 -1.4 -31.9 6 0 4 0.5 4.1 5.1 0.8 1.9 -1.4 6.4 -3.2 9.9 -4 5.4 -1.3 7.1 -1.2 10.9 0.6 5.1 2.4 8.7 8.5 8.7 14.6 0 4.4 0.3 4.2 -15.9 6.7 -15.4 2.4 -21.5 6.4 -24 15.9 -1.8 6.8 1.3 15 6.9 18.6 5.7 3.7 17.6 3.7 23.5 0z m73 0.3 c1.2 -1 2.1 -2.8 2.1 -4.1 0 -3 0 -3 -4.6 -0.5 -5.9 3.1 -18.5 2.6 -23.8 -1 -7.1 -4.8 -10.7 -12.7 -10.7 -23.4 0 -10.3 3 -17.5 9.5 -22.9 7.2 -6.2 16.2 -7.1 27.5 -2.7 1.5 0.6 2.1 0 2.1 -2.4 0 -3 -0.8 -3.5 -6.9 -4.8 -20.9 -4.4 -37.9 10.1 -38 32.2 0 14.3 5.9 25.6 16.1 30.2 4.9 2.3 23.9 1.8 26.9 -0.6z m-483.6 -12.2 l0 -13.4 -4.5 -0.5 c-4.4 -0.5 -4.6 -0.3 -5.9 4.6 -0.6 3 -1.8 6.7 -2.3 8.5 l-1 3.2 -19.5 0.4 -19.5 0.4 0.4 -15.8 c0.4 -18 0 -17.5 13.1 -16.7 l6.9 0.5 1.5 5.7 c1.4 4.9 2.1 5.7 5.1 5.7 2.1 0 3.9 -0.9 4.4 -2.1 1.3 -3.5 0.9 -32.6 -0.5 -32.8 -0.6 -0.1 -2.2 -0.1 -3.2 -0.1 -3.6 0 -4 0.3 -5.7 6 l-1.7 5.9 -9.9 -0.4 -9.8 -0.4 0 -13.5 0 -13.5 14.1 -0.4 c19.1 -0.5 19.4 -0.4 21.8 8.1 2.1 6.8 2.3 7.1 6.6 7.1 l4.4 0 0 -12.8 0 -12.8 -40.6 0 -40.5 0 0.4 2.8 c0.3 1.9 2.1 3.3 5.7 4.6 5.1 1.9 5.4 2.2 6.2 8.5 1 8.6 1 59.6 -0.1 63.5 -0.5 2.1 -2.7 3.9 -6.3 5.5 -4 1.7 -5.7 3.1 -5.7 5 0 2.6 0.6 2.6 43 2.6 l43 0 0 -13.4z m58.8 10.7 c-0.3 -1.9 -2.2 -3.5 -6.2 -5 l-5.8 -2.3 -0.4 -13.6 c-0.1 -7.5 -0.1 -13.6 0 -13.6 0.3 0 3.3 0.9 6.8 2.1 16.3 4.9 34.7 -4.5 39.2 -20.2 1.8 -6.2 1.5 -15.9 -0.5 -20.8 -2.3 -5.7 -9.8 -11.9 -16.4 -14 -3.9 -1.2 -14.5 -1.7 -34.4 -1.7 -27.4 0 -28.9 0.1 -28.9 2.4 0 1.7 1.8 3 5.8 4.5 l5.8 2.2 0 36.5 0 36.5 -5.8 2.2 c-4 1.5 -5.9 3 -6.2 4.9 -0.4 2.7 -0.1 2.7 23.5 2.7 23.6 0 23.9 0 23.5 -2.7z m64.5 0 c0 -1.9 -1.4 -3.2 -5.1 -4.6 -5.8 -2.3 -5.8 -1.8 -0.6 -14.1 l3 -7.5 16.4 0 16.3 0 3.6 9 c2.1 5 3.6 9.5 3.3 10.1 -0.3 0.6 -2.4 1.9 -4.9 2.7 -3 1 -4.5 2.4 -4.8 4.2 -0.4 2.8 -0.3 2.8 20.8 2.8 20.2 0 21.3 -0.1 21.3 -2.4 0 -1.5 -1.8 -3.3 -4.6 -4.9 -4.8 -2.4 -4.6 -2.1 -16.1 -31.9 -1.3 -3.5 -6.3 -16.2 -10.9 -28.3 -4.6 -11.9 -8.7 -22.9 -9.1 -24 -0.5 -1.9 -2.2 -2.3 -8.9 -2.3 l-8.2 0 -3.6 7.5 c-2.1 4 -9.9 23 -17.5 42.1 -13.1 33.3 -13.9 34.8 -18.1 36.9 -3 1.4 -4.5 3.1 -4.5 4.8 0 2.4 0.8 2.6 16.1 2.6 15.4 0 16.1 -0.1 16.1 -2.7z m83.5 -12.3 l0.1 -15.2 14.5 15.2 c11.3 11.8 15.3 15 17.9 15 1.9 0 3.5 -0.4 3.5 -0.9 0 -0.5 -6.7 -7.7 -14.8 -15.8 l-14.8 -14.8 14.8 -15 c8.1 -8.2 14.8 -15.3 14.8 -15.8 0 -0.5 -1.5 -0.5 -3.5 0 -2.2 0.4 -9.5 6.7 -18 15.2 l-14.4 14.3 -0.4 -14.8 c-0.3 -11.9 -0.8 -14.6 -2.3 -14.6 -1.7 0 -2.1 4.1 -2.6 26.3 -0.8 33.3 -0.6 36 2.7 36 2.3 0 2.4 -1 2.4 -15z m309.6 -13.9 l0 -28.9 9.6 0 c7.3 0 9.6 -0.4 9.6 -1.8 0 -2.6 -3.6 -3.1 -24.7 -3.2 -18.2 -0.1 -19 0 -19 2.4 0 2.2 0.9 2.6 6.8 2.7 13.2 0.3 11.8 -3.2 12.2 29.2 0.3 27.5 0.4 28.5 2.8 28.5 2.4 0 2.6 -0.9 2.6 -28.9z m-851.1 -84.5 l0 -2.8 365.8 -0.4 365.9 -0.3 0 3.9 c0 4.5 0 4.5 5.5 1.4 2.3 -1.3 6.3 -3.5 8.7 -4.6 l4.4 -2.3 -9 -4.1 -9 -4.2 -0.4 3.7 -0.4 3.7 -365.8 -0.3 c-312.6 -0.4 -365.8 -0.6 -365.4 -2.2 1 -5 -0.9 -5.3 -9.4 -1.2 -4.6 2.3 -8.4 4.5 -8.4 4.9 0 1 15.9 8.9 16.7 8.1 0.4 -0.4 0.6 -1.9 0.6 -3.3z m773.8 -9.5 c2.7 -0.6 2.8 -0.9 0.9 -3.7 -1.8 -2.8 -1.7 -3.1 7.5 -10 5 -4 55.8 -42.1 112.7 -84.9 103.2 -77.5 103.4 -77.6 105.6 -74.8 2.6 3.3 2.3 3.6 7.3 -6.4 2.8 -5.7 3.5 -8.1 2.3 -8.1 -2.3 0 -16.8 2.8 -17.5 3.3 -0.3 0.3 0.5 1.7 1.8 3.1 2.3 2.6 2.3 2.7 -0.1 4.4 -1.3 1 -52.2 39.2 -112.9 84.9 l-110.5 83 -2.3 -2.8 c-1.3 -1.5 -2.4 -2.6 -2.7 -2.3 -0.3 0.3 -2.3 4.2 -4.6 8.7 l-4.1 8.2 6.9 -0.9 c3.7 -0.5 8.1 -1.3 9.8 -1.7z m4.9 -27.1 c14.8 -11.2 30.6 -23.1 35.3 -26.6 4.6 -3.6 48.9 -36.7 98.5 -73.9 49.5 -37.1 90.1 -67.8 90.2 -68.3 0 -0.6 -51.5 -1 -114.5 -1 l-114.5 0 10.4 -11.4 c5.8 -6.3 10.4 -11.7 10.4 -12.2 0 -1.5 -76.8 -75.3 -78.4 -75.3 -0.6 0 -19.4 19.1 -41.9 42.4 -22.4 23.4 -41 42.1 -41.2 41.9 -0.8 -0.8 -0.5 -94.8 0.3 -95.6 0.4 -0.4 14.1 -0.6 30.4 -0.5 l29.9 0.1 -4.5 -3.7 c-2.4 -2.1 -4.9 -3.9 -5.4 -3.9 -0.5 0 -2.3 -1.4 -4.1 -3.1 -1.8 -1.7 -5.8 -4.6 -8.7 -6.7 -3.1 -2.1 -10.3 -7.3 -15.9 -11.7 -5.8 -4.5 -10.8 -8.1 -11.2 -8.1 -0.4 0 -2.4 -1.7 -4.8 -3.9 l-4.1 -3.9 0 -67.2 0 -67.3 -31.2 0 c-30.7 0.1 -31.3 0.1 -31.9 2.7 -0.3 1.5 -0.4 21.3 -0.3 44.1 l0.1 41.2 -5.4 -4.4 c-2.8 -2.4 -5.9 -4.4 -6.6 -4.4 -0.8 0 -1.7 -0.9 -2.2 -1.9 -0.4 -1 -1.5 -1.9 -2.7 -1.9 -1 0 -1.9 -0.5 -1.9 -1.2 0 -0.5 -2.4 -2.7 -5.4 -4.8 -3.1 -2.1 -6 -4.5 -6.6 -5.3 -0.5 -0.9 -1.7 -1.7 -2.6 -1.7 -0.9 0 -3.6 -1.8 -6 -3.9 -8.7 -7.3 -28.1 -21.8 -29.4 -21.8 -0.6 0 -1.4 -0.9 -1.9 -1.9 -0.4 -1 -1.5 -1.9 -2.7 -1.9 -1 0 -1.9 -0.5 -1.9 -1.2 0 -0.5 -2.4 -2.7 -5.4 -4.8 -3.1 -2.1 -6 -4.1 -6.8 -4.8 -0.6 -0.5 -7.1 -5.4 -14.1 -10.8 -7.1 -5.4 -13.5 -10.3 -14.3 -10.9 -0.9 -0.6 -2.2 -0.5 -3.2 0.5 -1 0.9 -4.2 3.3 -7.2 5.4 -3.1 2.1 -5.5 4.2 -5.5 4.8 0 0.6 -0.5 1.2 -1.3 1.2 -0.6 0 -9.8 6.4 -20.2 14.3 -10.5 7.8 -20.4 15.4 -22.2 16.7 -1.8 1.3 -14.5 10.9 -28.3 21.5 -13.7 10.4 -28.6 21.6 -33 24.7 -4.5 3.1 -8.1 6.2 -8.1 6.7 0 0.5 -0.5 1 -1.3 1 -1 0 -28.3 20 -36.6 26.9 -1.4 1.2 -7.5 5.7 -13.5 10 -6 4.2 -12.6 9.4 -14.5 11.2 -1.9 1.8 -3.9 3.3 -4.2 3.3 -0.6 0 -19.7 13.9 -21.8 16.1 -0.8 0.6 -4.6 3.6 -8.6 6.4 -4 2.8 -7.3 5.8 -7.3 6.7 0 1.2 7.2 1.4 28.3 1.3 l28.3 -0.3 0.5 3.2 c0.5 2.8 0.3 102 -0.3 106.4 -0.3 1.2 -7.1 1.5 -29.5 1.5 l-29.3 0 -125.8 94.4 c-69.2 52 -126 94.8 -126.4 95.1 -0.3 0.4 176.7 0.6 393.3 0.6 l393.8 0 26.9 -20.3z"/>
  <path d="M291.4 755.5 c-9.9 -8.9 -1.8 -24 11 -20.6 9.1 2.6 11.7 13.6 4.8 20.6 -5 4.9 -10.3 5 -15.8 0z"/>
  <path d="M490.5 756.6 c-6.8 -5.1 -5.8 -17.9 1.8 -20.9 5.4 -2.3 10.8 -1 14.5 3.3 5.1 6 3.5 14.9 -3.3 18.5 -4.9 2.4 -8.9 2.2 -13 -0.9z"/>
  <path d="M153.5 758 c-0.8 -1.3 5.5 -17.6 7.1 -18.6 1 -0.6 5.5 9 7.1 15.2 0.9 3.3 0.8 3.5 -4 3.6 -2.8 0 -6 0.3 -7.2 0.5 -1.3 0.3 -2.6 -0.1 -3 -0.6z"/>
  <path d="M117 757.5 c-7.1 -4 -8.7 -13.7 -3 -19 4.6 -4.4 6.9 -5 12.2 -3.5 10.3 2.8 11.8 17.3 2.3 22.4 -4.6 2.3 -7.5 2.4 -11.6 0.1z"/>
  <path d="M190 755.5 c-6.4 -6.6 -4.8 -16.7 3.2 -20 12.7 -5.4 22.6 11 12.3 20.3 -5.3 4.8 -10.7 4.6 -15.5 -0.3z"/>
  <path d="M330.2 755.8 c-3.5 -3.1 -4.2 -4.6 -4.2 -9.3 0 -11.4 12.3 -16.3 19.9 -8 6.8 7.6 3 18.6 -6.8 20.2 -3.9 0.6 -5.4 0.1 -8.9 -3z"/>
  <path d="M431.9 741 c0.3 -1.9 2.1 -3.9 5.1 -5.3 4.2 -2.1 5.1 -2.2 9.1 -0.4 4.5 1.8 8 6 6.4 7.7 -0.4 0.4 -5.4 0.8 -10.9 0.8 -9.9 0 -10.1 -0.1 -9.8 -2.8z"/>
  <path d="M529.1 756.6 c-7.1 -5.3 -5.8 -17.9 2.1 -21.1 5.4 -2.3 10.4 -1 14.3 3.5 5.4 6.4 4 14.6 -3.2 18.4 -5 2.6 -9 2.3 -13.1 -0.8z"/>
  <path d="M569 755.5 c-6.6 -6.6 -4.5 -17.5 3.7 -20.4 8.7 -3 18 5.5 15.5 14.3 -2.7 9.6 -12.6 12.8 -19.3 6.2z"/>
  <path d="M607.9 756.1 c-7.5 -6.3 -5.9 -17 3 -20.7 13 -5.4 22.5 14 10.5 21.3 -5.5 3.3 -8.9 3.2 -13.5 -0.6z"/>
  <path d="M768.3 757.6 c-7.1 -3.6 -8.4 -12.8 -2.7 -19.1 3 -3.3 4.6 -4.1 8.5 -4 9.3 0.3 14.9 10.3 10.1 18.1 -3.6 6.2 -9.8 8.1 -15.9 5z"/>
  <path d="M805.4 755.7 c-3.6 -3.2 -4.4 -4.6 -4.2 -9.1 0.3 -6 2.1 -8.9 7.8 -11.2 5 -2.2 9.3 -0.9 13.1 4.1 5.8 7.3 1.7 17.9 -7.7 19.3 -4 0.6 -5.4 0.1 -9 -3.1z"/>
  <path d="M844.6 757 c-6.6 -5.3 -7.3 -12.5 -1.9 -18.5 2.8 -3.2 4.6 -4.1 8.5 -4.1 3.9 0 5.7 0.9 8.5 4.1 2.1 2.3 3.7 5.5 3.7 7.3 0 10.3 -11.4 17.1 -18.8 11.2z"/>
  <path d="M1005.2 757 c-6.6 -5.3 -7.3 -12.5 -2.1 -18.5 8.9 -9.8 23.8 -0.4 19.5 12.3 -2.4 7.3 -11.9 10.7 -17.5 6.2z"/>
  <path d="M1124.7 758 c-6.4 -2.6 -9 -13.5 -4.5 -18.9 3.9 -4.6 8.5 -5.8 13.7 -3.6 8.5 3.5 10 14.5 2.8 20.6 -3.9 3.3 -7.3 3.9 -12.1 1.9z"/>
  <path d="M364.9 753 c0 -5.1 0.1 -5.3 4.4 -5.3 5 0 7.6 2.4 6.9 6.7 -0.3 2.4 -1.3 3 -5.8 3.3 l-5.5 0.4 0 -5.1z"/>
  <path d="M364.9 739.4 c0 -4.6 0 -4.6 4.9 -4.2 4.4 0.4 4.8 0.8 4.8 4.2 0 3.5 -0.4 3.9 -4.8 4.2 -4.9 0.4 -4.9 0.4 -4.9 -4.2z"/>
  <path d="M393.1 753.1 c0 -5.5 1.8 -6.8 7.7 -5.4 2.7 0.6 3.2 1.5 3.2 5.1 0 4.4 -0.1 4.5 -5.4 4.9 l-5.5 0.4 0 -5z"/>
  <path d="M665.5 752.9 l0 -5.3 5.5 0.4 c5.3 0.4 5.4 0.5 5.4 4.9 0 4.4 -0.1 4.5 -5.4 4.9 l-5.5 0.4 0 -5.3z"/>
  <path d="M1065.6 653.7 c-2.6 -2.3 -5.5 -6 -6.4 -8.4 -2.7 -6.2 -2.3 -23 0.6 -29.4 7.7 -17.1 31 -17 38.2 0.1 2.4 5.8 2.3 19.3 -0.3 26.7 -1.2 3.6 -4 7.7 -7.1 10.5 -4.6 4.1 -5.7 4.5 -12.7 4.5 -6.8 0 -8.1 -0.5 -12.3 -4.1z"/>
  <path d="M831.1 649.2 c4.9 -9.8 8.6 -22 10.5 -34.9 l1.7 -10.4 7.1 0.1 c4 0.1 7.8 0.6 8.5 1.2 0.8 0.6 1.2 10.5 0.9 26.2 l-0.4 25.2 -16.1 0 -15.9 0 3.7 -7.3z"/>
  <path d="M337.9 636.2 c-8.6 -4.2 -12.7 -14.5 -10.9 -27.2 1.3 -9.1 5.9 -14.3 15.8 -17.2 l2.8 -0.9 0 23.8 c0 26.2 0.3 25.6 -7.7 21.6z"/>
  <path d="M367.4 614.7 l0 -23.9 3 0.8 c12.1 3.7 15.5 8.6 15.7 22.5 0 7.3 -0.6 10.7 -2.6 14 -3 5.1 -7.6 8.6 -12.5 9.9 l-3.6 0.8 0 -24z"/>
  <path d="M766.6 653.9 c-2.3 -2.7 -3.5 -5.5 -3.5 -8.5 0 -9 4.4 -12.5 18.8 -14.6 4.9 -0.8 10.4 -1.7 12.5 -2.1 3.3 -0.6 3.5 -0.5 3.5 4.2 0 7.7 -2.4 14.4 -6.9 19.4 -4 4.2 -5 4.6 -12.6 5.1 -8 0.5 -8.4 0.4 -11.7 -3.6z"/>
  <path d="M894 654.1 c-3.7 -3.7 -4.6 -7.7 -3 -13.9 1.2 -4.5 8 -7.8 18.6 -9.4 5.1 -0.8 10.8 -1.7 12.5 -2.1 2.7 -0.5 2.8 -0.1 2.8 5.9 0 8.5 -2.3 13.9 -8.2 19 -4.1 3.6 -5.7 4.1 -11.8 4.1 -6.2 0 -7.6 -0.5 -10.9 -3.7z"/>
  <path d="M552.8 615.8 c-1.3 -0.4 -1.7 -5.4 -1.7 -18.5 l0 -17.9 4.2 0 c7.1 0 13.5 2.4 16.8 6.6 6 7.1 4.1 23.5 -3.3 28.6 -2.7 1.9 -12.6 2.7 -16.1 1.2z"/>
  <path d="M630.2 619.6 c0.5 -1.3 3.2 -8.1 5.8 -15.2 2.7 -6.9 5.3 -12.8 5.9 -13.1 0.6 -0.3 2.1 2.7 3.2 6.4 1.2 3.6 3.6 10.5 5.5 15.4 l3.3 8.6 -12.3 0 c-11.3 0 -12.2 -0.3 -11.4 -2.2z"/>
  <path d="M172.9 517.9 c0.6 -0.8 49.7 -37.6 109.1 -82.2 l107.9 -81.1 28.4 0 28.3 0 0 56.5 -0.1 56.5 143.8 0 143.6 0 23.1 22.1 23 22.1 9.4 -9.6 c5.3 -5.3 38.8 -40.1 74.6 -77.6 36 -37.4 66 -68.5 66.9 -69.1 0.9 -0.5 47.7 -0.8 104.1 -0.6 l102.4 0.4 -109.2 82 -109.2 81.8 -373.6 0 c-233.3 0 -373.2 -0.5 -372.4 -1.2z"/>
  <path d="M751.2 467 c-15.3 -15.2 -28.3 -27.6 -28.8 -27.6 -0.6 0 -1.7 -1 -2.4 -2.2 -1.2 -1.9 -0.4 -3.3 4.8 -8.5 l6 -6 10.1 9.5 10.3 9.6 5 -5.1 4.9 -5 -9.8 -10 -9.9 -9.9 3.6 -4 3.6 -4 3.5 3.1 c4.4 3.7 4.6 3.7 9.1 -0.9 l3.7 -3.9 -3.7 -3.9 c-3.6 -3.9 -3.6 -3.9 -1.2 -6.7 4 -4.8 4.6 -4.9 8.6 -1.5 l3.9 3.2 3.6 -3.5 c4.5 -4.2 4.5 -5.3 1 -9 -2.2 -2.3 -2.4 -3.2 -1 -5.3 3.1 -5 5.7 -5.5 9.4 -2.1 l3.6 3.2 3.7 -3.6 c4.5 -4.4 4.6 -5.3 0.5 -9.5 l-3.2 -3.3 3.5 -3.3 3.6 -3.5 10.1 9.6 10.1 9.6 5.3 -5.1 5.3 -5.3 -10.1 -10.1 c-10.3 -10.4 -11.3 -12.7 -6.2 -15.4 1.8 -1 3.2 -0.5 6 1.9 1.9 1.7 4 3.1 4.5 3.1 0.4 0 2.4 -1.8 4.5 -3.9 l3.7 -3.9 -4.1 -4.2 -4.1 -4.2 3.7 -3.6 c4 -3.7 6.6 -3.5 10.4 1.2 1.5 1.8 2.2 1.7 6 -2.2 l4.2 -4.1 -3.9 -4 -3.7 -3.9 3.2 -4.2 3.3 -4.1 4.8 3.7 4.9 3.9 4 -4.1 4.1 -4.2 -4.1 -4.1 -4.1 -4.1 3.7 -3.9 3.7 -3.9 10 9.9 10 10 5.4 -5.4 5.4 -5.4 -9.9 -9.3 c-5.4 -5 -9.9 -9.9 -9.9 -10.7 0 -2.8 12.5 -14 14.4 -12.8 2.6 1.5 60.1 57.4 60.1 58.3 0 0.9 -14.4 16.1 -98.3 103.4 -31.7 33 -60.4 63 -63.5 66.3 -3.1 3.5 -6 6.3 -6.4 6.3 -0.5 0 -13.5 -12.5 -28.8 -27.6z"/>
  <path d="M630.5 453.8 l-4.9 -0.4 0 -51.9 0 -51.9 22.9 -0.4 c12.5 -0.3 25.3 -0.1 28.5 0.3 l5.8 0.6 0.1 51.6 0 51.6 -23.8 0.4 c-13.1 0.3 -26.1 0.3 -28.6 0z"/>
  <path d="M509.7 347.1 c-1.9 -0.4 -2.2 -3.3 -2.2 -28.6 0 -15.4 0.4 -28.1 1 -28.1 1.4 -0.1 52 -0.1 54.3 0 1.8 0 1.9 3.3 1.9 27.5 -0.1 15.2 -0.5 28 -1 28.5 -0.9 0.9 -49.8 1.5 -54.1 0.8z"/>
 </g>
 <g fill="none" stroke="#251b0f" stroke-width="1.3">
  <path d="M282.6 752.2 c0 -18.2 0.3 -21.2 1.9 -21.2 1.2 0 2.3 0.8 2.7 1.8 0.5 1.3 1.7 1.2 5.7 -0.8 6.6 -3.3 12.6 -2.2 18.1 3.6 3.3 3.5 4.1 5.3 4.1 9.8 0 7.5 -3.2 13.1 -8.9 15.8 -5.4 2.6 -12.3 1.9 -16.1 -1.4 -2.3 -2.2 -2.4 -1.9 -2.4 5.7 0 7.1 -0.3 8 -2.6 8 -2.4 0 -2.6 -0.9 -2.6 -21.2z m24.5 3.3 c6.9 -6.9 4.4 -18 -4.8 -20.6 -8.4 -2.3 -15.3 3 -15.3 11.7 0 4.2 0.8 5.8 4.2 8.9 5.5 5 10.8 4.9 15.8 0z"/>
  <path d="M481.8 752.2 c0 -18 0.3 -21.2 1.9 -21.2 1 0 1.9 0.9 1.9 1.9 0 2.4 1.8 2.4 3.9 0 2.4 -3 9.3 -3.6 14.5 -1.4 14.5 6 12.1 28.6 -3.3 31.2 -3.3 0.5 -6 0 -9.9 -2.1 l-5.1 -2.7 0 7.7 c0 6 -0.4 7.7 -1.9 7.7 -1.7 0 -1.9 -3.2 -1.9 -21.2z m21.7 5.3 c6.8 -3.6 8.5 -12.5 3.3 -18.5 -8.4 -10 -23.1 -2.4 -20.7 10.5 1.5 8.1 9.8 11.8 17.3 8z"/>
  <path d="M144.8 766.2 c-0.5 -0.5 -0.9 -2.6 -0.9 -4.6 0 -2.6 0.6 -3.6 2.3 -3.6 1.5 0 3.7 -3.7 7.8 -13.6 3.1 -7.7 6.2 -13.2 7.1 -13 0.8 0.3 4 6.2 6.9 13.2 3.1 6.9 6.4 13.2 7.5 13.7 2.4 1.4 2.3 7.3 -0.1 7.3 -1 0 -1.9 -0.9 -1.9 -1.9 0 -1.5 -2.2 -1.9 -12.1 -1.9 -10.8 0 -12.2 0.3 -13.7 2.7 -1 1.4 -2.2 2.2 -2.8 1.7z m18.9 -8.1 c4.8 -0.1 4.9 -0.3 4 -3.6 -1.5 -6.2 -6 -15.8 -7.1 -15.2 -1.5 1 -7.8 17.3 -7.1 18.6 0.4 0.5 1.7 0.9 3 0.6 1.2 -0.3 4.4 -0.5 7.2 -0.5z"/>
  <path d="M116.1 761.8 c-1.4 -0.5 -4.2 -2.8 -6 -5.1 -4.8 -5.7 -4.9 -14.8 -0.3 -20.4 6 -6.9 15.8 -8.1 22.2 -2.3 l2.8 2.6 0 -2.7 c0 -1.7 0.8 -2.8 1.9 -2.8 1.7 0 1.9 2.6 1.9 15.4 0 12.8 -0.3 15.4 -1.9 15.4 -1 0 -1.9 -0.9 -1.9 -1.9 0 -1.5 -0.8 -1.5 -4.8 0.6 -5.1 2.7 -9.5 3.1 -14 1.3z m12.5 -4.5 c9.5 -5 8 -19.5 -2.3 -22.4 -5.3 -1.5 -7.6 -0.9 -12.2 3.5 -5.8 5.3 -4.1 15 3 19 4.1 2.3 6.9 2.2 11.6 -0.1z"/>
  <path d="M190.8 761.3 c-5.7 -2.4 -8.9 -8 -8.9 -15.3 0 -5.4 0.6 -6.7 4.8 -10.9 4.1 -4.1 5.5 -4.8 10.5 -4.6 3.1 0 7.1 1 8.9 2.3 3 1.8 3.3 1.8 3.3 0.1 0 -1 1.2 -1.9 2.6 -1.9 2.4 0 2.6 0.9 2.6 15.4 0 14.5 -0.1 15.4 -2.6 15.4 -1.5 0 -2.6 -0.9 -2.6 -2.2 0 -1.9 -0.1 -1.9 -2.3 0 -3.2 3 -11.7 3.9 -16.3 1.7z m14.8 -5.5 c10.3 -9.3 0.4 -25.7 -12.3 -20.3 -8 3.3 -9.6 13.5 -3.2 20 4.9 4.9 10.3 5 15.5 0.3z"/>
  <path d="M230.4 761.1 c-10.4 -5.1 -11.9 -19.1 -2.8 -26.7 6.9 -5.8 18.1 -5.5 23.6 0.5 3.2 3.6 1.3 4.8 -3.6 2.3 -6.7 -3.5 -9.5 -3.9 -14.1 -1.8 -5.3 2.1 -7.3 5.3 -7.3 11 0 5.4 1.9 8.6 6.4 10.9 5 2.6 8.5 2.4 13.6 -0.8 5.1 -3.1 8.2 -2.2 4.9 1.5 -2.2 2.4 -9.4 5 -14 5 -1.4 0 -4.4 -1 -6.7 -2.1z"/>
  <path d="M331.8 762.2 c-1.5 -0.3 -4.4 -2.3 -6 -4.4 -10.8 -12.7 0 -31.1 15.8 -26.9 7.5 1.9 11.7 7.6 11.7 15.5 0 5.4 -0.6 7.1 -4.1 10.8 -4.4 4.5 -10.7 6.3 -17.3 4.9z m14.6 -7.7 c4.1 -5 3.9 -10.9 -0.6 -15.9 -7.6 -8.4 -19.9 -3.5 -19.9 8 0 4.6 0.8 6.2 4.2 9.3 3.5 3.1 5 3.6 8.9 3 3 -0.4 5.7 -2.1 7.5 -4.2z"/>
  <path d="M434.8 761.2 c-5.3 -2.7 -8.2 -8.2 -8.2 -15.3 0 -4.6 0.8 -6.7 3.9 -10.3 7.8 -8.9 20.6 -7.1 25.8 3.9 1.5 3.2 2.4 6 2.2 6.4 -0.4 0.3 -6.7 0.8 -14 0.9 -15.3 0.3 -17.1 1.8 -10.4 8.6 4.9 4.9 10.1 5 15.4 0.6 4.4 -3.7 7.1 -4.1 6.4 -1.2 -1.2 6 -14 9.9 -21.1 6.3z m17.9 -18.1 c1.5 -1.7 -1.9 -5.9 -6.4 -7.7 -4 -1.8 -4.9 -1.7 -9.1 0.4 -3.1 1.4 -4.9 3.3 -5.1 5.3 -0.4 2.7 -0.1 2.8 9.8 2.8 5.5 0 10.5 -0.4 10.9 -0.8z"/>
  <path d="M530 761.8 c-5.4 -2.2 -8.7 -7.5 -9.4 -14.5 -0.5 -5.9 -0.1 -7.3 2.8 -10.8 6.2 -7.3 16.1 -8.5 22.4 -2.7 l2.8 2.7 0 -2.7 c0 -1.7 0.8 -2.8 1.9 -2.8 1.7 0 1.9 2.6 1.9 15.4 0 12.8 -0.3 15.4 -1.9 15.4 -1 0 -1.9 -0.8 -1.9 -1.8 0 -1.4 -1 -1.3 -4.8 0.6 -5 2.6 -9.6 3 -13.9 1.2z m12.2 -4.5 c7.2 -3.7 8.6 -11.9 3.2 -18.4 -8.5 -10 -23.1 -2.6 -20.7 10.5 0.9 5 6.2 9.6 10.8 9.8 1.7 0 4.6 -0.9 6.7 -1.9z"/>
  <path d="M571.1 762 c-4.2 -1.8 -9.3 -7.6 -10.1 -11.8 -1.4 -6.9 -0.9 -17.7 1.2 -22.5 2.3 -5.5 7.5 -7.8 19.8 -9 7.7 -0.8 9.1 -0.5 9.1 1 0 1.9 -7.2 3.6 -15.7 3.6 -5 0 -11.3 6.2 -11.3 11.2 0.1 3.2 0.3 3.3 1.4 1.3 2.1 -3.5 9.3 -6.2 14.3 -5.3 5.5 1.2 11 6.3 12.7 12.2 3.6 11.9 -9.6 24 -21.3 19.3z m12.8 -5.5 c7.5 -6.7 5.7 -18.1 -3.3 -21.1 -8.5 -2.8 -15.3 2.3 -15.3 11.4 0 10.1 11.3 15.9 18.6 9.6z"/>
  <path d="M609.6 762.2 c-6.7 -1.8 -11.8 -11 -10.4 -19 1.8 -9.5 10.4 -14.8 19.9 -12.2 7.5 1.9 11.7 7.6 11.7 15.5 0 5.4 -0.6 7.1 -4.2 10.9 -4.2 4.6 -10.7 6.4 -17 4.8z m11.8 -5.5 c11.9 -7.3 2.4 -26.7 -10.5 -21.3 -8.9 3.7 -10.4 14.4 -3 20.7 4.6 3.9 8 4 13.5 0.6z"/>
  <path d="M765.6 760.2 c-2.4 -1.5 -5.4 -5 -6.7 -7.7 -3.2 -6.9 -5.8 -6.2 -6.3 1.9 -0.3 3.9 -1 6.8 -1.9 7.2 -1.3 0.4 -1.7 -3.2 -1.7 -15 0 -13 0.3 -15.5 1.9 -15.5 1.4 0 1.9 1.5 1.9 6.4 0 5.5 0.4 6.4 2.6 6.4 1.4 0 2.6 -0.8 2.6 -1.8 0 -3.5 6.6 -9.8 11.7 -11 14.3 -3.9 25.6 11.4 17.9 24 -4.9 8.1 -14.4 10.3 -22 5.1z m13.4 -2.3 c11.4 -5.1 7.7 -23 -4.9 -23.4 -3.9 -0.1 -5.5 0.6 -8.5 4 -9.1 10.1 1 25.1 13.4 19.4z"/>
  <path d="M805.5 760.8 c-6.8 -3.3 -9.3 -8.9 -9.3 -20 0.1 -16.3 4.2 -20.4 22 -22.1 7.7 -0.8 9.1 -0.6 9.1 1.2 0 1.5 -2.2 2.2 -9.8 2.8 -11 1.2 -15.2 3.6 -17.2 10.8 l-1.2 4.4 2.8 -2.7 c4.5 -4.2 9.5 -5.7 15 -4.1 14.4 3.9 15.9 23.3 2.6 30.2 -4.9 2.6 -8.6 2.4 -14.1 -0.4z m16.4 -6 c7.8 -9.1 -2.1 -24 -13 -19.4 -5.8 2.3 -7.6 5.1 -7.8 11.2 -0.1 4.5 0.6 5.9 4.2 9.1 3.6 3.2 5 3.7 9 3.1 2.7 -0.4 5.8 -2.1 7.6 -4z"/>
  <path d="M844.7 761.8 c-8.9 -3.6 -12.3 -16.3 -6.8 -24.4 4.2 -6.3 11.7 -8.9 18.5 -6.3 10 3.7 13.7 15.7 7.8 24.4 -4.6 6.8 -12.3 9.4 -19.5 6.3z m12.1 -4.4 c7.2 -3.7 8.5 -12.7 2.8 -19 -2.8 -3.2 -4.6 -4.1 -8.5 -4.1 -8.7 0 -14.8 9.9 -10.8 17.6 3.5 6.8 9.8 8.9 16.4 5.5z"/>
  <path d="M934 760.8 c-6 -3 -9.4 -9.5 -8.4 -16.3 1.9 -12.8 18 -18.6 28.4 -10.3 3.3 2.7 3.5 3.1 1.4 3.9 -1.3 0.6 -3.2 0.1 -4.5 -0.9 -6.2 -5.4 -17 -3 -20 4.4 -2.4 5.7 -1.3 10.7 3.3 14.5 4.6 4 10.4 4.1 16.2 0.6 4.8 -3 7.8 -2.3 5.1 0.9 -2.2 2.7 -9.1 5.5 -13.5 5.5 -1.9 0 -5.7 -1 -8.1 -2.3z"/>
  <path d="M1005.3 761.8 c-5.4 -2.2 -8.7 -7.5 -9.4 -14.8 -0.5 -6.6 -0.3 -7.3 3.7 -11.3 5.5 -5.5 12.2 -6.9 18.5 -4 8.2 3.9 11.9 14.4 8 22.4 -3.5 6.9 -13.6 10.8 -20.8 7.7z m12.3 -4.8 c10.4 -6.2 6.2 -22 -5.9 -22.5 -8.6 -0.3 -14.8 9.5 -10.8 17.3 3.6 7.1 10.1 9 16.7 5.1z"/>
  <path d="M1123.4 762 c-1.4 -0.6 -4.2 -3 -6 -5.3 -2.7 -3.2 -3.5 -5.4 -3.5 -10.3 0 -20 28.5 -22.1 31.7 -2.2 0.8 5.4 -2.3 12.8 -6.6 15.7 -3.9 2.6 -11.9 3.6 -15.7 2.1z m13.4 -5.9 c7.2 -6 5.7 -17.1 -2.8 -20.6 -10.9 -4.6 -20.7 8 -14 18.1 4 6.3 11.2 7.2 16.8 2.4z"/>
  <path d="M1162 761.8 c-7.2 -3 -11.6 -11.8 -9.6 -19.3 3.3 -12.2 20.7 -16.8 28.9 -7.7 3.1 3.5 1.4 4.9 -3 2.3 -5.7 -3.2 -10.1 -3.7 -14.9 -1.8 -5.1 2.2 -7.2 5.4 -7.2 11 0 5.4 1.9 8.6 6.4 10.9 5 2.6 8.9 2.4 13.9 -0.6 4.8 -3 7.8 -2.3 5.1 0.9 -3.7 4.6 -13.7 6.7 -19.7 4.2z"/>
  <path d="M52.8 754.1 l-3.1 -7.6 3 -7.2 c2.6 -6.4 5.5 -9.8 7.1 -8.2 0.3 0.3 -0.9 3.9 -2.6 7.8 l-3.1 7.5 3.1 7.7 c2.7 6.9 2.8 7.7 0.9 7.7 -1.5 0 -3.2 -2.6 -5.3 -7.7z"/>
  <path d="M68.1 759.1 c-0.8 -1.4 -2.3 -4.9 -3.2 -7.7 -1.7 -4.6 -1.7 -5.8 0.8 -12.2 2.4 -6.3 5.3 -9.6 6.9 -8 0.4 0.4 -0.8 4 -2.4 8.1 l-3 7.5 3 6.9 c3.6 8.1 3.6 8.1 1.2 8.1 -1 0 -2.4 -1.2 -3.2 -2.7z"/>
  <path d="M78.4 746.4 c0 -12.8 0.4 -15.4 1.9 -15.4 1.4 0 1.9 1.5 1.9 5.8 0 3.2 0.4 5.8 0.8 5.8 0.4 0 3.9 -2.6 7.5 -5.8 10.3 -8.7 13.6 -7.5 4.1 1.4 l-7.7 7.1 8.2 8.2 c6.4 6.4 7.7 8.4 5.7 8.4 -1.4 0 -5.7 -3.2 -9.5 -7.1 -3.7 -3.9 -7.3 -6.7 -8 -6.3 -0.5 0.4 -1 3.5 -1 7.1 0 4.8 -0.5 6.3 -1.9 6.3 -1.5 0 -1.9 -2.6 -1.9 -15.4z"/>
  <path d="M265.8 760.9 c-0.1 -0.6 -0.3 -6.6 -0.4 -13.2 l-0.1 -12.2 -4.1 -0.4 c-2.7 -0.3 -4.2 -1.2 -4.2 -2.3 0 -1.4 2.2 -1.8 10.3 -1.8 8.2 0 10.3 0.4 10.3 1.9 0 1.3 -1.3 1.9 -3.9 1.9 l-3.9 0 0 13.5 c0 11.2 -0.4 13.5 -1.9 13.5 -1 0 -2.1 -0.4 -2.1 -0.9z"/>
  <path d="M361 746.4 l0 -15.4 6.8 0 c5.1 0 7.5 0.6 9 2.3 2.4 2.7 3 8.6 0.9 9.9 -0.8 0.5 -0.4 2.1 1.3 4.1 3.2 4.2 3.3 8.6 0 11.9 -2.1 2.1 -4.2 2.6 -10.3 2.6 l-7.7 0 0 -15.4z m15.2 8 c0.6 -4.2 -1.9 -6.7 -6.9 -6.7 -4.2 0 -4.4 0.1 -4.4 5.3 l0 5.1 5.5 -0.4 c4.5 -0.4 5.5 -0.9 5.8 -3.3z m-1.7 -15 c0 -3.5 -0.4 -3.9 -4.8 -4.2 -4.9 -0.4 -4.9 -0.4 -4.9 4.2 0 4.6 0 4.6 4.9 4.2 4.4 -0.4 4.8 -0.8 4.8 -4.2z"/>
  <path d="M388 746.4 c0 -12.6 0.4 -15.4 1.8 -15.4 1.4 0 2.1 1.8 2.3 6 l0.4 5.9 5.8 0.5 c4.1 0.4 6.6 1.4 8.7 3.7 3.5 4 3.6 6.9 0.1 11.3 -2.3 3 -3.5 3.3 -10.9 3.3 l-8.2 0 0 -15.4z m16.1 6.4 c0 -3.6 -0.5 -4.5 -3.2 -5.1 -5.9 -1.4 -7.7 -0.1 -7.7 5.4 l0 5 5.5 -0.4 c5.3 -0.4 5.4 -0.5 5.4 -4.9z"/>
  <path d="M415 746.4 c0 -12.8 0.4 -15.4 1.9 -15.4 1.7 0 1.9 2.6 1.9 15.4 0 12.8 -0.3 15.4 -1.9 15.4 -1.5 0 -1.9 -2.6 -1.9 -15.4z"/>
  <path d="M643.6 748.4 l0 -13.5 -4.5 0 c-3.1 0 -4.5 -0.6 -4.5 -1.9 0 -1.5 2.1 -1.9 10.3 -1.9 8.2 0 10.3 0.4 10.3 1.9 0 1.3 -1.3 1.9 -3.9 1.9 l-3.9 0 0 13.5 c0 11.2 -0.4 13.5 -1.9 13.5 -1.5 0 -1.9 -2.3 -1.9 -13.5z"/>
  <path d="M660.4 748.5 c0 -14.4 0.6 -17.5 3.3 -17.5 1 0 1.8 2.1 2.1 6.2 0.4 5.3 0.8 6 3.3 6.2 1.5 0.1 4 0.3 5.4 0.4 3.5 0.3 7.7 5.1 7.7 9.1 0 5.9 -4.8 9 -13.9 9 l-8 0 0 -13.4z m16.1 4.4 c0 -4.4 -0.1 -4.5 -5.4 -4.9 l-5.5 -0.4 0 5.3 0 5.3 5.5 -0.4 c5.3 -0.4 5.4 -0.5 5.4 -4.9z"/>
  <path d="M687.3 746.4 c0 -12.3 0.4 -15.4 1.8 -15.4 2.2 0 3 7.5 2.3 21.6 -0.4 6.9 -0.9 9.3 -2.3 9.3 -1.4 0 -1.8 -3 -1.8 -15.4z"/>
  <path d="M714.3 761.1 c0 -1.4 10.5 -25.3 12.3 -27.9 1.4 -2.2 1.8 -1.9 4.1 3.2 1.4 3 4.6 10 7.2 15.5 3.9 8.5 4.2 9.9 2.3 9.9 -1.5 0 -3.7 -3.5 -7.3 -11.2 l-5 -11 -5.1 11 c-2.7 6.2 -5.8 11.2 -6.8 11.2 -0.9 0 -1.7 -0.4 -1.7 -0.8z"/>
  <path d="M874.9 746.7 c0 -13.1 0.3 -15.7 1.9 -15.7 1.5 0 1.9 2.1 1.9 11.2 l0 11.3 11.6 -11.6 11.6 -11.6 0 15.8 c0 13.1 -0.3 15.7 -1.9 15.7 -1.5 0 -1.9 -2.1 -1.9 -11.2 l0 -11.3 -11.6 11.6 -11.6 11.6 0 -15.8z"/>
  <path d="M962.9 759.3 c0.5 -1.4 3.6 -8.5 7.1 -15.8 l6.2 -13.1 7.2 15.3 c4 8.5 6.9 15.5 6.7 15.9 -1.8 1.7 -4.6 -1.8 -8.6 -10.5 -2.4 -5.4 -4.8 -9.8 -5.3 -9.8 -0.9 0 -6 10.4 -8.9 17.7 -1.4 3.6 -5.5 4 -4.4 0.3z"/>
  <path d="M1031.6 761.1 c0 -0.4 3.2 -4.4 7.2 -8.6 l7.2 -8 -7.6 -6.7 c-6 -5.5 -6.9 -6.8 -4.6 -6.8 1.5 0 5.9 2.8 9.9 6.6 l7.2 6.6 0 -6.6 c0 -4.9 0.5 -6.6 1.8 -6.6 1.4 0 2.1 1.8 2.3 6.6 l0.4 6.4 7.3 -6.4 c10.1 -9.1 14 -8.7 4.9 0.5 l-6.9 7.1 3.1 3.5 c1.8 2.1 5.1 5.8 7.6 8.5 4.1 4.2 4.2 4.8 1.8 4.8 -1.7 0 -5.1 -2.7 -9.1 -7.2 -3.7 -4.4 -6.9 -6.9 -7.8 -6.4 -0.8 0.5 -1.4 3.7 -1.4 7.3 0 4.8 -0.5 6.3 -1.9 6.3 -1.4 0 -1.9 -1.5 -1.9 -6.3 0 -3.6 -0.5 -6.7 -1.2 -7.1 -0.6 -0.4 -4.1 2.4 -7.6 6.3 -5.5 6 -10.5 9 -10.5 6.3z"/>
  <path d="M1080.5 746.4 c0 -12.8 0.4 -15.4 1.9 -15.4 1.4 0 1.9 1.5 1.9 5.7 0 6.3 1 6.9 11.6 6.6 l5.8 -0.3 0.4 -6 c0.3 -4.1 0.9 -5.9 2.3 -5.9 1.4 0 1.8 2.8 1.8 15.4 0 12.8 -0.3 15.4 -1.9 15.4 -1.5 0 -1.9 -1.7 -1.9 -7.1 l0 -7.1 -9 0 -9 0 0 7.1 c0 5.4 -0.4 7.1 -1.9 7.1 -1.5 0 -1.9 -2.6 -1.9 -15.4z"/>
  <path d="M1196 759 c0 -1.7 0 -7.7 0.1 -13.5 l0.1 -10.7 -4.5 0 c-3.2 0 -4.6 -0.5 -4.6 -1.9 0 -1.5 2.1 -1.9 10.3 -1.9 8.2 0 10.3 0.4 10.3 1.9 0 1.3 -1.3 1.9 -3.9 1.9 l-3.9 0 0 13.5 c0 11.2 -0.4 13.5 -1.9 13.5 -1.2 0 -1.9 -1.2 -2.1 -2.8z"/>
  <path d="M1212.8 746.4 c0 -12.8 0.4 -15.4 1.9 -15.4 1.5 0 1.9 1.9 1.9 10.1 0 5.7 0.5 10.5 1.2 10.9 0.5 0.4 5.8 -4.1 11.4 -10 11.9 -12.2 11.4 -12.6 10.8 8 -0.4 9.3 -0.9 11.8 -2.3 11.8 -1.4 0 -1.8 -2.3 -1.8 -11.2 l-0.1 -11.3 -10.9 11.3 c-6 6.2 -11.2 11.2 -11.4 11.2 -0.4 0 -0.6 -6.9 -0.6 -15.4z"/>
  <path d="M1246.2 760.4 c0 -0.8 1.3 -4.2 2.7 -7.7 l2.8 -6.3 -2.8 -6.6 c-3.2 -7.8 -3.3 -8.9 -0.9 -8.9 1.8 0 7.2 12.1 7.2 15.9 0 3.5 -5.5 14.9 -7.2 14.9 -1 0 -1.8 -0.6 -1.8 -1.4z"/>
  <path d="M1259 761.3 c0 -0.4 1.2 -4 2.7 -8 l2.7 -7.2 -2.7 -7.1 c-3.2 -8.5 -3.2 -8.4 -0.6 -7.8 1.2 0.3 3.3 3.6 5 7.6 l2.8 7.2 -2.8 7.6 c-1.7 4.5 -3.7 7.7 -4.9 8 -1.3 0.3 -2.2 0.1 -2.2 -0.3z"/>
  <path d="M881.2 722.1 c-4.1 -3.3 -2.6 -4.5 2.8 -2.2 4 1.7 5 1.7 8.6 -0.1 2.3 -1.2 4.6 -1.7 5.1 -1.2 1.7 1.7 -5 5.9 -9.4 5.9 -2.3 0 -5.5 -1.2 -7.2 -2.4z"/>
  <path d="M1050.9 646.3 c0 -37.6 0.3 -45 1.9 -46.4 2.8 -2.3 4.5 -0.4 4.5 5.5 l0 5.3 3.6 -4 c13.9 -15.2 37.6 -10.1 43.3 9 4.8 16.1 -0.1 34.6 -11.6 43.6 -2.7 2.1 -5.8 3 -11.8 3.3 -10.7 0.8 -13.1 0 -18.8 -5.7 l-4.8 -4.8 0 19.4 0 19.5 -3.2 0 -3.2 0 0 -44.8z m39.7 6.9 c3.1 -2.8 5.9 -6.9 7.1 -10.5 2.6 -7.5 2.7 -20.9 0.3 -26.7 -7.2 -17.1 -30.4 -17.2 -38.2 -0.1 -3 6.4 -3.3 23.3 -0.6 29.4 0.9 2.3 3.9 6 6.4 8.4 4.2 3.6 5.5 4.1 12.3 4.1 7.1 0 8.1 -0.4 12.7 -4.5z"/>
  <path d="M814.8 667.8 c0.4 -9.9 0.6 -10.7 3.2 -11 6.3 -0.9 15.9 -24.7 18.5 -45.5 l1.5 -12.5 12.3 0.1 c6.8 0 13.1 0.4 14 0.6 1.2 0.5 1.5 7.5 1.5 28.8 l0 28.1 4.5 0 4.5 0 0 10.9 c0 10 -0.3 10.9 -2.6 10.9 -2.3 0 -2.6 -0.9 -2.6 -8.4 l0 -8.4 -25.1 0 -25.1 0 0 8.4 c0 7.6 -0.3 8.4 -2.6 8.4 -2.6 0 -2.7 -0.6 -2.3 -10.5z m45 -36.5 c0.3 -15.7 -0.1 -25.6 -0.9 -26.2 -0.6 -0.5 -4.5 -1 -8.5 -1.2 l-7.1 -0.1 -1.7 10.4 c-1.9 13 -5.7 25.2 -10.5 34.9 l-3.7 7.3 15.9 0 16.1 0 0.4 -25.2z"/>
  <path d="M248.1 662.9 c-13.5 -2.8 -24.9 -11.9 -30.8 -24.4 -3 -6.4 -3.3 -8.6 -3.3 -22.5 0 -14.3 0.3 -16.1 3.6 -23.1 6.8 -14.6 21.2 -24.4 38.3 -26 7.3 -0.8 23.8 1 32.4 3.5 l4.8 1.4 0 12.8 0 12.8 -4.1 -0.4 c-3.6 -0.4 -4.2 -1 -5.8 -6.4 -2.1 -7.2 -5.9 -10.5 -14.4 -12.6 -11.4 -2.7 -22.7 2.6 -28.1 13.2 -4.5 8.6 -5.4 27 -2.1 37.6 2.8 8.9 10.4 17.3 17.9 19.8 7.8 2.6 19.8 1 28.1 -3.7 9.4 -5.3 11 -5.1 11 0.5 0 3.7 -0.8 5.1 -5.3 8.4 -10.9 7.8 -29 11.7 -42.1 9z"/>
  <path d="M334 659.8 c0 -2.6 1 -3.5 5.5 -4.9 3.7 -1.3 5.5 -2.7 5.8 -4.5 0.4 -2.3 -0.5 -2.7 -6.8 -3.3 -8 -0.8 -18.6 -5.3 -24.7 -10.4 -6.2 -5.1 -9.4 -13 -9.4 -22.6 0 -18.2 11.7 -28.8 35.1 -31.7 7.8 -0.9 8 -3.5 0.3 -6.8 -4.1 -1.8 -5.8 -3.2 -5.8 -5.1 0 -2.4 0.8 -2.6 22.5 -2.6 21.6 0 22.5 0.1 22.5 2.6 0 1.8 -1.8 3.5 -6 5.4 -3.5 1.7 -6 3.5 -5.9 4.1 0.1 0.8 5.3 2.3 11.3 3.5 13.1 2.7 20.7 6.8 25.8 14.1 3.5 5 3.7 6.3 3.7 16.6 0 10 -0.4 11.7 -3.6 16.6 -5.9 8.9 -21.5 16.8 -33 16.8 -3.5 0 -4 0.4 -3.6 2.8 0.3 1.9 1.9 3.2 5.9 4.6 4.4 1.4 5.4 2.3 5.4 4.9 l0 3.1 -22.5 0 -22.5 0 0 -3.1z m11.6 -45.2 l0 -23.8 -2.8 0.9 c-9.9 3 -14.5 8.1 -15.8 17.2 -1.8 12.7 2.3 23 10.9 27.2 8 4 7.7 4.6 7.7 -21.6z m32.1 20.2 c6 -4.4 8.4 -10.1 8.4 -20.7 -0.1 -13.9 -3.6 -18.8 -15.7 -22.5 l-3 -0.8 0 23.9 0 24 3.6 -0.8 c1.9 -0.5 4.9 -1.9 6.7 -3.2z"/>
  <path d="M764.3 660 c-5.4 -3.6 -8.4 -11.2 -7.1 -18 1.7 -9.3 11 -14.8 28.4 -17 12.6 -1.5 12.6 -1.5 11.6 -8.2 -0.5 -4.1 -2.1 -7.1 -4.6 -9.8 -3.3 -3.3 -4.6 -3.9 -10.7 -3.7 -4.9 0.1 -8.5 1.2 -12.8 3.7 l-5.9 3.5 0 -3.3 c0 -2.3 1 -3.9 3.7 -5.1 11.8 -6.2 26.1 -5 31.9 2.7 3.9 5 4.1 6.8 4.6 38 0.3 18.9 0.3 18.9 -2.6 18.9 -2.6 0 -3 -0.6 -3 -5.4 l-0.1 -5.5 -2.8 3.3 c-7.6 9.1 -21.7 11.8 -30.6 5.9z m26.6 -7.6 c4.5 -5 6.9 -11.7 6.9 -19.4 0 -4.8 -0.1 -4.9 -3.5 -4.2 -2.1 0.4 -7.6 1.3 -12.5 2.1 -14.4 2.2 -18.8 5.7 -18.8 14.6 0 3 1.2 5.8 3.5 8.5 3.3 4 3.7 4.1 11.7 3.6 7.6 -0.5 8.6 -0.9 12.6 -5.1z"/>
  <path d="M892 660.2 c-5.7 -3.6 -8.7 -11.8 -6.9 -18.6 2.6 -9.5 8.6 -13.5 24 -15.9 16.2 -2.4 15.9 -2.3 15.9 -6.7 0 -6.2 -3.6 -12.2 -8.7 -14.6 -3.9 -1.8 -5.5 -1.9 -10.9 -0.6 -3.5 0.8 -8 2.6 -9.9 4 -4.6 3.3 -5.1 3.2 -5.1 -0.8 0 -7.5 23.8 -12.1 31.9 -6 7.7 5.8 8.6 9 9 36.1 l0.5 24.7 -3.3 0 c-3.1 0 -3.3 -0.5 -3.3 -5.4 l-0.1 -5.5 -2.6 3.5 c-1.4 1.9 -4.5 4.6 -6.8 6 -5.9 3.7 -17.9 3.7 -23.5 0z m24.8 -6.6 c5.9 -5.1 8.2 -10.5 8.2 -19 0 -6 -0.1 -6.4 -2.8 -5.9 -1.7 0.4 -7.3 1.3 -12.5 2.1 -10.7 1.5 -17.5 4.9 -18.6 9.4 -1.7 6.2 -0.8 10.1 3 13.9 3.3 3.2 4.8 3.7 10.9 3.7 6.2 0 7.7 -0.5 11.8 -4.1z"/>
  <path d="M961.6 661.1 c-10.1 -4.6 -16.1 -15.9 -16.1 -30.2 0.1 -22.1 17.1 -36.6 38 -32.2 6.2 1.3 6.9 1.8 6.9 4.8 0 2.4 -0.5 3.1 -2.1 2.4 -11.3 -4.4 -20.3 -3.5 -27.5 2.7 -6.6 5.4 -9.5 12.6 -9.5 22.9 0 10.7 3.6 18.6 10.7 23.4 5.3 3.6 17.9 4.1 23.8 1 4.6 -2.4 4.6 -2.4 4.6 0.5 0 4.2 -3.6 5.8 -14.5 6.2 -7.2 0.3 -11.8 -0.1 -14.4 -1.4z"/>
  <path d="M418.8 659.1 c0 -1.9 1.7 -3.3 5.7 -5 3.6 -1.7 5.8 -3.5 6.3 -5.5 1.2 -3.9 1.2 -54.9 0.1 -63.5 -0.8 -6.3 -1 -6.6 -6.2 -8.5 -3.6 -1.3 -5.4 -2.7 -5.7 -4.6 l-0.4 -2.8 40.5 0 40.6 0 0 12.8 0 12.8 -4.4 0 c-4.2 0 -4.5 -0.3 -6.6 -7.1 -2.4 -8.5 -2.7 -8.6 -21.8 -8.1 l-14.1 0.4 0 13.5 0 13.5 9.8 0.4 9.9 0.4 1.7 -5.9 c1.7 -5.8 2.1 -6 5.7 -6 1 0 2.6 0 3.2 0.1 1.4 0.1 1.8 29.3 0.5 32.8 -0.5 1.2 -2.3 2.1 -4.4 2.1 -3.1 0 -3.7 -0.8 -5.1 -5.7 l-1.5 -5.7 -6.9 -0.5 c-13.1 -0.8 -12.7 -1.3 -13.1 16.7 l-0.4 15.8 19.5 -0.4 19.5 -0.4 1 -3.2 c0.5 -1.8 1.7 -5.5 2.3 -8.5 1.3 -4.9 1.5 -5.1 5.9 -4.6 l4.5 0.5 0 13.4 0 13.4 -43 0 c-42.4 0 -43 0 -43 -2.6z"/>
  <path d="M516.7 658.9 c0.3 -1.9 2.2 -3.3 6.2 -4.9 l5.8 -2.2 0 -36.5 0 -36.5 -5.8 -2.2 c-4 -1.5 -5.8 -2.8 -5.8 -4.5 0 -2.3 1.5 -2.4 28.9 -2.4 19.9 0 30.6 0.5 34.4 1.7 6.7 2.1 14.1 8.4 16.4 14 2.1 4.9 2.3 14.6 0.5 20.8 -4.5 15.7 -22.9 25.1 -39.2 20.2 -3.5 -1.2 -6.6 -2.1 -6.8 -2.1 -0.1 0 -0.1 6.2 0 13.6 l0.4 13.6 5.8 2.3 c4 1.5 5.9 3.1 6.2 5 0.4 2.7 0.1 2.7 -23.5 2.7 -23.6 0 -23.9 0 -23.5 -2.7z m52.2 -44.3 c4.5 -3.1 6.7 -8.7 6.7 -17.1 0 -6.3 -0.5 -8.4 -3.3 -11.6 -3.3 -4.1 -9.8 -6.6 -16.8 -6.6 l-4.2 0 0 17.9 c0 13.1 0.4 18.1 1.7 18.5 3.5 1.5 13.4 0.8 16.1 -1.2z"/>
  <path d="M596.1 659.1 c0 -1.7 1.5 -3.3 4.5 -4.8 4.2 -2.1 5 -3.6 18.1 -36.9 7.6 -19.1 15.4 -38.2 17.5 -42.1 l3.6 -7.5 8.2 0 c6.7 0 8.4 0.4 8.9 2.3 0.4 1.2 4.5 12.1 9.1 24 4.6 12.1 9.6 24.8 10.9 28.3 11.4 29.8 11.3 29.4 16.1 31.9 2.8 1.5 4.6 3.3 4.6 4.9 0 2.3 -1.2 2.4 -21.3 2.4 -21.1 0 -21.2 0 -20.8 -2.8 0.3 -1.8 1.8 -3.2 4.8 -4.2 2.4 -0.8 4.6 -2.1 4.9 -2.7 0.3 -0.6 -1.3 -5.1 -3.3 -10.1 l-3.6 -9 -16.3 0 -16.4 0 -3 7.5 c-5.1 12.3 -5.1 11.8 0.6 14.1 3.7 1.4 5.1 2.7 5.1 4.6 0 2.6 -0.6 2.7 -16.1 2.7 -15.3 0 -16.1 -0.1 -16.1 -2.6z m54.5 -45.9 c-1.9 -4.9 -4.4 -11.8 -5.5 -15.4 -1.2 -3.7 -2.6 -6.7 -3.2 -6.4 -0.6 0.3 -3.2 6.2 -5.9 13.1 -2.6 7.1 -5.3 13.9 -5.8 15.2 -0.8 1.9 0.1 2.2 11.4 2.2 l12.3 0 -3.3 -8.6z"/>
  <path d="M706.3 656.9 c-0.3 -2.7 -0.1 -16.7 0.3 -31.2 0.5 -22.2 0.9 -26.3 2.6 -26.3 1.5 0 2.1 2.7 2.3 14.6 l0.4 14.8 14.4 -14.3 c8.5 -8.5 15.8 -14.8 18 -15.2 1.9 -0.5 3.5 -0.5 3.5 0 0 0.5 -6.7 7.6 -14.8 15.8 l-14.8 15 14.8 14.8 c8.1 8.1 14.8 15.3 14.8 15.8 0 0.5 -1.5 0.9 -3.5 0.9 -2.6 0 -6.6 -3.2 -17.9 -15 l-14.5 -15.2 -0.1 15.2 c0 14 -0.1 15 -2.4 15 -2.1 0 -2.6 -1 -3 -4.8z"/>
  <path d="M1016 633.1 c-0.4 -32.4 1 -28.9 -12.2 -29.2 -5.9 -0.1 -6.8 -0.5 -6.8 -2.7 0 -2.4 0.8 -2.6 19 -2.4 21.1 0.1 24.7 0.6 24.7 3.2 0 1.4 -2.3 1.8 -9.6 1.8 l-9.6 0 0 28.9 c0 28 -0.1 28.9 -2.6 28.9 -2.4 0 -2.6 -1 -2.8 -28.5z"/>
  <path d="M161 548.2 c-4.5 -2.2 -8.1 -4.4 -8.1 -4.8 0 -0.4 3.7 -2.6 8.4 -4.9 8.5 -4.1 10.4 -3.9 9.4 1.2 -0.4 1.5 52.8 1.8 365.4 2.2 l365.8 0.3 0.4 -3.7 0.4 -3.7 9 4.2 9 4.1 -4.4 2.3 c-2.4 1.2 -6.4 3.3 -8.7 4.6 -5.5 3.1 -5.5 3.1 -5.5 -1.4 l0 -3.9 -365.9 0.3 -365.8 0.4 0 2.8 c0 1.4 -0.3 3 -0.6 3.3 -0.4 0.4 -4.2 -1.2 -8.6 -3.3z"/>
  <path d="M931.4 533 c2.3 -4.5 4.4 -8.5 4.6 -8.7 0.3 -0.3 1.4 0.8 2.7 2.3 l2.3 2.8 110.5 -83 c60.8 -45.7 111.6 -83.9 112.9 -84.9 2.4 -1.7 2.4 -1.8 0.1 -4.4 -1.3 -1.4 -2.1 -2.8 -1.8 -3.1 0.6 -0.5 15.2 -3.3 17.5 -3.3 1.2 0 0.5 2.4 -2.3 8.1 -5 10 -4.8 9.8 -7.3 6.4 -2.2 -2.8 -2.4 -2.7 -105.6 74.8 -56.9 42.8 -107.7 80.9 -112.7 84.9 -9.1 6.9 -9.3 7.2 -7.5 10 1.9 2.8 1.8 3.1 -0.9 3.7 -1.7 0.4 -6 1.2 -9.8 1.7 l-6.9 0.9 4.1 -8.2z"/>
  <path d="M135 531.2 c0.4 -0.3 57.2 -43 126.4 -95.1 l125.8 -94.4 29.3 0 c22.5 0 29.3 -0.4 29.5 -1.5 0.5 -4.4 0.8 -103.5 0.3 -106.4 l-0.5 -3.2 -28.3 0.3 c-21.1 0.1 -28.3 -0.1 -28.3 -1.3 0 -0.9 3.3 -3.9 7.3 -6.7 4 -2.8 7.8 -5.8 8.6 -6.4 2.2 -2.2 21.2 -16.1 21.8 -16.1 0.4 0 2.3 -1.5 4.2 -3.3 1.9 -1.8 8.5 -6.9 14.5 -11.2 6 -4.4 12.1 -8.9 13.5 -10 8.4 -6.8 35.6 -26.9 36.6 -26.9 0.8 0 1.3 -0.5 1.3 -1 0 -0.5 3.6 -3.6 8.1 -6.7 4.4 -3.1 19.3 -14.3 33 -24.7 13.7 -10.5 26.5 -20.2 28.3 -21.5 1.8 -1.3 11.7 -8.9 22.2 -16.7 10.4 -7.8 19.5 -14.3 20.2 -14.3 0.8 0 1.3 -0.5 1.3 -1.2 0 -0.5 2.4 -2.7 5.5 -4.8 3 -2.1 6.2 -4.5 7.2 -5.4 1 -1 2.3 -1.2 3.2 -0.5 0.8 0.6 7.2 5.5 14.3 10.9 7.1 5.4 13.5 10.3 14.1 10.8 0.8 0.6 3.7 2.7 6.8 4.8 3 2.1 5.4 4.2 5.4 4.8 0 0.6 0.9 1.2 1.9 1.2 1.2 0 2.3 0.9 2.7 1.9 0.5 1 1.3 1.9 1.9 1.9 1.3 0 20.7 14.5 29.4 21.8 2.4 2.1 5.1 3.9 6 3.9 0.9 0 2.1 0.8 2.6 1.7 0.5 0.8 3.5 3.2 6.6 5.3 3 2.1 5.4 4.2 5.4 4.8 0 0.6 0.9 1.2 1.9 1.2 1.2 0 2.3 0.9 2.7 1.9 0.5 1 1.4 1.9 2.2 1.9 0.6 0 3.7 1.9 6.6 4.4 l5.4 4.4 -0.1 -41.2 c-0.1 -22.7 0 -42.5 0.3 -44.1 0.5 -2.6 1.2 -2.6 31.9 -2.7 l31.2 0 0 67.3 0 67.2 4.1 3.9 c2.3 2.2 4.4 3.9 4.8 3.9 0.4 0 5.4 3.6 11.2 8.1 5.7 4.4 12.8 9.6 15.9 11.7 3 2.1 6.9 5 8.7 6.7 1.8 1.7 3.6 3.1 4.1 3.1 0.5 0 3 1.8 5.4 3.9 l4.5 3.7 -29.9 -0.1 c-16.3 -0.1 -30.1 0.1 -30.4 0.5 -0.8 0.8 -1 94.8 -0.3 95.6 0.3 0.3 18.9 -18.5 41.2 -41.9 22.5 -23.3 41.2 -42.4 41.9 -42.4 1.5 0 78.4 73.7 78.4 75.3 0 0.5 -4.6 5.9 -10.4 12.2 l-10.4 11.4 114.5 0 c63 0 114.5 0.4 114.5 1 -0.1 0.5 -40.7 31.2 -90.2 68.3 -49.6 37.1 -93.9 70.3 -98.5 73.9 -4.8 3.5 -20.6 15.4 -35.3 26.6 l-26.9 20.3 -393.8 0 c-216.6 0 -393.5 -0.3 -393.3 -0.6z m893.1 -94 l109.2 -82 -102.4 -0.4 c-56.4 -0.1 -103.2 0.1 -104.1 0.6 -0.9 0.6 -31 31.7 -66.9 69.1 -35.8 37.5 -69.4 72.3 -74.6 77.6 l-9.4 9.6 -23 -22.1 -23.1 -22.1 -143.6 0 -143.8 0 0.1 -56.5 0 -56.5 -28.3 0 -28.4 0 -107.9 81.1 c-59.4 44.6 -108.4 81.5 -109.1 82.2 -0.8 0.6 139.1 1.2 372.4 1.2 l373.6 0 109.2 -81.8z m-241.8 51.1 c3.1 -3.3 31.7 -33.3 63.5 -66.3 83.9 -87.4 98.3 -102.5 98.3 -103.4 0 -0.9 -57.6 -56.8 -60.1 -58.3 -1.9 -1.2 -14.4 10 -14.4 12.8 0 0.8 4.5 5.7 9.9 10.7 l9.9 9.3 -5.4 5.4 -5.4 5.4 -10 -10 -10 -9.9 -3.7 3.9 -3.7 3.9 4.1 4.1 4.1 4.1 -4.1 4.2 -4 4.1 -4.9 -3.9 -4.8 -3.7 -3.3 4.1 -3.2 4.2 3.7 3.9 3.9 4 -4.2 4.1 c-3.9 3.9 -4.5 4 -6 2.2 -3.9 -4.6 -6.4 -4.9 -10.4 -1.2 l-3.7 3.6 4.1 4.2 4.1 4.2 -3.7 3.9 c-2.1 2.1 -4.1 3.9 -4.5 3.9 -0.5 0 -2.6 -1.4 -4.5 -3.1 -2.8 -2.4 -4.2 -3 -6 -1.9 -5.1 2.7 -4.1 5 6.2 15.4 l10.1 10.1 -5.3 5.3 -5.3 5.1 -10.1 -9.6 -10.1 -9.6 -3.6 3.5 -3.5 3.3 3.2 3.3 c4.1 4.2 4 5.1 -0.5 9.5 l-3.7 3.6 -3.6 -3.2 c-3.7 -3.5 -6.3 -3 -9.4 2.1 -1.4 2.1 -1.2 3 1 5.3 3.5 3.7 3.5 4.8 -1 9 l-3.6 3.5 -3.9 -3.2 c-4 -3.3 -4.6 -3.2 -8.6 1.5 -2.4 2.8 -2.4 2.8 1.2 6.7 l3.7 3.9 -3.7 3.9 c-4.5 4.6 -4.8 4.6 -9.1 0.9 l-3.5 -3.1 -3.6 4 -3.6 4 9.9 9.9 9.8 10 -4.9 5 -5 5.1 -10.3 -9.6 -10.1 -9.5 -6 6 c-5.1 5.1 -5.9 6.6 -4.8 8.5 0.8 1.2 1.8 2.2 2.4 2.2 0.5 0 13.5 12.5 28.8 27.6 15.3 15.2 28.3 27.6 28.8 27.6 0.4 0 3.3 -2.8 6.4 -6.3z m-103.4 -86.6 l-0.1 -51.6 -5.8 -0.6 c-3.2 -0.4 -16.1 -0.5 -28.5 -0.3 l-22.9 0.4 0 51.9 0 51.9 4.9 0.4 c2.6 0.3 15.5 0.3 28.6 0 l23.8 -0.4 0 -51.6z m-119.2 -55.4 c0.5 -0.5 0.9 -13.4 1 -28.5 0 -24.2 -0.1 -27.5 -1.9 -27.5 -2.3 -0.1 -52.9 -0.1 -54.3 0 -0.6 0 -1 12.7 -1 28.1 0 25.3 0.3 28.3 2.2 28.6 4.2 0.8 53.2 0.1 54.1 -0.8z"/>
 </g>
</svg>